Varta-Bold.ufo
<glyph name="numbersign" format="2">
  <advance width="1042"/>
  <unicode hex="0023"/>
  <outline>
    <contour>
      <point x="181" y="0" type="line"/>
      <point x="316" y="0" type="line"/>
      <point x="365" y="405" type="line"/>
      <point x="613" y="405" type="line"/>
      <point x="565" y="0" type="line"/>
      <point x="699" y="0" type="line"/>
      <point x="749" y="405" type="line"/>
      <point x="939" y="405" type="line"/>
      <point x="939" y="550" type="line"/>
      <point x="766" y="550" type="line"/>
      <point x="799" y="824" type="line"/>
      <point x="980" y="824" type="line"/>
      <point x="980" y="970" type="line"/>
      <point x="817" y="970" type="line"/>
      <point x="863" y="1331" type="line"/>
      <point x="729" y="1331" type="line"/>
      <point x="683" y="970" type="line"/>
      <point x="433" y="970" type="line"/>
      <point x="478" y="1331" type="line"/>
      <point x="345" y="1331" type="line"/>
      <point x="299" y="970" type="line"/>
      <point x="112" y="970" type="line"/>
      <point x="112" y="824" type="line"/>
      <point x="281" y="824" type="line"/>
      <point x="248" y="550" type="line"/>
      <point x="71" y="550" type="line"/>
      <point x="71" y="405" type="line"/>
      <point x="230" y="405" type="line"/>
    </contour>
    <contour>
      <point x="383" y="550" type="line"/>
      <point x="416" y="824" type="line"/>
      <point x="665" y="824" type="line"/>
      <point x="631" y="550" type="line"/>
    </contour>
  </outline>
</glyph>
<glyph name="dollar" format="2">
  <advance width="1042"/>
  <unicode hex="0024"/>
  <outline>
    <contour>
      <point x="449" y="-225" type="line"/>
      <point x="601" y="-225" type="line"/>
      <point x="601" y="-16" type="line"/>
      <point x="802" y="18"/>
      <point x="919" y="159"/>
      <point x="919" y="354" type="curve" smooth="yes"/>
      <point x="919" y="776"/>
      <point x="360" y="719"/>
      <point x="360" y="977" type="curve" smooth="yes"/>
      <point x="360" y="1085"/>
      <point x="433" y="1148"/>
      <point x="547" y="1148" type="curve" smooth="yes"/>
      <point x="649" y="1148"/>
      <point x="708" y="1126"/>
      <point x="784" y="1054" type="curve"/>
      <point x="897" y="1186" type="line"/>
      <point x="821" y="1266"/>
      <point x="732" y="1309"/>
      <point x="601" y="1325" type="curve"/>
      <point x="601" y="1530" type="line"/>
      <point x="449" y="1530" type="line"/>
      <point x="449" y="1322" type="line"/>
      <point x="265" y="1290"/>
      <point x="147" y="1156"/>
      <point x="147" y="966" type="curve" smooth="yes"/>
      <point x="147" y="579"/>
      <point x="706" y="624"/>
      <point x="706" y="339" type="curve" smooth="yes"/>
      <point x="706" y="225"/>
      <point x="640" y="156"/>
      <point x="503" y="156" type="curve" smooth="yes"/>
      <point x="388" y="156"/>
      <point x="288" y="193"/>
      <point x="194" y="270" type="curve"/>
      <point x="96" y="115" type="line"/>
      <point x="187" y="32"/>
      <point x="322" y="-8"/>
      <point x="449" y="-22" type="curve"/>
    </contour>
  </outline>
</glyph>
<glyph name="percent" format="2">
  <advance width="1714"/>
  <unicode hex="0025"/>
  <outline>
    <contour>
      <point x="422" y="-25" type="line"/>
      <point x="558" y="-25" type="line"/>
      <point x="1291" y="1365" type="line"/>
      <point x="1155" y="1365" type="line"/>
    </contour>
    <contour>
      <point x="380" y="517" type="curve" smooth="yes"/>
      <point x="566" y="517"/>
      <point x="696" y="674"/>
      <point x="696" y="943" type="curve" smooth="yes"/>
      <point x="696" y="1212"/>
      <point x="566" y="1365"/>
      <point x="380" y="1365" type="curve" smooth="yes"/>
      <point x="193" y="1365"/>
      <point x="65" y="1212"/>
      <point x="65" y="943" type="curve" smooth="yes"/>
      <point x="65" y="674"/>
      <point x="193" y="517"/>
    </contour>
    <contour>
      <point x="380" y="646" type="curve" smooth="yes"/>
      <point x="288" y="646"/>
      <point x="223" y="739"/>
      <point x="223" y="943" type="curve" smooth="yes"/>
      <point x="223" y="1148"/>
      <point x="288" y="1237"/>
      <point x="380" y="1237" type="curve" smooth="yes"/>
      <point x="470" y="1237"/>
      <point x="536" y="1148"/>
      <point x="536" y="943" type="curve" smooth="yes"/>
      <point x="536" y="739"/>
      <point x="470" y="646"/>
    </contour>
    <contour>
      <point x="1335" y="-25" type="curve" smooth="yes"/>
      <point x="1521" y="-25"/>
      <point x="1651" y="131"/>
      <point x="1651" y="401" type="curve" smooth="yes"/>
      <point x="1651" y="669"/>
      <point x="1521" y="823"/>
      <point x="1335" y="823" type="curve" smooth="yes"/>
      <point x="1147" y="823"/>
      <point x="1019" y="669"/>
      <point x="1019" y="401" type="curve" smooth="yes"/>
      <point x="1019" y="131"/>
      <point x="1147" y="-25"/>
    </contour>
    <contour>
      <point x="1335" y="104" type="curve" smooth="yes"/>
      <point x="1244" y="104"/>
      <point x="1178" y="197"/>
      <point x="1178" y="401" type="curve" smooth="yes"/>
      <point x="1178" y="606"/>
      <point x="1244" y="695"/>
      <point x="1335" y="695" type="curve" smooth="yes"/>
      <point x="1425" y="695"/>
      <point x="1491" y="606"/>
      <point x="1491" y="401" type="curve" smooth="yes"/>
      <point x="1491" y="197"/>
      <point x="1425" y="104"/>
    </contour>
  </outline>
</glyph>
<glyph name="quotesingle" format="2">
  <advance width="550"/>
  <unicode hex="0027"/>
  <outline>
    <contour>
      <point x="211" y="791" type="line"/>
      <point x="337" y="791" type="line"/>
      <point x="380" y="1190" type="line"/>
      <point x="388" y="1410" type="line"/>
      <point x="161" y="1410" type="line"/>
      <point x="168" y="1190" type="line"/>
    </contour>
  </outline>
</glyph>
<glyph name="period" format="2">
  <advance width="550"/>
  <unicode hex="002E"/>
  <outline>
    <contour>
      <point x="275" y="-25" type="curve" smooth="yes"/>
      <point x="356" y="-25"/>
      <point x="420" y="40"/>
      <point x="420" y="126" type="curve" smooth="yes"/>
      <point x="420" y="215"/>
      <point x="356" y="279"/>
      <point x="275" y="279" type="curve" smooth="yes"/>
      <point x="194" y="279"/>
      <point x="130" y="215"/>
      <point x="130" y="126" type="curve" smooth="yes"/>
      <point x="130" y="40"/>
      <point x="194" y="-25"/>
    </contour>
  </outline>
</glyph>
<glyph name="zero" format="2">
  <advance width="1042"/>
  <unicode hex="0030"/>
  <outline>
    <contour>
      <point x="521" y="-25" type="curve" smooth="yes"/>
      <point x="795" y="-25"/>
      <point x="958" y="230"/>
      <point x="958" y="674" type="curve" smooth="yes"/>
      <point x="958" y="1120"/>
      <point x="795" y="1365"/>
      <point x="521" y="1365" type="curve" smooth="yes"/>
      <point x="246" y="1365"/>
      <point x="85" y="1120"/>
      <point x="85" y="674" type="curve" smooth="yes"/>
      <point x="85" y="230"/>
      <point x="246" y="-25"/>
    </contour>
    <contour>
      <point x="521" y="148" type="curve" smooth="yes"/>
      <point x="384" y="148"/>
      <point x="294" y="298"/>
      <point x="294" y="674" type="curve" smooth="yes"/>
      <point x="294" y="1051"/>
      <point x="384" y="1193"/>
      <point x="521" y="1193" type="curve" smooth="yes"/>
      <point x="658" y="1193"/>
      <point x="748" y="1051"/>
      <point x="748" y="674" type="curve" smooth="yes"/>
      <point x="748" y="298"/>
      <point x="658" y="148"/>
    </contour>
  </outline>
</glyph>
<glyph name="two" format="2">
  <advance width="1042"/>
  <unicode hex="0032"/>
  <outline>
    <contour>
      <point x="80" y="0" type="line"/>
      <point x="951" y="0" type="line"/>
      <point x="951" y="187" type="line"/>
      <point x="616" y="187" type="line" smooth="yes"/>
      <point x="551" y="187"/>
      <point x="467" y="180"/>
      <point x="398" y="173" type="curve"/>
      <point x="670" y="458"/>
      <point x="886" y="725"/>
      <point x="886" y="965" type="curve" smooth="yes"/>
      <point x="886" y="1211"/>
      <point x="727" y="1365"/>
      <point x="478" y="1365" type="curve" smooth="yes"/>
      <point x="302" y="1365"/>
      <point x="183" y="1295"/>
      <point x="67" y="1169" type="curve"/>
      <point x="189" y="1048" type="line"/>
      <point x="261" y="1129"/>
      <point x="347" y="1191"/>
      <point x="450" y="1191" type="curve" smooth="yes"/>
      <point x="597" y="1191"/>
      <point x="675" y="1101"/>
      <point x="675" y="951" type="curve" smooth="yes"/>
      <point x="675" y="751"/>
      <point x="449" y="489"/>
      <point x="80" y="127" type="curve"/>
    </contour>
  </outline>
</glyph>
<glyph name="four" format="2">
  <advance width="1042"/>
  <unicode hex="0034"/>
  <outline>
    <contour>
      <point x="615" y="0" type="line"/>
      <point x="821" y="0" type="line"/>
      <point x="821" y="341" type="line"/>
      <point x="988" y="341" type="line"/>
      <point x="988" y="513" type="line"/>
      <point x="821" y="513" type="line"/>
      <point x="821" y="1343" type="line"/>
      <point x="563" y="1343" type="line"/>
      <point x="37" y="489" type="line"/>
      <point x="37" y="341" type="line"/>
      <point x="615" y="341" type="line"/>
    </contour>
    <contour>
      <point x="257" y="513" type="line"/>
      <point x="511" y="922" type="line"/>
      <point x="548" y="990"/>
      <point x="585" y="1067"/>
      <point x="618" y="1133" type="curve"/>
      <point x="626" y="1133" type="line"/>
      <point x="622" y="1059"/>
      <point x="615" y="928"/>
      <point x="615" y="853" type="curve"/>
      <point x="615" y="513" type="line"/>
    </contour>
  </outline>
</glyph>
<glyph name="six" format="2">
  <advance width="1042"/>
  <unicode hex="0036"/>
  <outline>
    <contour>
      <point x="937" y="1233" type="line"/>
      <point x="861" y="1314"/>
      <point x="754" y="1365"/>
      <point x="601" y="1365" type="curve" smooth="yes"/>
      <point x="336" y="1365"/>
      <point x="93" y="1157"/>
      <point x="93" y="642" type="curve" smooth="yes"/>
      <point x="93" y="198"/>
      <point x="305" y="-25"/>
      <point x="559" y="-25" type="curve" smooth="yes"/>
      <point x="779" y="-25"/>
      <point x="963" y="145"/>
      <point x="963" y="407" type="curve" smooth="yes"/>
      <point x="963" y="699"/>
      <point x="809" y="842"/>
      <point x="585" y="842" type="curve" smooth="yes"/>
      <point x="489" y="842"/>
      <point x="374" y="791"/>
      <point x="297" y="696" type="curve"/>
      <point x="306" y="1074"/>
      <point x="445" y="1185"/>
      <point x="612" y="1185" type="curve" smooth="yes"/>
      <point x="692" y="1185"/>
      <point x="772" y="1154"/>
      <point x="822" y="1095" type="curve"/>
    </contour>
    <contour>
      <point x="557" y="144" type="curve" smooth="yes"/>
      <point x="420" y="144"/>
      <point x="315" y="273"/>
      <point x="302" y="534" type="curve"/>
      <point x="379" y="646"/>
      <point x="470" y="682"/>
      <point x="546" y="682" type="curve" smooth="yes"/>
      <point x="683" y="682"/>
      <point x="760" y="586"/>
      <point x="760" y="407" type="curve" smooth="yes"/>
      <point x="760" y="241"/>
      <point x="671" y="144"/>
    </contour>
  </outline>
</glyph>
<glyph name="less" format="2">
  <advance width="1042"/>
  <unicode hex="003C"/>
  <outline>
    <contour>
      <point x="972" y="247" type="line"/>
      <point x="972" y="432" type="line"/>
      <point x="293" y="676" type="line"/>
      <point x="293" y="684" type="line"/>
      <point x="972" y="928" type="line"/>
      <point x="972" y="1113" type="line"/>
      <point x="70" y="762" type="line"/>
      <point x="70" y="598" type="line"/>
    </contour>
  </outline>
</glyph>
<glyph name="D" format="2">
  <advance width="1270"/>
  <unicode hex="0044"/>
  <anchor x="635" y="0" name="bottom"/>
  <anchor x="635" y="670" name="center"/>
  <anchor x="635" y="1340" name="top"/>
  <outline>
    <contour>
      <point x="170" y="0" type="line"/>
      <point x="540" y="0" type="line" smooth="yes"/>
      <point x="940" y="0"/>
      <point x="1169" y="235"/>
      <point x="1169" y="678" type="curve" smooth="yes"/>
      <point x="1169" y="1127"/>
      <point x="950" y="1340"/>
      <point x="534" y="1340" type="curve"/>
      <point x="170" y="1340" type="line"/>
    </contour>
    <contour>
      <point x="392" y="179" type="line"/>
      <point x="392" y="1161" type="line"/>
      <point x="520" y="1161" type="line" smooth="yes"/>
      <point x="805" y="1161"/>
      <point x="943" y="1018"/>
      <point x="943" y="678" type="curve" smooth="yes"/>
      <point x="943" y="341"/>
      <point x="795" y="179"/>
      <point x="514" y="179" type="curve"/>
    </contour>
  </outline>
</glyph>
<glyph name="G" format="2">
  <advance width="1272"/>
  <unicode hex="0047"/>
  <anchor x="733" y="0" name="bottom"/>
  <anchor x="731" y="1365" name="top"/>
  <outline>
    <contour>
      <point x="1147" y="717" type="line"/>
      <point x="694" y="717" type="line"/>
      <point x="694" y="536" type="line"/>
      <point x="949" y="536" type="line"/>
      <point x="949" y="232" type="line"/>
      <point x="903" y="192"/>
      <point x="822" y="167"/>
      <point x="743" y="167" type="curve" smooth="yes"/>
      <point x="468" y="167"/>
      <point x="324" y="347"/>
      <point x="324" y="671" type="curve" smooth="yes"/>
      <point x="324" y="999"/>
      <point x="486" y="1174"/>
      <point x="734" y="1174" type="curve" smooth="yes"/>
      <point x="859" y="1174"/>
      <point x="937" y="1131"/>
      <point x="1005" y="1064" type="curve"/>
      <point x="1129" y="1202" type="line"/>
      <point x="1045" y="1287"/>
      <point x="915" y="1365"/>
      <point x="731" y="1365" type="curve" smooth="yes"/>
      <point x="368" y="1365"/>
      <point x="97" y="1128"/>
      <point x="97" y="665" type="curve" smooth="yes"/>
      <point x="97" y="207"/>
      <point x="360" y="-25"/>
      <point x="717" y="-25" type="curve" smooth="yes"/>
      <point x="900" y="-25"/>
      <point x="1056" y="48"/>
      <point x="1147" y="133" type="curve"/>
    </contour>
  </outline>
</glyph>
<glyph name="H" format="2">
  <advance width="1344"/>
  <unicode hex="0048"/>
  <anchor x="672" y="0" name="bottom"/>
  <anchor x="672" y="670" name="center"/>
  <anchor x="672" y="1340" name="top"/>
  <outline>
    <contour>
      <point x="170" y="0" type="line"/>
      <point x="392" y="0" type="line"/>
      <point x="392" y="604" type="line"/>
      <point x="954" y="604" type="line"/>
      <point x="954" y="0" type="line"/>
      <point x="1174" y="0" type="line"/>
      <point x="1174" y="1340" type="line"/>
      <point x="954" y="1340" type="line"/>
      <point x="954" y="796" type="line"/>
      <point x="392" y="796" type="line"/>
      <point x="392" y="1340" type="line"/>
      <point x="170" y="1340" type="line"/>
    </contour>
  </outline>
</glyph>
<glyph name="J" format="2">
  <advance width="997"/>
  <unicode hex="004A"/>
  <anchor x="499" y="0" name="bottom"/>
  <anchor x="499" y="1340" name="top"/>
  <outline>
    <contour>
      <point x="834" y="1340" type="line"/>
      <point x="613" y="1340" type="line"/>
      <point x="613" y="426" type="line" smooth="yes"/>
      <point x="613" y="231"/>
      <point x="549" y="167"/>
      <point x="419" y="167" type="curve" smooth="yes"/>
      <point x="333" y="167"/>
      <point x="259" y="212"/>
      <point x="201" y="311" type="curve"/>
      <point x="48" y="200" type="line"/>
      <point x="132" y="51"/>
      <point x="260" y="-25"/>
      <point x="443" y="-25" type="curve" smooth="yes"/>
      <point x="719" y="-25"/>
      <point x="834" y="165"/>
      <point x="834" y="406" type="curve" smooth="yes"/>
    </contour>
  </outline>
</glyph>
<glyph name="P" format="2">
  <advance width="1196"/>
  <unicode hex="0050"/>
  <anchor x="598" y="0" name="bottom"/>
  <anchor x="598" y="1340" name="top"/>
  <outline>
    <contour>
      <point x="170" y="0" type="line"/>
      <point x="392" y="0" type="line"/>
      <point x="392" y="485" type="line"/>
      <point x="623" y="485" type="line" smooth="yes"/>
      <point x="920" y="485"/>
      <point x="1117" y="632"/>
      <point x="1117" y="925" type="curve" smooth="yes"/>
      <point x="1117" y="1232"/>
      <point x="928" y="1340"/>
      <point x="621" y="1340" type="curve"/>
      <point x="170" y="1340" type="line"/>
    </contour>
    <contour>
      <point x="392" y="663" type="line"/>
      <point x="392" y="1164" type="line"/>
      <point x="604" y="1164" type="line" smooth="yes"/>
      <point x="815" y="1164"/>
      <point x="900" y="1099"/>
      <point x="900" y="925" type="curve" smooth="yes"/>
      <point x="900" y="755"/>
      <point x="818" y="663"/>
      <point x="602" y="663" type="curve"/>
    </contour>
  </outline>
</glyph>
<glyph name="S" format="2">
  <advance width="1103"/>
  <unicode hex="0053"/>
  <anchor x="552" y="0" name="bottom"/>
  <anchor x="552" y="1340" name="top"/>
  <outline>
    <contour>
      <point x="571" y="807" type="line" smooth="yes"/>
      <point x="462" y="853"/>
      <point x="357" y="904"/>
      <point x="357" y="1015" type="curve" smooth="yes"/>
      <point x="357" y="1119"/>
      <point x="445" y="1174"/>
      <point x="578" y="1174" type="curve" smooth="yes"/>
      <point x="697" y="1174"/>
      <point x="789" y="1135"/>
      <point x="873" y="1062" type="curve"/>
      <point x="987" y="1202" type="line"/>
      <point x="884" y="1307"/>
      <point x="739" y="1365"/>
      <point x="580" y="1365" type="curve" smooth="yes"/>
      <point x="321" y="1365"/>
      <point x="134" y="1212"/>
      <point x="134" y="1001" type="curve" smooth="yes"/>
      <point x="134" y="804"/>
      <point x="273" y="694"/>
      <point x="404" y="640" type="curve"/>
      <point x="588" y="560" type="line"/>
      <point x="711" y="505"/>
      <point x="806" y="467"/>
      <point x="806" y="350" type="curve" smooth="yes"/>
      <point x="806" y="239"/>
      <point x="721" y="167"/>
      <point x="560" y="167" type="curve" smooth="yes"/>
      <point x="429" y="167"/>
      <point x="305" y="223"/>
      <point x="209" y="316" type="curve"/>
      <point x="80" y="163" type="line"/>
      <point x="205" y="40"/>
      <point x="371" y="-25"/>
      <point x="556" y="-25" type="curve" smooth="yes"/>
      <point x="855" y="-25"/>
      <point x="1032" y="152"/>
      <point x="1032" y="368" type="curve" smooth="yes"/>
      <point x="1032" y="563"/>
      <point x="913" y="663"/>
      <point x="755" y="730" type="curve" smooth="yes"/>
    </contour>
  </outline>
</glyph>
<glyph name="T" format="2">
  <advance width="1106"/>
  <unicode hex="0054"/>
  <anchor x="553" y="0" name="bottom"/>
  <anchor x="553" y="670" name="center"/>
  <anchor x="553" y="1340" name="top"/>
  <outline>
    <contour>
      <point x="443" y="0" type="line"/>
      <point x="663" y="0" type="line"/>
      <point x="663" y="1155" type="line"/>
      <point x="1055" y="1155" type="line"/>
      <point x="1055" y="1340" type="line"/>
      <point x="50" y="1340" type="line"/>
      <point x="50" y="1155" type="line"/>
      <point x="443" y="1155" type="line"/>
    </contour>
  </outline>
</glyph>
<glyph name="U" format="2">
  <advance width="1329"/>
  <unicode hex="0055"/>
  <anchor x="665" y="0" name="bottom"/>
  <anchor x="1196" y="10" name="ogonek"/>
  <anchor x="665" y="1340" name="top"/>
  <anchor x="1309" y="1340" name="topright"/>
  <outline>
    <contour>
      <point x="1166" y="1340" type="line"/>
      <point x="954" y="1340" type="line"/>
      <point x="954" y="557" type="line" smooth="yes"/>
      <point x="954" y="258"/>
      <point x="833" y="167"/>
      <point x="665" y="167" type="curve" smooth="yes"/>
      <point x="500" y="167"/>
      <point x="385" y="259"/>
      <point x="385" y="557" type="curve" smooth="yes"/>
      <point x="385" y="1340" type="line"/>
      <point x="164" y="1340" type="line"/>
      <point x="164" y="571" type="line" smooth="yes"/>
      <point x="164" y="136"/>
      <point x="364" y="-25"/>
      <point x="665" y="-25" type="curve" smooth="yes"/>
      <point x="967" y="-25"/>
      <point x="1166" y="134"/>
      <point x="1166" y="571" type="curve" smooth="yes"/>
    </contour>
  </outline>
</glyph>
<glyph name="V" format="2">
  <advance width="1079"/>
  <unicode hex="0056"/>
  <anchor x="540" y="0" name="bottom"/>
  <anchor x="540" y="1340" name="top"/>
  <outline>
    <contour>
      <point x="410" y="0" type="line"/>
      <point x="671" y="0" type="line"/>
      <point x="1089" y="1340" type="line"/>
      <point x="863" y="1340" type="line"/>
      <point x="669" y="654" type="line"/>
      <point x="627" y="500"/>
      <point x="596" y="370"/>
      <point x="549" y="216" type="curve"/>
      <point x="541" y="216" type="line"/>
      <point x="495" y="370"/>
      <point x="464" y="500"/>
      <point x="420" y="654" type="curve" smooth="yes"/>
      <point x="224" y="1340" type="line"/>
      <point x="-9" y="1340" type="line"/>
    </contour>
  </outline>
</glyph>
<glyph name="Y" format="2">
  <advance width="1006"/>
  <unicode hex="0059"/>
  <anchor x="503" y="0" name="bottom"/>
  <anchor x="503" y="1340" name="top"/>
  <outline>
    <contour>
      <point x="392" y="0" type="line"/>
      <point x="612" y="0" type="line"/>
      <point x="612" y="503" type="line"/>
      <point x="1016" y="1340" type="line"/>
      <point x="787" y="1340" type="line"/>
      <point x="634" y="989" type="line"/>
      <point x="595" y="890"/>
      <point x="550" y="796"/>
      <point x="508" y="695" type="curve"/>
      <point x="500" y="695" type="line"/>
      <point x="456" y="796"/>
      <point x="418" y="890"/>
      <point x="378" y="989" type="curve"/>
      <point x="225" y="1340" type="line"/>
      <point x="-11" y="1340" type="line"/>
      <point x="392" y="503" type="line"/>
    </contour>
  </outline>
</glyph>
<glyph name="asciicircum" format="2">
  <advance width="1042"/>
  <unicode hex="005E"/>
  <outline>
    <contour>
      <point x="115" y="574" type="line"/>
      <point x="301" y="574" type="line"/>
      <point x="419" y="897" type="line"/>
      <point x="518" y="1170" type="line"/>
      <point x="526" y="1170" type="line"/>
      <point x="623" y="897" type="line"/>
      <point x="742" y="574" type="line"/>
      <point x="927" y="574" type="line"/>
      <point x="614" y="1372" type="line"/>
      <point x="429" y="1372" type="line"/>
    </contour>
  </outline>
</glyph>
<glyph name="underscore" format="2">
  <advance width="1024"/>
  <unicode hex="005F"/>
  <outline>
    <contour>
      <point x="-5" y="-269" type="line"/>
      <point x="1039" y="-269" type="line"/>
      <point x="1039" y="-134" type="line"/>
      <point x="-5" y="-134" type="line"/>
    </contour>
  </outline>
</glyph>
<glyph name="grave" format="2">
  <advance width="1120"/>
  <unicode hex="0060"/>
  <anchor x="629" y="800" name="_top"/>
  <outline>
    <contour>
      <point x="543" y="1175" type="line"/>
      <point x="706" y="1175" type="line"/>
      <point x="523" y="1470" type="line"/>
      <point x="303" y="1470" type="line"/>
    </contour>
  </outline>
</glyph>
<glyph name="b" format="2">
  <advance width="1151"/>
  <unicode hex="0062"/>
  <anchor x="607" y="-200" name="btm"/>
  <anchor x="734" y="800" name="top"/>
  <outline>
    <contour>
      <point x="373" y="1069" type="line"/>
      <point x="373" y="1450" type="line"/>
      <point x="155" y="1450" type="line"/>
      <point x="155" y="0" type="line"/>
      <point x="328" y="0" type="line"/>
      <point x="346" y="101" type="line"/>
      <point x="353" y="101" type="line"/>
      <point x="438" y="20"/>
      <point x="536" y="-25"/>
      <point x="631" y="-25" type="curve" smooth="yes"/>
      <point x="862" y="-25"/>
      <point x="1059" y="160"/>
      <point x="1059" y="517" type="curve" smooth="yes"/>
      <point x="1059" y="838"/>
      <point x="926" y="1028"/>
      <point x="664" y="1028" type="curve" smooth="yes"/>
      <point x="556" y="1028"/>
      <point x="453" y="975"/>
      <point x="368" y="899" type="curve"/>
    </contour>
    <contour>
      <point x="373" y="727" type="line"/>
      <point x="454" y="806"/>
      <point x="526" y="847"/>
      <point x="604" y="847" type="curve" smooth="yes"/>
      <point x="773" y="847"/>
      <point x="833" y="724"/>
      <point x="833" y="514" type="curve" smooth="yes"/>
      <point x="833" y="276"/>
      <point x="730" y="157"/>
      <point x="585" y="157" type="curve" smooth="yes"/>
      <point x="523" y="157"/>
      <point x="448" y="180"/>
      <point x="373" y="246" type="curve"/>
    </contour>
  </outline>
</glyph>
<glyph name="g" format="2">
  <advance width="1056"/>
  <unicode hex="0067"/>
  <anchor x="556" y="-200" name="btm"/>
  <anchor x="556" y="800" name="top"/>
  <outline>
    <contour>
      <point x="484" y="161" type="line" smooth="yes"/>
      <point x="358" y="161"/>
      <point x="317" y="198"/>
      <point x="317" y="257" type="curve" smooth="yes"/>
      <point x="317" y="305"/>
      <point x="338" y="323"/>
      <point x="370" y="351" type="curve"/>
      <point x="415" y="332"/>
      <point x="462" y="322"/>
      <point x="509" y="322" type="curve" smooth="yes"/>
      <point x="726" y="322"/>
      <point x="888" y="437"/>
      <point x="888" y="666" type="curve" smooth="yes"/>
      <point x="888" y="742"/>
      <point x="860" y="807"/>
      <point x="823" y="846" type="curve"/>
      <point x="1012" y="846" type="line"/>
      <point x="1012" y="1003" type="line"/>
      <point x="657" y="1003" type="line"/>
      <point x="617" y="1018"/>
      <point x="571" y="1028"/>
      <point x="509" y="1028" type="curve" smooth="yes"/>
      <point x="294" y="1028"/>
      <point x="117" y="909"/>
      <point x="117" y="673" type="curve" smooth="yes"/>
      <point x="117" y="549"/>
      <point x="182" y="458"/>
      <point x="250" y="406" type="curve"/>
      <point x="250" y="398" type="line"/>
      <point x="193" y="359"/>
      <point x="139" y="300"/>
      <point x="139" y="220" type="curve" smooth="yes"/>
      <point x="139" y="139"/>
      <point x="178" y="94"/>
      <point x="229" y="61" type="curve"/>
      <point x="229" y="53" type="line"/>
      <point x="137" y="-3"/>
      <point x="84" y="-97"/>
      <point x="84" y="-184" type="curve" smooth="yes"/>
      <point x="84" y="-359"/>
      <point x="239" y="-449"/>
      <point x="500" y="-449" type="curve" smooth="yes"/>
      <point x="833" y="-449"/>
      <point x="1029" y="-291"/>
      <point x="1029" y="-97" type="curve" smooth="yes"/>
      <point x="1029" y="75"/>
      <point x="918" y="161"/>
      <point x="679" y="161" type="curve" smooth="yes"/>
    </contour>
    <contour>
      <point x="635" y="0" type="line" smooth="yes"/>
      <point x="753" y="0"/>
      <point x="818" y="-49"/>
      <point x="818" y="-131" type="curve" smooth="yes"/>
      <point x="818" y="-223"/>
      <point x="709" y="-303"/>
      <point x="534" y="-303" type="curve" smooth="yes"/>
      <point x="365" y="-303"/>
      <point x="271" y="-247"/>
      <point x="271" y="-152" type="curve" smooth="yes"/>
      <point x="271" y="-84"/>
      <point x="295" y="-29"/>
      <point x="354" y="14" type="curve"/>
      <point x="393" y="4"/>
      <point x="437" y="0"/>
      <point x="488" y="0" type="curve" smooth="yes"/>
    </contour>
    <contour>
      <point x="509" y="461" type="curve" smooth="yes"/>
      <point x="408" y="461"/>
      <point x="325" y="533"/>
      <point x="325" y="673" type="curve" smooth="yes"/>
      <point x="325" y="810"/>
      <point x="400" y="874"/>
      <point x="509" y="874" type="curve" smooth="yes"/>
      <point x="618" y="874"/>
      <point x="693" y="809"/>
      <point x="693" y="673" type="curve" smooth="yes"/>
      <point x="693" y="531"/>
      <point x="610" y="461"/>
    </contour>
  </outline>
</glyph>
<glyph name="h" format="2">
  <advance width="1135"/>
  <unicode hex="0068"/>
  <anchor x="576" y="-200" name="btm"/>
  <anchor x="262" y="928" name="top"/>
  <outline>
    <contour>
      <point x="155" y="0" type="line"/>
      <point x="373" y="0" type="line"/>
      <point x="373" y="708" type="line"/>
      <point x="460" y="794"/>
      <point x="522" y="840"/>
      <point x="614" y="840" type="curve" smooth="yes"/>
      <point x="731" y="840"/>
      <point x="778" y="776"/>
      <point x="778" y="604" type="curve" smooth="yes"/>
      <point x="778" y="0" type="line"/>
      <point x="997" y="0" type="line"/>
      <point x="997" y="633" type="line" smooth="yes"/>
      <point x="997" y="887"/>
      <point x="906" y="1028"/>
      <point x="689" y="1028" type="curve" smooth="yes"/>
      <point x="551" y="1028"/>
      <point x="451" y="955"/>
      <point x="364" y="873" type="curve"/>
      <point x="373" y="1069" type="line"/>
      <point x="373" y="1450" type="line"/>
      <point x="155" y="1450" type="line"/>
    </contour>
  </outline>
</glyph>
<glyph name="k" format="2">
  <advance width="1055"/>
  <unicode hex="006B"/>
  <anchor x="597" y="-200" name="btm"/>
  <anchor x="597" y="800" name="top"/>
  <outline>
    <contour>
      <point x="155" y="0" type="line"/>
      <point x="369" y="0" type="line"/>
      <point x="369" y="257" type="line"/>
      <point x="533" y="447" type="line"/>
      <point x="801" y="0" type="line"/>
      <point x="1039" y="0" type="line"/>
      <point x="658" y="597" type="line"/>
      <point x="1001" y="1003" type="line"/>
      <point x="761" y="1003" type="line"/>
      <point x="376" y="525" type="line"/>
      <point x="369" y="525" type="line"/>
      <point x="369" y="1450" type="line"/>
      <point x="155" y="1450" type="line"/>
    </contour>
  </outline>
</glyph>
<glyph name="l" format="2">
  <advance width="546"/>
  <unicode hex="006C"/>
  <anchor x="273" y="0" name="bottom"/>
  <anchor x="273" y="502" name="center"/>
  <anchor x="273" y="1003" name="top"/>
  <anchor x="526" y="1003" name="topright"/>
  <outline>
    <contour>
      <point x="460" y="159" type="line"/>
      <point x="442" y="155"/>
      <point x="434" y="155"/>
      <point x="423" y="155" type="curve" smooth="yes"/>
      <point x="398" y="155"/>
      <point x="373" y="175"/>
      <point x="373" y="232" type="curve" smooth="yes"/>
      <point x="373" y="1450" type="line"/>
      <point x="155" y="1450" type="line"/>
      <point x="155" y="245" type="line" smooth="yes"/>
      <point x="155" y="76"/>
      <point x="213" y="-25"/>
      <point x="370" y="-25" type="curve" smooth="yes"/>
      <point x="424" y="-25"/>
      <point x="461" y="-16"/>
      <point x="487" y="-5" type="curve"/>
    </contour>
  </outline>
</glyph>
<glyph name="m" format="2">
  <advance width="1720"/>
  <unicode hex="006D"/>
  <anchor x="887" y="-200" name="btm"/>
  <anchor x="865" y="800" name="top"/>
  <outline>
    <contour>
      <point x="155" y="0" type="line"/>
      <point x="373" y="0" type="line"/>
      <point x="373" y="708" type="line"/>
      <point x="455" y="796"/>
      <point x="529" y="840"/>
      <point x="594" y="840" type="curve" smooth="yes"/>
      <point x="711" y="840"/>
      <point x="756" y="781"/>
      <point x="756" y="609" type="curve" smooth="yes"/>
      <point x="756" y="0" type="line"/>
      <point x="975" y="0" type="line"/>
      <point x="975" y="711" type="line"/>
      <point x="1057" y="799"/>
      <point x="1128" y="840"/>
      <point x="1196" y="840" type="curve" smooth="yes"/>
      <point x="1312" y="840"/>
      <point x="1358" y="777"/>
      <point x="1358" y="605" type="curve" smooth="yes"/>
      <point x="1358" y="0" type="line"/>
      <point x="1576" y="0" type="line"/>
      <point x="1576" y="634" type="line" smooth="yes"/>
      <point x="1576" y="888"/>
      <point x="1485" y="1028"/>
      <point x="1268" y="1028" type="curve" smooth="yes"/>
      <point x="1142" y="1028"/>
      <point x="1042" y="953"/>
      <point x="943" y="848" type="curve"/>
      <point x="901" y="969"/>
      <point x="824" y="1028"/>
      <point x="669" y="1028" type="curve" smooth="yes"/>
      <point x="545" y="1028"/>
      <point x="444" y="955"/>
      <point x="359" y="865" type="curve"/>
      <point x="351" y="865" type="line"/>
      <point x="334" y="1003" type="line"/>
      <point x="155" y="1003" type="line"/>
    </contour>
  </outline>
</glyph>
<glyph name="n" format="2">
  <advance width="1139"/>
  <unicode hex="006E"/>
  <anchor x="597" y="-200" name="btm"/>
  <anchor x="597" y="800" name="top"/>
  <outline>
    <contour>
      <point x="155" y="0" type="line"/>
      <point x="373" y="0" type="line"/>
      <point x="373" y="708" type="line"/>
      <point x="460" y="794"/>
      <point x="522" y="840"/>
      <point x="614" y="840" type="curve" smooth="yes"/>
      <point x="734" y="840"/>
      <point x="778" y="777"/>
      <point x="778" y="605" type="curve" smooth="yes"/>
      <point x="778" y="0" type="line"/>
      <point x="997" y="0" type="line"/>
      <point x="997" y="634" type="line" smooth="yes"/>
      <point x="997" y="888"/>
      <point x="908" y="1028"/>
      <point x="689" y="1028" type="curve" smooth="yes"/>
      <point x="551" y="1028"/>
      <point x="449" y="955"/>
      <point x="359" y="865" type="curve"/>
      <point x="351" y="865" type="line"/>
      <point x="334" y="1003" type="line"/>
      <point x="155" y="1003" type="line"/>
    </contour>
  </outline>
</glyph>
<glyph name="o" format="2">
  <advance width="1120"/>
  <unicode hex="006F"/>
  <anchor x="560" y="-200" name="btm"/>
  <anchor x="560" y="800" name="top"/>
  <outline>
    <contour>
      <point x="560" y="-25" type="curve" smooth="yes"/>
      <point x="813" y="-25"/>
      <point x="1034" y="164"/>
      <point x="1034" y="502" type="curve" smooth="yes"/>
      <point x="1034" y="842"/>
      <point x="813" y="1028"/>
      <point x="560" y="1028" type="curve" smooth="yes"/>
      <point x="306" y="1028"/>
      <point x="87" y="842"/>
      <point x="87" y="502" type="curve" smooth="yes"/>
      <point x="87" y="164"/>
      <point x="306" y="-25"/>
    </contour>
    <contour>
      <point x="560" y="155" type="curve" smooth="yes"/>
      <point x="404" y="155"/>
      <point x="313" y="291"/>
      <point x="313" y="502" type="curve" smooth="yes"/>
      <point x="313" y="714"/>
      <point x="404" y="849"/>
      <point x="560" y="849" type="curve" smooth="yes"/>
      <point x="717" y="849"/>
      <point x="809" y="714"/>
      <point x="809" y="502" type="curve" smooth="yes"/>
      <point x="809" y="291"/>
      <point x="717" y="155"/>
    </contour>
  </outline>
</glyph>
<glyph name="p" format="2">
  <advance width="1151"/>
  <unicode hex="0070"/>
  <anchor x="260" y="-200" name="btm"/>
  <anchor x="607" y="800" name="top"/>
  <outline>
    <contour>
      <point x="155" y="-404" type="line"/>
      <point x="373" y="-404" type="line"/>
      <point x="373" y="-82" type="line"/>
      <point x="367" y="87" type="line"/>
      <point x="451" y="16"/>
      <point x="537" y="-25"/>
      <point x="630" y="-25" type="curve" smooth="yes"/>
      <point x="858" y="-25"/>
      <point x="1059" y="169"/>
      <point x="1059" y="515" type="curve" smooth="yes"/>
      <point x="1059" y="831"/>
      <point x="921" y="1028"/>
      <point x="664" y="1028" type="curve" smooth="yes"/>
      <point x="549" y="1028"/>
      <point x="444" y="968"/>
      <point x="359" y="894" type="curve"/>
      <point x="351" y="894" type="line"/>
      <point x="334" y="1003" type="line"/>
      <point x="155" y="1003" type="line"/>
    </contour>
    <contour>
      <point x="373" y="727" type="line"/>
      <point x="457" y="806"/>
      <point x="527" y="847"/>
      <point x="603" y="847" type="curve" smooth="yes"/>
      <point x="770" y="847"/>
      <point x="833" y="723"/>
      <point x="833" y="514" type="curve" smooth="yes"/>
      <point x="833" y="279"/>
      <point x="728" y="157"/>
      <point x="584" y="157" type="curve" smooth="yes"/>
      <point x="523" y="157"/>
      <point x="449" y="180"/>
      <point x="373" y="246" type="curve"/>
    </contour>
  </outline>
</glyph>
<glyph name="r" format="2">
  <advance width="751"/>
  <unicode hex="0072"/>
  <anchor x="334" y="-200" name="btm"/>
  <anchor x="455" y="800" name="top"/>
  <outline>
    <contour>
      <point x="155" y="0" type="line"/>
      <point x="373" y="0" type="line"/>
      <point x="373" y="620" type="line"/>
      <point x="435" y="776"/>
      <point x="534" y="833"/>
      <point x="614" y="833" type="curve" smooth="yes"/>
      <point x="656" y="833"/>
      <point x="682" y="827"/>
      <point x="716" y="817" type="curve"/>
      <point x="755" y="1007" type="line"/>
      <point x="724" y="1021"/>
      <point x="692" y="1028"/>
      <point x="643" y="1028" type="curve" smooth="yes"/>
      <point x="534" y="1028"/>
      <point x="428" y="953"/>
      <point x="359" y="824" type="curve"/>
      <point x="351" y="824" type="line"/>
      <point x="334" y="1003" type="line"/>
      <point x="155" y="1003" type="line"/>
    </contour>
  </outline>
</glyph>
<glyph name="s" format="2">
  <advance width="877"/>
  <unicode hex="0073"/>
  <anchor x="459" y="-200" name="btm"/>
  <anchor x="455" y="800" name="top"/>
  <outline>
    <contour>
      <point x="790" y="911" type="line"/>
      <point x="709" y="975"/>
      <point x="598" y="1028"/>
      <point x="462" y="1028" type="curve" smooth="yes"/>
      <point x="239" y="1028"/>
      <point x="101" y="904"/>
      <point x="101" y="734" type="curve" smooth="yes"/>
      <point x="101" y="566"/>
      <point x="254" y="488"/>
      <point x="387" y="439" type="curve" smooth="yes"/>
      <point x="495" y="398"/>
      <point x="607" y="358"/>
      <point x="607" y="268" type="curve" smooth="yes"/>
      <point x="607" y="195"/>
      <point x="555" y="141"/>
      <point x="436" y="141" type="curve" smooth="yes"/>
      <point x="330" y="141"/>
      <point x="247" y="187"/>
      <point x="158" y="256" type="curve"/>
      <point x="55" y="115" type="line"/>
      <point x="152" y="34"/>
      <point x="292" y="-25"/>
      <point x="430" y="-25" type="curve" smooth="yes"/>
      <point x="680" y="-25"/>
      <point x="815" y="112"/>
      <point x="815" y="281" type="curve" smooth="yes"/>
      <point x="815" y="469"/>
      <point x="660" y="536"/>
      <point x="522" y="586" type="curve"/>
      <point x="413" y="628"/>
      <point x="310" y="666"/>
      <point x="310" y="750" type="curve" smooth="yes"/>
      <point x="310" y="818"/>
      <point x="357" y="862"/>
      <point x="465" y="862" type="curve" smooth="yes"/>
      <point x="555" y="862"/>
      <point x="619" y="829"/>
      <point x="689" y="777" type="curve"/>
    </contour>
  </outline>
</glyph>
<glyph name="x" format="2">
  <advance width="966"/>
  <unicode hex="0078"/>
  <anchor x="483" y="-200" name="btm"/>
  <anchor x="483" y="800" name="top"/>
  <outline>
    <contour>
      <point x="29" y="0" type="line"/>
      <point x="257" y="0" type="line"/>
      <point x="371" y="207" type="line"/>
      <point x="400" y="268"/>
      <point x="432" y="327"/>
      <point x="462" y="385" type="curve"/>
      <point x="471" y="385" type="line"/>
      <point x="506" y="327"/>
      <point x="540" y="266"/>
      <point x="574" y="207" type="curve"/>
      <point x="701" y="0" type="line"/>
      <point x="938" y="0" type="line"/>
      <point x="618" y="499" type="line"/>
      <point x="917" y="1003" type="line"/>
      <point x="689" y="1003" type="line"/>
      <point x="588" y="805" type="line"/>
      <point x="561" y="750"/>
      <point x="531" y="692"/>
      <point x="506" y="636" type="curve"/>
      <point x="498" y="636" type="line"/>
      <point x="465" y="692"/>
      <point x="433" y="750"/>
      <point x="404" y="805" type="curve"/>
      <point x="288" y="1003" type="line"/>
      <point x="51" y="1003" type="line"/>
      <point x="349" y="523" type="line"/>
    </contour>
  </outline>
</glyph>
<glyph name="yen" format="2">
  <advance width="1042"/>
  <unicode hex="00A5"/>
  <outline>
    <contour>
      <point x="411" y="0" type="line"/>
      <point x="629" y="0" type="line"/>
      <point x="629" y="315" type="line"/>
      <point x="957" y="315" type="line"/>
      <point x="957" y="430" type="line"/>
      <point x="629" y="430" type="line"/>
      <point x="629" y="556" type="line"/>
      <point x="957" y="556" type="line"/>
      <point x="957" y="670" type="line"/>
      <point x="681" y="670" type="line"/>
      <point x="1004" y="1304" type="line"/>
      <point x="782" y="1304" type="line"/>
      <point x="644" y="983" type="line" smooth="yes"/>
      <point x="605" y="894"/>
      <point x="569" y="804"/>
      <point x="527" y="711" type="curve"/>
      <point x="519" y="711" type="line"/>
      <point x="479" y="803"/>
      <point x="442" y="893"/>
      <point x="404" y="983" type="curve"/>
      <point x="265" y="1304" type="line"/>
      <point x="39" y="1304" type="line"/>
      <point x="360" y="670" type="line"/>
      <point x="86" y="670" type="line"/>
      <point x="86" y="556" type="line"/>
      <point x="411" y="556" type="line"/>
      <point x="411" y="430" type="line"/>
      <point x="86" y="430" type="line"/>
      <point x="86" y="315" type="line"/>
      <point x="411" y="315" type="line"/>
    </contour>
  </outline>
</glyph>
<glyph name="dieresis" format="2">
  <advance width="1120"/>
  <unicode hex="00A8"/>
  <anchor x="560" y="800" name="_top"/>
  <outline>
    <contour>
      <point x="747" y="1191" type="curve" smooth="yes"/>
      <point x="816" y="1191"/>
      <point x="863" y="1241"/>
      <point x="863" y="1308" type="curve" smooth="yes"/>
      <point x="863" y="1374"/>
      <point x="816" y="1424"/>
      <point x="747" y="1424" type="curve" smooth="yes"/>
      <point x="679" y="1424"/>
      <point x="631" y="1374"/>
      <point x="631" y="1308" type="curve" smooth="yes"/>
      <point x="631" y="1241"/>
      <point x="679" y="1191"/>
    </contour>
    <contour>
      <point x="374" y="1191" type="curve" smooth="yes"/>
      <point x="442" y="1191"/>
      <point x="490" y="1241"/>
      <point x="490" y="1308" type="curve" smooth="yes"/>
      <point x="490" y="1374"/>
      <point x="442" y="1424"/>
      <point x="374" y="1424" type="curve" smooth="yes"/>
      <point x="306" y="1424"/>
      <point x="258" y="1374"/>
      <point x="258" y="1308" type="curve" smooth="yes"/>
      <point x="258" y="1241"/>
      <point x="306" y="1191"/>
    </contour>
  </outline>
</glyph>
<glyph name="copyright" format="2">
  <advance width="1529"/>
  <unicode hex="00A9"/>
  <outline>
    <contour>
      <point x="767" y="-49" type="curve" smooth="yes"/>
      <point x="1140" y="-49"/>
      <point x="1459" y="226"/>
      <point x="1459" y="663" type="curve" smooth="yes"/>
      <point x="1459" y="1099"/>
      <point x="1140" y="1367"/>
      <point x="767" y="1367" type="curve" smooth="yes"/>
      <point x="395" y="1367"/>
      <point x="74" y="1100"/>
      <point x="74" y="663" type="curve" smooth="yes"/>
      <point x="74" y="226"/>
      <point x="395" y="-49"/>
    </contour>
    <contour>
      <point x="973" y="477" type="line"/>
      <point x="917" y="430"/>
      <point x="860" y="395"/>
      <point x="781" y="395" type="curve" smooth="yes"/>
      <point x="647" y="395"/>
      <point x="559" y="497"/>
      <point x="559" y="663" type="curve" smooth="yes"/>
      <point x="559" y="807"/>
      <point x="647" y="915"/>
      <point x="789" y="915" type="curve" smooth="yes"/>
      <point x="854" y="915"/>
      <point x="902" y="886"/>
      <point x="953" y="836" type="curve"/>
      <point x="1040" y="934" type="line"/>
      <point x="974" y="999"/>
      <point x="897" y="1052"/>
      <point x="778" y="1052" type="curve" smooth="yes"/>
      <point x="577" y="1052"/>
      <point x="393" y="901"/>
      <point x="393" y="663" type="curve" smooth="yes"/>
      <point x="393" y="411"/>
      <point x="559" y="258"/>
      <point x="775" y="258" type="curve" smooth="yes"/>
      <point x="891" y="258"/>
      <point x="972" y="306"/>
      <point x="1049" y="371" type="curve"/>
    </contour>
    <contour>
      <point x="766" y="54" type="curve" smooth="yes"/>
      <point x="448" y="54"/>
      <point x="189" y="298"/>
      <point x="189" y="663" type="curve" smooth="yes"/>
      <point x="189" y="1027"/>
      <point x="448" y="1266"/>
      <point x="766" y="1266" type="curve" smooth="yes"/>
      <point x="1086" y="1266"/>
      <point x="1345" y="1027"/>
      <point x="1345" y="663" type="curve" smooth="yes"/>
      <point x="1345" y="298"/>
      <point x="1086" y="54"/>
    </contour>
  </outline>
</glyph>
<glyph name="logicalnot" format="2">
  <advance width="1042"/>
  <unicode hex="00AC"/>
  <outline>
    <contour>
      <point x="805" y="205" type="line"/>
      <point x="972" y="205" type="line"/>
      <point x="972" y="755" type="line"/>
      <point x="70" y="755" type="line"/>
      <point x="70" y="596" type="line"/>
      <point x="805" y="596" type="line"/>
    </contour>
  </outline>
</glyph>
<glyph name="softhyphen" format="2">
  <advance width="653"/>
  <unicode hex="00AD"/>
  <outline>
    <contour>
      <point x="86" y="435" type="line"/>
      <point x="569" y="435" type="line"/>
      <point x="569" y="596" type="line"/>
      <point x="86" y="596" type="line"/>
    </contour>
  </outline>
</glyph>
<glyph name="registered" format="2">
  <advance width="897"/>
  <unicode hex="00AE"/>
  <outline>
    <contour>
      <point x="448" y="647" type="curve" smooth="yes"/>
      <point x="664" y="647"/>
      <point x="842" y="814"/>
      <point x="842" y="1055" type="curve" smooth="yes"/>
      <point x="842" y="1294"/>
      <point x="664" y="1462"/>
      <point x="448" y="1462" type="curve" smooth="yes"/>
      <point x="231" y="1462"/>
      <point x="54" y="1294"/>
      <point x="54" y="1055" type="curve" smooth="yes"/>
      <point x="54" y="814"/>
      <point x="231" y="647"/>
    </contour>
    <contour>
      <point x="448" y="732" type="curve" smooth="yes"/>
      <point x="276" y="732"/>
      <point x="148" y="861"/>
      <point x="148" y="1055" type="curve" smooth="yes"/>
      <point x="148" y="1246"/>
      <point x="276" y="1378"/>
      <point x="448" y="1378" type="curve" smooth="yes"/>
      <point x="620" y="1378"/>
      <point x="748" y="1246"/>
      <point x="748" y="1055" type="curve" smooth="yes"/>
      <point x="748" y="861"/>
      <point x="620" y="732"/>
    </contour>
    <contour>
      <point x="293" y="853" type="line"/>
      <point x="390" y="853" type="line"/>
      <point x="390" y="989" type="line"/>
      <point x="464" y="989" type="line"/>
      <point x="532" y="853" type="line"/>
      <point x="637" y="853" type="line"/>
      <point x="547" y="1019" type="line"/>
      <point x="593" y="1037"/>
      <point x="621" y="1082"/>
      <point x="621" y="1131" type="curve" smooth="yes"/>
      <point x="621" y="1226"/>
      <point x="548" y="1264"/>
      <point x="459" y="1264" type="curve"/>
      <point x="293" y="1264" type="line"/>
    </contour>
    <contour>
      <point x="390" y="1061" type="line"/>
      <point x="390" y="1187" type="line"/>
      <point x="442" y="1187" type="line" smooth="yes"/>
      <point x="495" y="1187"/>
      <point x="517" y="1162"/>
      <point x="517" y="1126" type="curve" smooth="yes"/>
      <point x="517" y="1085"/>
      <point x="489" y="1061"/>
      <point x="439" y="1061" type="curve"/>
    </contour>
  </outline>
</glyph>
<glyph name="degree" format="2">
  <advance width="705"/>
  <unicode hex="00B0"/>
  <outline>
    <contour>
      <point x="353" y="855" type="curve" smooth="yes"/>
      <point x="501" y="855"/>
      <point x="625" y="965"/>
      <point x="625" y="1128" type="curve" smooth="yes"/>
      <point x="625" y="1293"/>
      <point x="501" y="1404"/>
      <point x="353" y="1404" type="curve" smooth="yes"/>
      <point x="206" y="1404"/>
      <point x="82" y="1293"/>
      <point x="82" y="1128" type="curve" smooth="yes"/>
      <point x="82" y="965"/>
      <point x="206" y="855"/>
    </contour>
    <contour>
      <point x="353" y="967" type="curve" smooth="yes"/>
      <point x="267" y="967"/>
      <point x="206" y="1034"/>
      <point x="206" y="1128" type="curve" smooth="yes"/>
      <point x="206" y="1223"/>
      <point x="267" y="1290"/>
      <point x="353" y="1290" type="curve" smooth="yes"/>
      <point x="440" y="1290"/>
      <point x="501" y="1223"/>
      <point x="501" y="1128" type="curve" smooth="yes"/>
      <point x="501" y="1034"/>
      <point x="440" y="967"/>
    </contour>
  </outline>
</glyph>
<glyph name="plusminus" format="2">
  <advance width="1042"/>
  <unicode hex="00B1"/>
  <outline>
    <contour>
      <point x="437" y="284" type="line"/>
      <point x="604" y="284" type="line"/>
      <point x="604" y="615" type="line"/>
      <point x="972" y="615" type="line"/>
      <point x="972" y="775" type="line"/>
      <point x="604" y="775" type="line"/>
      <point x="604" y="1147" type="line"/>
      <point x="437" y="1147" type="line"/>
      <point x="437" y="775" type="line"/>
      <point x="70" y="775" type="line"/>
      <point x="70" y="615" type="line"/>
      <point x="437" y="615" type="line"/>
    </contour>
    <contour>
      <point x="70" y="0" type="line"/>
      <point x="972" y="0" type="line"/>
      <point x="972" y="160" type="line"/>
      <point x="70" y="160" type="line"/>
    </contour>
  </outline>
</glyph>
<glyph name="two.sups" format="2">
  <advance width="759"/>
  <unicode hex="00B2"/>
  <outline>
    <contour>
      <point x="101" y="901" type="line"/>
      <point x="666" y="901" type="line"/>
      <point x="666" y="1041" type="line"/>
      <point x="365" y="1041" type="line"/>
      <point x="513" y="1196"/>
      <point x="630" y="1318"/>
      <point x="630" y="1461" type="curve" smooth="yes"/>
      <point x="630" y="1631"/>
      <point x="519" y="1724"/>
      <point x="353" y="1724" type="curve" smooth="yes"/>
      <point x="239" y="1724"/>
      <point x="141" y="1664"/>
      <point x="72" y="1566" type="curve"/>
      <point x="168" y="1478" type="line"/>
      <point x="213" y="1541"/>
      <point x="267" y="1587"/>
      <point x="330" y="1587" type="curve" smooth="yes"/>
      <point x="416" y="1587"/>
      <point x="469" y="1529"/>
      <point x="469" y="1435" type="curve" smooth="yes"/>
      <point x="469" y="1322"/>
      <point x="332" y="1195"/>
      <point x="101" y="993" type="curve"/>
    </contour>
  </outline>
</glyph>
<glyph name="three.sups" format="2">
  <advance width="759"/>
  <unicode hex="00B3"/>
  <outline>
    <contour>
      <point x="195" y="1506" type="line"/>
      <point x="237" y="1557"/>
      <point x="289" y="1596"/>
      <point x="345" y="1596" type="curve" smooth="yes"/>
      <point x="423" y="1596"/>
      <point x="474" y="1552"/>
      <point x="474" y="1484" type="curve" smooth="yes"/>
      <point x="474" y="1408"/>
      <point x="400" y="1358"/>
      <point x="277" y="1358" type="curve"/>
      <point x="277" y="1258" type="line"/>
      <point x="423" y="1258"/>
      <point x="503" y="1214"/>
      <point x="503" y="1130" type="curve" smooth="yes"/>
      <point x="503" y="1050"/>
      <point x="439" y="1005"/>
      <point x="360" y="1005" type="curve" smooth="yes"/>
      <point x="284" y="1005"/>
      <point x="220" y="1045"/>
      <point x="171" y="1116" type="curve"/>
      <point x="66" y="1034" type="line"/>
      <point x="130" y="939"/>
      <point x="241" y="877"/>
      <point x="374" y="877" type="curve" smooth="yes"/>
      <point x="532" y="877"/>
      <point x="667" y="972"/>
      <point x="667" y="1119" type="curve" smooth="yes"/>
      <point x="667" y="1221"/>
      <point x="592" y="1288"/>
      <point x="505" y="1315" type="curve"/>
      <point x="584" y="1355"/>
      <point x="637" y="1416"/>
      <point x="637" y="1506" type="curve" smooth="yes"/>
      <point x="637" y="1643"/>
      <point x="514" y="1724"/>
      <point x="373" y="1724" type="curve" smooth="yes"/>
      <point x="257" y="1724"/>
      <point x="175" y="1676"/>
      <point x="98" y="1591" type="curve"/>
    </contour>
  </outline>
</glyph>
<glyph name="acute" format="2">
  <advance width="1120"/>
  <unicode hex="00B4"/>
  <anchor x="482" y="800" name="_top"/>
  <outline>
    <contour>
      <point x="354" y="1175" type="line"/>
      <point x="518" y="1175" type="line"/>
      <point x="757" y="1470" type="line"/>
      <point x="538" y="1470" type="line"/>
    </contour>
  </outline>
</glyph>
<glyph name="micro" format="2">
  <advance width="1144"/>
  <unicode hex="00B5"/>
  <outline>
    <contour>
      <point x="155" y="-410" type="line"/>
      <point x="373" y="-410" type="line"/>
      <point x="373" y="-126" type="line"/>
      <point x="360" y="59" type="line"/>
      <point x="403" y="0"/>
      <point x="457" y="-13"/>
      <point x="525" y="-13" type="curve" smooth="yes"/>
      <point x="631" y="-13"/>
      <point x="720" y="47"/>
      <point x="788" y="150" type="curve"/>
      <point x="793" y="150" type="line"/>
      <point x="811" y="0" type="line"/>
      <point x="990" y="0" type="line"/>
      <point x="990" y="1003" type="line"/>
      <point x="772" y="1003" type="line"/>
      <point x="772" y="310" type="line"/>
      <point x="691" y="207"/>
      <point x="630" y="163"/>
      <point x="537" y="163" type="curve" smooth="yes"/>
      <point x="424" y="163"/>
      <point x="373" y="231"/>
      <point x="373" y="401" type="curve" smooth="yes"/>
      <point x="373" y="1003" type="line"/>
      <point x="155" y="1003" type="line"/>
    </contour>
  </outline>
</glyph>
<glyph name="paragraph" format="2">
  <advance width="1207"/>
  <unicode hex="00B6"/>
  <outline>
    <contour>
      <point x="658" y="440" type="line"/>
      <point x="658" y="1340" type="line"/>
      <point x="586" y="1340" type="line" smooth="yes"/>
      <point x="303" y="1340"/>
      <point x="82" y="1227"/>
      <point x="82" y="896" type="curve" smooth="yes"/>
      <point x="82" y="585"/>
      <point x="308" y="440"/>
      <point x="603" y="440" type="curve" smooth="yes"/>
    </contour>
    <contour>
      <point x="788" y="-164" type="line"/>
      <point x="1010" y="-164" type="line"/>
      <point x="1010" y="1340" type="line"/>
      <point x="788" y="1340" type="line"/>
    </contour>
  </outline>
</glyph>
<glyph name="one.sups" format="2">
  <advance width="759"/>
  <unicode hex="00B9"/>
  <outline>
    <contour>
      <point x="347" y="901" type="line"/>
      <point x="513" y="901" type="line"/>
      <point x="513" y="1700" type="line"/>
      <point x="380" y="1700" type="line"/>
      <point x="320" y="1657"/>
      <point x="267" y="1632"/>
      <point x="170" y="1616" type="curve"/>
      <point x="170" y="1511" type="line"/>
      <point x="347" y="1511" type="line"/>
    </contour>
  </outline>
</glyph>
<glyph name="ordmasculine" format="2">
  <advance width="754"/>
  <unicode hex="00BA"/>
  <outline>
    <contour>
      <point x="376" y="516" type="curve" smooth="yes"/>
      <point x="546" y="516"/>
      <point x="695" y="646"/>
      <point x="695" y="864" type="curve" smooth="yes"/>
      <point x="695" y="1085"/>
      <point x="546" y="1214"/>
      <point x="376" y="1214" type="curve" smooth="yes"/>
      <point x="205" y="1214"/>
      <point x="56" y="1085"/>
      <point x="56" y="864" type="curve" smooth="yes"/>
      <point x="56" y="646"/>
      <point x="205" y="516"/>
    </contour>
    <contour>
      <point x="376" y="645" type="curve" smooth="yes"/>
      <point x="276" y="645"/>
      <point x="219" y="734"/>
      <point x="219" y="864" type="curve" smooth="yes"/>
      <point x="219" y="998"/>
      <point x="276" y="1085"/>
      <point x="376" y="1085" type="curve" smooth="yes"/>
      <point x="476" y="1085"/>
      <point x="532" y="998"/>
      <point x="532" y="864" type="curve" smooth="yes"/>
      <point x="532" y="734"/>
      <point x="476" y="645"/>
    </contour>
  </outline>
</glyph>
<glyph name="AE" format="2">
  <advance width="1694"/>
  <unicode hex="00C6"/>
  <anchor x="847" y="1340" name="top"/>
  <outline>
    <contour>
      <point x="-4" y="0" type="line"/>
      <point x="226" y="0" type="line"/>
      <point x="404" y="358" type="line"/>
      <point x="806" y="358" type="line"/>
      <point x="806" y="0" type="line"/>
      <point x="1595" y="0" type="line"/>
      <point x="1595" y="187" type="line"/>
      <point x="1027" y="187" type="line"/>
      <point x="1027" y="606" type="line"/>
      <point x="1486" y="606" type="line"/>
      <point x="1486" y="791" type="line"/>
      <point x="1027" y="791" type="line"/>
      <point x="1027" y="1155" type="line"/>
      <point x="1575" y="1155" type="line"/>
      <point x="1575" y="1340" type="line"/>
      <point x="674" y="1340" type="line"/>
    </contour>
    <contour>
      <point x="489" y="532" type="line"/>
      <point x="599" y="754" type="line"/>
      <point x="664" y="889"/>
      <point x="732" y="1030"/>
      <point x="798" y="1170" type="curve"/>
      <point x="806" y="1170" type="line"/>
      <point x="806" y="532" type="line"/>
    </contour>
  </outline>
</glyph>
<glyph name="Eth" format="2">
  <advance width="1313"/>
  <unicode hex="00D0"/>
  <anchor x="636" y="-200" name="btm"/>
  <anchor x="636" y="800" name="top"/>
  <outline>
    <contour>
      <point x="214" y="0" type="line"/>
      <point x="577" y="0" type="line" smooth="yes"/>
      <point x="977" y="0"/>
      <point x="1214" y="237"/>
      <point x="1214" y="676" type="curve" smooth="yes"/>
      <point x="1214" y="1115"/>
      <point x="977" y="1340"/>
      <point x="566" y="1340" type="curve"/>
      <point x="214" y="1340" type="line"/>
      <point x="214" y="757" type="line"/>
      <point x="58" y="748" type="line"/>
      <point x="58" y="641" type="line"/>
      <point x="214" y="641" type="line"/>
    </contour>
    <contour>
      <point x="434" y="179" type="line"/>
      <point x="434" y="641" type="line"/>
      <point x="725" y="641" type="line"/>
      <point x="725" y="757" type="line"/>
      <point x="434" y="757" type="line"/>
      <point x="434" y="1161" type="line"/>
      <point x="551" y="1161" type="line" smooth="yes"/>
      <point x="831" y="1161"/>
      <point x="987" y="1007"/>
      <point x="987" y="676" type="curve" smooth="yes"/>
      <point x="987" y="344"/>
      <point x="831" y="179"/>
      <point x="551" y="179" type="curve"/>
    </contour>
  </outline>
</glyph>
<glyph name="multiply" format="2">
  <advance width="1042"/>
  <unicode hex="00D7"/>
  <outline>
    <contour>
      <point x="214" y="247" type="line"/>
      <point x="522" y="562" type="line"/>
      <point x="828" y="247" type="line"/>
      <point x="941" y="362" type="line"/>
      <point x="634" y="675" type="line"/>
      <point x="941" y="988" type="line"/>
      <point x="828" y="1103" type="line"/>
      <point x="522" y="789" type="line"/>
      <point x="214" y="1103" type="line"/>
      <point x="100" y="988" type="line"/>
      <point x="408" y="675" type="line"/>
      <point x="100" y="362" type="line"/>
    </contour>
  </outline>
</glyph>
<glyph name="germandbls" format="2">
  <advance width="1224"/>
  <unicode hex="00DF"/>
  <anchor x="660" y="-200" name="btm"/>
  <anchor x="660" y="800" name="top"/>
  <outline>
    <contour>
      <point x="155" y="0" type="line"/>
      <point x="372" y="0" type="line"/>
      <point x="372" y="1001" type="line" smooth="yes"/>
      <point x="372" y="1191"/>
      <point x="449" y="1294"/>
      <point x="586" y="1294" type="curve" smooth="yes"/>
      <point x="688" y="1294"/>
      <point x="742" y="1225"/>
      <point x="742" y="1131" type="curve" smooth="yes"/>
      <point x="742" y="968"/>
      <point x="575" y="909"/>
      <point x="575" y="734" type="curve" smooth="yes"/>
      <point x="575" y="455"/>
      <point x="963" y="487"/>
      <point x="963" y="280" type="curve" smooth="yes"/>
      <point x="963" y="205"/>
      <point x="909" y="141"/>
      <point x="812" y="141" type="curve" smooth="yes"/>
      <point x="740" y="141"/>
      <point x="675" y="168"/>
      <point x="604" y="224" type="curve"/>
      <point x="523" y="73" type="line"/>
      <point x="612" y="12"/>
      <point x="703" y="-25"/>
      <point x="819" y="-25" type="curve" smooth="yes"/>
      <point x="1039" y="-25"/>
      <point x="1165" y="115"/>
      <point x="1165" y="292" type="curve" smooth="yes"/>
      <point x="1165" y="618"/>
      <point x="779" y="586"/>
      <point x="779" y="761" type="curve" smooth="yes"/>
      <point x="779" y="888"/>
      <point x="955" y="954"/>
      <point x="955" y="1155" type="curve" smooth="yes"/>
      <point x="955" y="1322"/>
      <point x="828" y="1470"/>
      <point x="588" y="1470" type="curve" smooth="yes"/>
      <point x="304" y="1470"/>
      <point x="155" y="1292"/>
      <point x="155" y="1033" type="curve"/>
    </contour>
  </outline>
</glyph>
<glyph name="ae" format="2">
  <advance width="1609"/>
  <unicode hex="00E6"/>
  <anchor x="821" y="-200" name="btm"/>
  <anchor x="821" y="800" name="top"/>
  <outline>
    <contour>
      <point x="1417" y="229" type="line"/>
      <point x="1343" y="183"/>
      <point x="1273" y="150"/>
      <point x="1185" y="150" type="curve" smooth="yes"/>
      <point x="1033" y="150"/>
      <point x="914" y="261"/>
      <point x="901" y="443" type="curve"/>
      <point x="1523" y="443" type="line"/>
      <point x="1528" y="467"/>
      <point x="1532" y="506"/>
      <point x="1532" y="549" type="curve" smooth="yes"/>
      <point x="1532" y="831"/>
      <point x="1409" y="1028"/>
      <point x="1155" y="1028" type="curve" smooth="yes"/>
      <point x="1014" y="1028"/>
      <point x="906" y="956"/>
      <point x="825" y="839" type="curve"/>
      <point x="777" y="955"/>
      <point x="692" y="1028"/>
      <point x="542" y="1028" type="curve" smooth="yes"/>
      <point x="394" y="1028"/>
      <point x="256" y="974"/>
      <point x="150" y="908" type="curve"/>
      <point x="232" y="760" type="line"/>
      <point x="318" y="814"/>
      <point x="415" y="850"/>
      <point x="513" y="850" type="curve" smooth="yes"/>
      <point x="657" y="850"/>
      <point x="696" y="748"/>
      <point x="698" y="636" type="curve"/>
      <point x="290" y="603"/>
      <point x="110" y="483"/>
      <point x="110" y="267" type="curve" smooth="yes"/>
      <point x="110" y="92"/>
      <point x="232" y="-25"/>
      <point x="406" y="-25" type="curve" smooth="yes"/>
      <point x="536" y="-25"/>
      <point x="668" y="32"/>
      <point x="806" y="151" type="curve"/>
      <point x="886" y="54"/>
      <point x="996" y="-25"/>
      <point x="1156" y="-25" type="curve" smooth="yes"/>
      <point x="1285" y="-25"/>
      <point x="1400" y="21"/>
      <point x="1493" y="83" type="curve"/>
    </contour>
    <contour>
      <point x="698" y="454" type="line" smooth="yes"/>
      <point x="700" y="390"/>
      <point x="714" y="323"/>
      <point x="733" y="276" type="curve"/>
      <point x="657" y="195"/>
      <point x="558" y="148"/>
      <point x="475" y="148" type="curve" smooth="yes"/>
      <point x="386" y="148"/>
      <point x="322" y="189"/>
      <point x="322" y="283" type="curve" smooth="yes"/>
      <point x="322" y="392"/>
      <point x="427" y="467"/>
      <point x="697" y="498" type="curve"/>
    </contour>
    <contour>
      <point x="901" y="582" type="line"/>
      <point x="918" y="757"/>
      <point x="1016" y="858"/>
      <point x="1149" y="858" type="curve" smooth="yes"/>
      <point x="1285" y="858"/>
      <point x="1342" y="756"/>
      <point x="1342" y="582" type="curve"/>
    </contour>
  </outline>
</glyph>
<glyph name="divide" format="2">
  <advance width="1042"/>
  <unicode hex="00F7"/>
  <outline>
    <contour>
      <point x="70" y="596" type="line"/>
      <point x="972" y="596" type="line"/>
      <point x="972" y="755" type="line"/>
      <point x="70" y="755" type="line"/>
    </contour>
    <contour>
      <point x="522" y="179" type="curve" smooth="yes"/>
      <point x="595" y="179"/>
      <point x="654" y="232"/>
      <point x="654" y="307" type="curve" smooth="yes"/>
      <point x="654" y="382"/>
      <point x="595" y="435"/>
      <point x="522" y="435" type="curve" smooth="yes"/>
      <point x="446" y="435"/>
      <point x="389" y="382"/>
      <point x="389" y="307" type="curve" smooth="yes"/>
      <point x="389" y="232"/>
      <point x="446" y="179"/>
    </contour>
    <contour>
      <point x="522" y="916" type="curve" smooth="yes"/>
      <point x="595" y="916"/>
      <point x="654" y="969"/>
      <point x="654" y="1044" type="curve" smooth="yes"/>
      <point x="654" y="1119"/>
      <point x="595" y="1172"/>
      <point x="522" y="1172" type="curve" smooth="yes"/>
      <point x="446" y="1172"/>
      <point x="389" y="1119"/>
      <point x="389" y="1044" type="curve" smooth="yes"/>
      <point x="389" y="969"/>
      <point x="446" y="916"/>
    </contour>
  </outline>
</glyph>
<glyph name="thorn" format="2">
  <advance width="1151"/>
  <unicode hex="00FE"/>
  <outline>
    <contour>
      <point x="155" y="-404" type="line"/>
      <point x="373" y="-404" type="line"/>
      <point x="373" y="-82" type="line"/>
      <point x="369" y="81" type="line"/>
      <point x="451" y="14"/>
      <point x="533" y="-25"/>
      <point x="630" y="-25" type="curve" smooth="yes"/>
      <point x="855" y="-25"/>
      <point x="1059" y="175"/>
      <point x="1059" y="517" type="curve" smooth="yes"/>
      <point x="1059" y="827"/>
      <point x="913" y="1028"/>
      <point x="653" y="1028" type="curve" smooth="yes"/>
      <point x="551" y="1028"/>
      <point x="451" y="976"/>
      <point x="369" y="910" type="curve"/>
      <point x="373" y="1069" type="line"/>
      <point x="373" y="1450" type="line"/>
      <point x="155" y="1450" type="line"/>
    </contour>
    <contour>
      <point x="373" y="727" type="line"/>
      <point x="457" y="806"/>
      <point x="529" y="847"/>
      <point x="604" y="847" type="curve" smooth="yes"/>
      <point x="767" y="847"/>
      <point x="833" y="720"/>
      <point x="833" y="515" type="curve" smooth="yes"/>
      <point x="833" y="283"/>
      <point x="727" y="157"/>
      <point x="586" y="157" type="curve" smooth="yes"/>
      <point x="526" y="157"/>
      <point x="449" y="180"/>
      <point x="373" y="246" type="curve"/>
    </contour>
  </outline>
</glyph>
<glyph name="dcroat" format="2">
  <advance width="1151"/>
  <unicode hex="0111"/>
  <outline>
    <contour>
      <point x="797" y="104" type="line"/>
      <point x="811" y="0" type="line"/>
      <point x="996" y="0" type="line"/>
      <point x="996" y="1158" type="line"/>
      <point x="1140" y="1169" type="line"/>
      <point x="1140" y="1274" type="line"/>
      <point x="996" y="1274" type="line"/>
      <point x="996" y="1450" type="line"/>
      <point x="776" y="1450" type="line"/>
      <point x="776" y="1274" type="line"/>
      <point x="516" y="1274" type="line"/>
      <point x="516" y="1158" type="line"/>
      <point x="776" y="1158" type="line"/>
      <point x="776" y="1040" type="line"/>
      <point x="786" y="875" type="line"/>
      <point x="705" y="944"/>
      <point x="632" y="987"/>
      <point x="518" y="987" type="curve" smooth="yes"/>
      <point x="296" y="987"/>
      <point x="90" y="791"/>
      <point x="90" y="480" type="curve" smooth="yes"/>
      <point x="90" y="159"/>
      <point x="253" y="-25"/>
      <point x="503" y="-25" type="curve" smooth="yes"/>
      <point x="616" y="-25"/>
      <point x="716" y="32"/>
      <point x="790" y="104" type="curve"/>
    </contour>
    <contour>
      <point x="776" y="277" type="line"/>
      <point x="707" y="194"/>
      <point x="638" y="157"/>
      <point x="556" y="157" type="curve" smooth="yes"/>
      <point x="404" y="157"/>
      <point x="315" y="269"/>
      <point x="315" y="483" type="curve" smooth="yes"/>
      <point x="315" y="684"/>
      <point x="427" y="806"/>
      <point x="562" y="806" type="curve" smooth="yes"/>
      <point x="634" y="806"/>
      <point x="704" y="782"/>
      <point x="776" y="716" type="curve"/>
    </contour>
  </outline>
</glyph>
<glyph name="idotless" format="2">
  <advance width="527"/>
  <unicode hex="0131"/>
  <anchor x="264" y="-200" name="btm"/>
  <anchor x="264" y="800" name="top"/>
  <outline>
    <contour>
      <point x="155" y="0" type="line"/>
      <point x="373" y="0" type="line"/>
      <point x="373" y="1003" type="line"/>
      <point x="155" y="1003" type="line"/>
    </contour>
  </outline>
</glyph>
<glyph name="Lslash" format="2">
  <advance width="1022"/>
  <unicode hex="0141"/>
  <outline>
    <contour>
      <point x="179" y="0" type="line"/>
      <point x="963" y="0" type="line"/>
      <point x="963" y="187" type="line"/>
      <point x="400" y="187" type="line"/>
      <point x="400" y="568" type="line"/>
      <point x="774" y="769" type="line"/>
      <point x="774" y="944" type="line"/>
      <point x="400" y="742" type="line"/>
      <point x="400" y="1340" type="line"/>
      <point x="179" y="1340" type="line"/>
      <point x="179" y="634" type="line"/>
      <point x="20" y="550" type="line"/>
      <point x="20" y="376" type="line"/>
      <point x="179" y="460" type="line"/>
    </contour>
  </outline>
</glyph>
<glyph name="lslash" format="2">
  <advance width="569"/>
  <unicode hex="0142"/>
  <outline>
    <contour>
      <point x="474" y="159" type="line"/>
      <point x="455" y="155"/>
      <point x="446" y="155"/>
      <point x="437" y="155" type="curve" smooth="yes"/>
      <point x="413" y="155"/>
      <point x="388" y="175"/>
      <point x="388" y="232" type="curve"/>
      <point x="388" y="747" type="line"/>
      <point x="527" y="834" type="line"/>
      <point x="527" y="1014" type="line"/>
      <point x="388" y="927" type="line"/>
      <point x="388" y="1450" type="line"/>
      <point x="168" y="1450" type="line"/>
      <point x="168" y="816" type="line"/>
      <point x="41" y="736" type="line"/>
      <point x="41" y="556" type="line"/>
      <point x="168" y="635" type="line"/>
      <point x="168" y="245" type="line" smooth="yes"/>
      <point x="168" y="76"/>
      <point x="227" y="-25"/>
      <point x="383" y="-25" type="curve" smooth="yes"/>
      <point x="437" y="-25"/>
      <point x="473" y="-16"/>
      <point x="502" y="-5" type="curve"/>
    </contour>
  </outline>
</glyph>
<glyph name="OE" format="2">
  <advance width="1745"/>
  <unicode hex="0152"/>
  <anchor x="873" y="1340" name="top"/>
  <outline>
    <contour>
      <point x="1647" y="0" type="line"/>
      <point x="1647" y="187" type="line"/>
      <point x="1081" y="187" type="line"/>
      <point x="1081" y="606" type="line"/>
      <point x="1539" y="606" type="line"/>
      <point x="1539" y="791" type="line"/>
      <point x="1081" y="791" type="line"/>
      <point x="1081" y="1155" type="line"/>
      <point x="1627" y="1155" type="line"/>
      <point x="1627" y="1340" type="line"/>
      <point x="766" y="1340" type="line" smooth="yes"/>
      <point x="358" y="1340"/>
      <point x="97" y="1115"/>
      <point x="97" y="676" type="curve" smooth="yes"/>
      <point x="97" y="237"/>
      <point x="358" y="0"/>
      <point x="755" y="0" type="curve" smooth="yes"/>
    </contour>
    <contour>
      <point x="780" y="179" type="line" smooth="yes"/>
      <point x="491" y="179"/>
      <point x="324" y="341"/>
      <point x="324" y="676" type="curve" smooth="yes"/>
      <point x="324" y="1009"/>
      <point x="491" y="1161"/>
      <point x="780" y="1161" type="curve" smooth="yes"/>
      <point x="860" y="1161" type="line"/>
      <point x="860" y="179" type="line"/>
    </contour>
  </outline>
</glyph>
<glyph name="oe" format="2">
  <advance width="1705"/>
  <unicode hex="0153"/>
  <anchor x="853" y="1003" name="top"/>
  <outline>
    <contour>
      <point x="1513" y="229" type="line"/>
      <point x="1439" y="183"/>
      <point x="1366" y="150"/>
      <point x="1278" y="150" type="curve" smooth="yes"/>
      <point x="1126" y="150"/>
      <point x="1005" y="261"/>
      <point x="992" y="443" type="curve"/>
      <point x="1620" y="443" type="line"/>
      <point x="1625" y="467"/>
      <point x="1629" y="506"/>
      <point x="1629" y="549" type="curve" smooth="yes"/>
      <point x="1629" y="831"/>
      <point x="1490" y="1028"/>
      <point x="1236" y="1028" type="curve" smooth="yes"/>
      <point x="1099" y="1028"/>
      <point x="975" y="945"/>
      <point x="897" y="805" type="curve"/>
      <point x="823" y="948"/>
      <point x="696" y="1028"/>
      <point x="548" y="1028" type="curve" smooth="yes"/>
      <point x="300" y="1028"/>
      <point x="86" y="835"/>
      <point x="86" y="501" type="curve" smooth="yes"/>
      <point x="86" y="168"/>
      <point x="296" y="-25"/>
      <point x="543" y="-25" type="curve" smooth="yes"/>
      <point x="702" y="-25"/>
      <point x="818" y="51"/>
      <point x="899" y="197" type="curve"/>
      <point x="978" y="59"/>
      <point x="1107" y="-25"/>
      <point x="1250" y="-25" type="curve" smooth="yes"/>
      <point x="1379" y="-25"/>
      <point x="1498" y="21"/>
      <point x="1591" y="83" type="curve"/>
    </contour>
    <contour>
      <point x="548" y="155" type="curve" smooth="yes"/>
      <point x="404" y="155"/>
      <point x="309" y="292"/>
      <point x="309" y="501" type="curve" smooth="yes"/>
      <point x="309" y="709"/>
      <point x="404" y="849"/>
      <point x="548" y="849" type="curve" smooth="yes"/>
      <point x="692" y="849"/>
      <point x="788" y="709"/>
      <point x="788" y="501" type="curve" smooth="yes"/>
      <point x="788" y="292"/>
      <point x="692" y="155"/>
    </contour>
    <contour>
      <point x="992" y="582" type="line"/>
      <point x="1009" y="757"/>
      <point x="1109" y="858"/>
      <point x="1229" y="858" type="curve" smooth="yes"/>
      <point x="1366" y="858"/>
      <point x="1439" y="756"/>
      <point x="1439" y="582" type="curve"/>
    </contour>
  </outline>
</glyph>
<glyph name="Uogonek" format="2">
  <advance width="1329"/>
  <unicode hex="0172"/>
  <outline>
    <contour>
      <point x="845" y="-265" type="line"/>
      <point x="822" y="-282"/>
      <point x="797" y="-294"/>
      <point x="766" y="-294" type="curve" smooth="yes"/>
      <point x="720" y="-294"/>
      <point x="673" y="-266"/>
      <point x="673" y="-206" type="curve" smooth="yes"/>
      <point x="673" y="-143"/>
      <point x="726" y="-63"/>
      <point x="830" y="-12" type="curve"/>
      <point x="1043" y="86"/>
      <point x="1166" y="211"/>
      <point x="1166" y="579" type="curve" smooth="yes"/>
      <point x="1166" y="1340" type="line"/>
      <point x="954" y="1340" type="line"/>
      <point x="954" y="565" type="line" smooth="yes"/>
      <point x="954" y="265"/>
      <point x="833" y="167"/>
      <point x="665" y="167" type="curve" smooth="yes"/>
      <point x="500" y="167"/>
      <point x="385" y="265"/>
      <point x="385" y="565" type="curve" smooth="yes"/>
      <point x="385" y="1340" type="line"/>
      <point x="164" y="1340" type="line"/>
      <point x="164" y="579" type="line" smooth="yes"/>
      <point x="164" y="163"/>
      <point x="346" y="-11"/>
      <point x="639" y="-22" type="curve"/>
      <point x="594" y="-66"/>
      <point x="508" y="-141"/>
      <point x="508" y="-259" type="curve" smooth="yes"/>
      <point x="508" y="-378"/>
      <point x="602" y="-443"/>
      <point x="718" y="-443" type="curve" smooth="yes"/>
      <point x="779" y="-443"/>
      <point x="857" y="-415"/>
      <point x="901" y="-380" type="curve"/>
    </contour>
  </outline>
</glyph>
<glyph name="Schwa" format="2">
  <advance width="1387"/>
  <unicode hex="018F"/>
  <anchor x="694" y="0" name="bottom"/>
  <anchor x="694" y="1340" name="top"/>
  <outline>
    <contour>
      <point x="375" y="1053" type="line"/>
      <point x="451" y="1123"/>
      <point x="559" y="1178"/>
      <point x="688" y="1178" type="curve" smooth="yes"/>
      <point x="916" y="1178"/>
      <point x="1049" y="1015"/>
      <point x="1064" y="734" type="curve"/>
      <point x="141" y="734" type="line"/>
      <point x="138" y="709"/>
      <point x="136" y="685"/>
      <point x="136" y="664" type="curve" smooth="yes"/>
      <point x="136" y="243"/>
      <point x="362" y="-25"/>
      <point x="702" y="-25" type="curve" smooth="yes"/>
      <point x="1043" y="-25"/>
      <point x="1284" y="241"/>
      <point x="1284" y="674" type="curve" smooth="yes"/>
      <point x="1284" y="1106"/>
      <point x="1055" y="1365"/>
      <point x="710" y="1365" type="curve" smooth="yes"/>
      <point x="518" y="1365"/>
      <point x="374" y="1298"/>
      <point x="275" y="1204" type="curve"/>
    </contour>
    <contour>
      <point x="1060" y="569" type="line"/>
      <point x="1031" y="314"/>
      <point x="892" y="163"/>
      <point x="702" y="163" type="curve" smooth="yes"/>
      <point x="515" y="163"/>
      <point x="380" y="313"/>
      <point x="361" y="569" type="curve"/>
    </contour>
  </outline>
</glyph>
<glyph name="florin" format="2">
  <advance width="1042"/>
  <unicode hex="0192"/>
  <outline>
    <contour>
      <point x="614" y="677" type="line"/>
      <point x="872" y="677" type="line"/>
      <point x="872" y="841" type="line"/>
      <point x="632" y="841" type="line"/>
      <point x="646" y="963" type="line" smooth="yes"/>
      <point x="660" y="1086"/>
      <point x="709" y="1189"/>
      <point x="820" y="1189" type="curve" smooth="yes"/>
      <point x="867" y="1189"/>
      <point x="900" y="1173"/>
      <point x="926" y="1162" type="curve"/>
      <point x="971" y="1328" type="line"/>
      <point x="931" y="1347"/>
      <point x="862" y="1365"/>
      <point x="805" y="1365" type="curve" smooth="yes"/>
      <point x="566" y="1365"/>
      <point x="465" y="1228"/>
      <point x="434" y="945" type="curve" smooth="yes"/>
      <point x="422" y="841" type="line"/>
      <point x="381" y="841" type="line"/>
      <point x="235" y="830" type="line"/>
      <point x="235" y="677" type="line"/>
      <point x="404" y="677" type="line"/>
      <point x="361" y="285" type="line" smooth="yes"/>
      <point x="337" y="67"/>
      <point x="294" y="-21"/>
      <point x="179" y="-23" type="curve"/>
      <point x="144" y="-22"/>
      <point x="112" y="-17"/>
      <point x="81" y="-4" type="curve"/>
      <point x="46" y="-167" type="line"/>
      <point x="78" y="-185"/>
      <point x="136" y="-198"/>
      <point x="206" y="-198" type="curve" smooth="yes"/>
      <point x="453" y="-198"/>
      <point x="534" y="-19"/>
      <point x="563" y="229" type="curve" smooth="yes"/>
    </contour>
  </outline>
</glyph>
<glyph name="Ohorn" format="2">
  <advance width="1369"/>
  <unicode hex="01A0"/>
  <anchor x="689" y="-200" name="btm"/>
  <anchor x="689" y="800" name="top"/>
  <outline>
    <contour>
      <point x="1077" y="1521" type="line"/>
      <point x="1094" y="1495"/>
      <point x="1107" y="1465"/>
      <point x="1107" y="1433" type="curve" smooth="yes"/>
      <point x="1107" y="1357"/>
      <point x="1058" y="1320"/>
      <point x="958" y="1300" type="curve"/>
      <point x="878" y="1343"/>
      <point x="786" y="1365"/>
      <point x="684" y="1365" type="curve" smooth="yes"/>
      <point x="339" y="1365"/>
      <point x="97" y="1109"/>
      <point x="97" y="676" type="curve" smooth="yes"/>
      <point x="97" y="243"/>
      <point x="339" y="-25"/>
      <point x="684" y="-25" type="curve" smooth="yes"/>
      <point x="1030" y="-25"/>
      <point x="1270" y="243"/>
      <point x="1270" y="676" type="curve" smooth="yes"/>
      <point x="1270" y="916"/>
      <point x="1195" y="1101"/>
      <point x="1070" y="1220" type="curve"/>
      <point x="1199" y="1253"/>
      <point x="1282" y="1324"/>
      <point x="1282" y="1447" type="curve" smooth="yes"/>
      <point x="1282" y="1504"/>
      <point x="1259" y="1555"/>
      <point x="1231" y="1592" type="curve"/>
    </contour>
    <contour>
      <point x="684" y="167" type="curve" smooth="yes"/>
      <point x="466" y="167"/>
      <point x="324" y="366"/>
      <point x="324" y="676" type="curve" smooth="yes"/>
      <point x="324" y="985"/>
      <point x="466" y="1174"/>
      <point x="684" y="1174" type="curve" smooth="yes"/>
      <point x="902" y="1174"/>
      <point x="1043" y="985"/>
      <point x="1043" y="676" type="curve" smooth="yes"/>
      <point x="1043" y="366"/>
      <point x="902" y="167"/>
    </contour>
  </outline>
</glyph>
<glyph name="ohorn" format="2">
  <advance width="1120"/>
  <unicode hex="01A1"/>
  <anchor x="556" y="-200" name="btm"/>
  <anchor x="561" y="800" name="top"/>
  <outline>
    <contour>
      <point x="860" y="1204" type="line"/>
      <point x="877" y="1179"/>
      <point x="891" y="1148"/>
      <point x="891" y="1115" type="curve" smooth="yes"/>
      <point x="891" y="1039"/>
      <point x="838" y="1002"/>
      <point x="754" y="986" type="curve"/>
      <point x="693" y="1014"/>
      <point x="628" y="1028"/>
      <point x="560" y="1028" type="curve" smooth="yes"/>
      <point x="311" y="1028"/>
      <point x="86" y="835"/>
      <point x="86" y="501" type="curve" smooth="yes"/>
      <point x="86" y="168"/>
      <point x="311" y="-25"/>
      <point x="560" y="-25" type="curve" smooth="yes"/>
      <point x="809" y="-25"/>
      <point x="1034" y="168"/>
      <point x="1034" y="501" type="curve" smooth="yes"/>
      <point x="1034" y="679"/>
      <point x="969" y="817"/>
      <point x="872" y="907" type="curve"/>
      <point x="978" y="938"/>
      <point x="1065" y="1004"/>
      <point x="1065" y="1130" type="curve" smooth="yes"/>
      <point x="1065" y="1188"/>
      <point x="1042" y="1238"/>
      <point x="1014" y="1275" type="curve"/>
    </contour>
    <contour>
      <point x="560" y="155" type="curve" smooth="yes"/>
      <point x="408" y="155"/>
      <point x="312" y="292"/>
      <point x="312" y="501" type="curve" smooth="yes"/>
      <point x="312" y="709"/>
      <point x="408" y="849"/>
      <point x="560" y="849" type="curve" smooth="yes"/>
      <point x="714" y="849"/>
      <point x="809" y="709"/>
      <point x="809" y="501" type="curve" smooth="yes"/>
      <point x="809" y="292"/>
      <point x="714" y="155"/>
    </contour>
  </outline>
</glyph>
<glyph name="uhorn" format="2">
  <advance width="1133"/>
  <unicode hex="01B0"/>
  <anchor x="551" y="-200" name="btm"/>
  <anchor x="542" y="800" name="top"/>
  <outline>
    <contour>
      <point x="782" y="150" type="line"/>
      <point x="799" y="0" type="line"/>
      <point x="979" y="0" type="line"/>
      <point x="979" y="929" type="line"/>
      <point x="1077" y="957"/>
      <point x="1168" y="1023"/>
      <point x="1168" y="1151" type="curve" smooth="yes"/>
      <point x="1168" y="1208"/>
      <point x="1144" y="1258"/>
      <point x="1116" y="1295" type="curve"/>
      <point x="963" y="1225" type="line"/>
      <point x="979" y="1199"/>
      <point x="992" y="1168"/>
      <point x="992" y="1135" type="curve" smooth="yes"/>
      <point x="992" y="1037"/>
      <point x="912" y="1011"/>
      <point x="823" y="1003" type="curve"/>
      <point x="760" y="1003" type="line"/>
      <point x="760" y="310" type="line"/>
      <point x="679" y="207"/>
      <point x="618" y="163"/>
      <point x="526" y="163" type="curve" smooth="yes"/>
      <point x="411" y="163"/>
      <point x="362" y="231"/>
      <point x="362" y="401" type="curve" smooth="yes"/>
      <point x="362" y="1003" type="line"/>
      <point x="142" y="1003" type="line"/>
      <point x="142" y="373" type="line" smooth="yes"/>
      <point x="142" y="119"/>
      <point x="236" y="-25"/>
      <point x="451" y="-25" type="curve" smooth="yes"/>
      <point x="589" y="-25"/>
      <point x="686" y="44"/>
      <point x="775" y="150" type="curve"/>
    </contour>
  </outline>
</glyph>
<glyph name="Oogonek" format="2">
  <advance width="1369"/>
  <unicode hex="01EA"/>
  <outline>
    <contour>
      <point x="869" y="-265" type="line"/>
      <point x="846" y="-282"/>
      <point x="820" y="-294"/>
      <point x="789" y="-294" type="curve" smooth="yes"/>
      <point x="744" y="-294"/>
      <point x="697" y="-266"/>
      <point x="697" y="-206" type="curve" smooth="yes"/>
      <point x="697" y="-141"/>
      <point x="744" y="-60"/>
      <point x="850" y="-12" type="curve" smooth="yes"/>
      <point x="1116" y="110"/>
      <point x="1270" y="306"/>
      <point x="1270" y="676" type="curve" smooth="yes"/>
      <point x="1270" y="1107"/>
      <point x="1030" y="1365"/>
      <point x="684" y="1365" type="curve" smooth="yes"/>
      <point x="339" y="1365"/>
      <point x="97" y="1109"/>
      <point x="97" y="676" type="curve" smooth="yes"/>
      <point x="97" y="260"/>
      <point x="314" y="-7"/>
      <point x="659" y="-22" type="curve"/>
      <point x="589" y="-79"/>
      <point x="530" y="-163"/>
      <point x="530" y="-259" type="curve" smooth="yes"/>
      <point x="530" y="-378"/>
      <point x="625" y="-443"/>
      <point x="741" y="-443" type="curve" smooth="yes"/>
      <point x="801" y="-443"/>
      <point x="879" y="-415"/>
      <point x="923" y="-380" type="curve"/>
    </contour>
    <contour>
      <point x="684" y="167" type="curve" smooth="yes"/>
      <point x="466" y="167"/>
      <point x="324" y="366"/>
      <point x="324" y="676" type="curve" smooth="yes"/>
      <point x="324" y="985"/>
      <point x="466" y="1174"/>
      <point x="684" y="1174" type="curve" smooth="yes"/>
      <point x="902" y="1174"/>
      <point x="1043" y="985"/>
      <point x="1043" y="676" type="curve" smooth="yes"/>
      <point x="1043" y="366"/>
      <point x="902" y="167"/>
    </contour>
  </outline>
</glyph>
<glyph name="oogonek" format="2">
  <advance width="1120"/>
  <unicode hex="01EB"/>
  <outline>
    <contour>
      <point x="735" y="-262" type="line"/>
      <point x="710" y="-276"/>
      <point x="685" y="-287"/>
      <point x="655" y="-287" type="curve" smooth="yes"/>
      <point x="608" y="-287"/>
      <point x="564" y="-260"/>
      <point x="564" y="-199" type="curve" smooth="yes"/>
      <point x="564" y="-129"/>
      <point x="611" y="-49"/>
      <point x="706" y="-5" type="curve" smooth="yes"/>
      <point x="902" y="85"/>
      <point x="1034" y="226"/>
      <point x="1034" y="501" type="curve" smooth="yes"/>
      <point x="1034" y="835"/>
      <point x="809" y="1028"/>
      <point x="560" y="1028" type="curve" smooth="yes"/>
      <point x="311" y="1028"/>
      <point x="86" y="835"/>
      <point x="86" y="501" type="curve" smooth="yes"/>
      <point x="86" y="187"/>
      <point x="286" y="-3"/>
      <point x="523" y="-22" type="curve"/>
      <point x="476" y="-61"/>
      <point x="409" y="-143"/>
      <point x="409" y="-246" type="curve" smooth="yes"/>
      <point x="409" y="-364"/>
      <point x="496" y="-425"/>
      <point x="606" y="-425" type="curve" smooth="yes"/>
      <point x="663" y="-425"/>
      <point x="741" y="-399"/>
      <point x="785" y="-365" type="curve"/>
    </contour>
    <contour>
      <point x="560" y="155" type="curve" smooth="yes"/>
      <point x="408" y="155"/>
      <point x="312" y="292"/>
      <point x="312" y="501" type="curve" smooth="yes"/>
      <point x="312" y="709"/>
      <point x="408" y="849"/>
      <point x="560" y="849" type="curve" smooth="yes"/>
      <point x="714" y="849"/>
      <point x="809" y="709"/>
      <point x="809" y="501" type="curve" smooth="yes"/>
      <point x="809" y="292"/>
      <point x="714" y="155"/>
    </contour>
  </outline>
</glyph>
<glyph name="Bstroke" format="2">
  <advance width="1254"/>
  <unicode hex="0243"/>
  <outline>
    <contour>
      <point x="214" y="0" type="line"/>
      <point x="668" y="0" type="line" smooth="yes"/>
      <point x="964" y="0"/>
      <point x="1181" y="129"/>
      <point x="1181" y="404" type="curve" smooth="yes"/>
      <point x="1181" y="593"/>
      <point x="1072" y="701"/>
      <point x="878" y="734" type="curve"/>
      <point x="878" y="742" type="line"/>
      <point x="1036" y="782"/>
      <point x="1108" y="894"/>
      <point x="1108" y="1018" type="curve" smooth="yes"/>
      <point x="1108" y="1251"/>
      <point x="910" y="1340"/>
      <point x="636" y="1340" type="curve" smooth="yes"/>
      <point x="214" y="1340" type="line"/>
      <point x="214" y="476" type="line"/>
      <point x="58" y="467" type="line"/>
      <point x="58" y="360" type="line"/>
      <point x="214" y="360" type="line"/>
    </contour>
    <contour>
      <point x="434" y="162" type="line"/>
      <point x="434" y="360" type="line"/>
      <point x="725" y="360" type="line"/>
      <point x="725" y="476" type="line"/>
      <point x="434" y="476" type="line"/>
      <point x="434" y="654" type="line"/>
      <point x="644" y="654" type="line" smooth="yes"/>
      <point x="852" y="654"/>
      <point x="968" y="581"/>
      <point x="968" y="418" type="curve" smooth="yes"/>
      <point x="968" y="246"/>
      <point x="849" y="162"/>
      <point x="644" y="162" type="curve"/>
    </contour>
    <contour>
      <point x="434" y="791" type="line"/>
      <point x="434" y="1179" type="line"/>
      <point x="617" y="1179" type="line" smooth="yes"/>
      <point x="800" y="1179"/>
      <point x="896" y="1125"/>
      <point x="896" y="997" type="curve" smooth="yes"/>
      <point x="896" y="865"/>
      <point x="809" y="791"/>
      <point x="613" y="791" type="curve"/>
    </contour>
  </outline>
</glyph>
<glyph name="schwa" format="2">
  <advance width="1033"/>
  <unicode hex="0259"/>
  <outline>
    <contour>
      <point x="215" y="779" type="line"/>
      <point x="289" y="827"/>
      <point x="366" y="858"/>
      <point x="459" y="858" type="curve" smooth="yes"/>
      <point x="618" y="858"/>
      <point x="716" y="749"/>
      <point x="731" y="566" type="curve"/>
      <point x="85" y="566" type="line"/>
      <point x="81" y="541"/>
      <point x="75" y="503"/>
      <point x="75" y="460" type="curve" smooth="yes"/>
      <point x="75" y="169"/>
      <point x="230" y="-25"/>
      <point x="496" y="-25" type="curve" smooth="yes"/>
      <point x="742" y="-25"/>
      <point x="947" y="176"/>
      <point x="947" y="503" type="curve" smooth="yes"/>
      <point x="947" y="832"/>
      <point x="751" y="1028"/>
      <point x="494" y="1028" type="curve" smooth="yes"/>
      <point x="360" y="1028"/>
      <point x="238" y="983"/>
      <point x="139" y="917" type="curve"/>
    </contour>
    <contour>
      <point x="734" y="425" type="line"/>
      <point x="714" y="241"/>
      <point x="624" y="147"/>
      <point x="491" y="147" type="curve" smooth="yes"/>
      <point x="348" y="147"/>
      <point x="266" y="243"/>
      <point x="266" y="425" type="curve"/>
    </contour>
  </outline>
</glyph>
<glyph name="h.sups" format="2">
  <advance width="764"/>
  <unicode hex="02B0"/>
  <outline>
    <contour>
      <point x="98" y="532" type="line"/>
      <point x="258" y="532" type="line"/>
      <point x="258" y="995" type="line"/>
      <point x="315" y="1051"/>
      <point x="360" y="1079"/>
      <point x="409" y="1079" type="curve" smooth="yes"/>
      <point x="499" y="1079"/>
      <point x="517" y="1023"/>
      <point x="517" y="927" type="curve" smooth="yes"/>
      <point x="517" y="532" type="line"/>
      <point x="677" y="532" type="line"/>
      <point x="677" y="947" type="line" smooth="yes"/>
      <point x="677" y="1107"/>
      <point x="620" y="1214"/>
      <point x="467" y="1214" type="curve" smooth="yes"/>
      <point x="378" y="1214"/>
      <point x="302" y="1163"/>
      <point x="249" y="1108" type="curve"/>
      <point x="258" y="1240" type="line"/>
      <point x="258" y="1488" type="line"/>
      <point x="98" y="1488" type="line"/>
    </contour>
  </outline>
</glyph>
<glyph name="r.sups" format="2">
  <advance width="517"/>
  <unicode hex="02B3"/>
  <outline>
    <contour>
      <point x="98" y="532" type="line"/>
      <point x="260" y="532" type="line"/>
      <point x="260" y="937" type="line"/>
      <point x="302" y="1036"/>
      <point x="365" y="1071"/>
      <point x="419" y="1071" type="curve" smooth="yes"/>
      <point x="444" y="1071"/>
      <point x="472" y="1064"/>
      <point x="488" y="1060" type="curve"/>
      <point x="518" y="1199" type="line"/>
      <point x="501" y="1208"/>
      <point x="473" y="1214"/>
      <point x="437" y="1214" type="curve" smooth="yes"/>
      <point x="367" y="1214"/>
      <point x="300" y="1168"/>
      <point x="248" y="1081" type="curve"/>
      <point x="242" y="1081" type="line"/>
      <point x="228" y="1197" type="line"/>
      <point x="98" y="1197" type="line"/>
    </contour>
  </outline>
</glyph>
<glyph name="commaturnedmod" format="2">
  <advance width="550"/>
  <unicode hex="02BB"/>
  <outline>
    <contour>
      <point x="360" y="1415" type="line"/>
      <point x="198" y="1328"/>
      <point x="115" y="1198"/>
      <point x="115" y="1023" type="curve" smooth="yes"/>
      <point x="115" y="885"/>
      <point x="169" y="806"/>
      <point x="269" y="806" type="curve" smooth="yes"/>
      <point x="342" y="806"/>
      <point x="396" y="858"/>
      <point x="396" y="940" type="curve" smooth="yes"/>
      <point x="396" y="1017"/>
      <point x="335" y="1062"/>
      <point x="269" y="1062" type="curve" smooth="yes"/>
      <point x="263" y="1062"/>
      <point x="255" y="1062"/>
      <point x="249" y="1060" type="curve"/>
      <point x="249" y="1178"/>
      <point x="305" y="1251"/>
      <point x="416" y="1316" type="curve"/>
    </contour>
  </outline>
</glyph>
<glyph name="apostrophemod" format="2">
  <advance width="550"/>
  <unicode hex="02BC"/>
  <outline>
    <contour>
      <point x="189" y="821" type="line"/>
      <point x="352" y="909"/>
      <point x="437" y="1037"/>
      <point x="437" y="1212" type="curve" smooth="yes"/>
      <point x="437" y="1351"/>
      <point x="380" y="1430"/>
      <point x="283" y="1430" type="curve" smooth="yes"/>
      <point x="209" y="1430"/>
      <point x="156" y="1379"/>
      <point x="156" y="1295" type="curve" smooth="yes"/>
      <point x="156" y="1219"/>
      <point x="214" y="1174"/>
      <point x="283" y="1174" type="curve" smooth="yes"/>
      <point x="289" y="1174"/>
      <point x="294" y="1174"/>
      <point x="301" y="1177" type="curve"/>
      <point x="301" y="1056"/>
      <point x="245" y="984"/>
      <point x="135" y="919" type="curve"/>
    </contour>
  </outline>
</glyph>
<glyph name="ringhalfright" format="2">
  <advance width="318"/>
  <unicode hex="02BE"/>
  <outline>
    <contour>
      <point x="58" y="1115" type="line"/>
      <point x="217" y="1109"/>
      <point x="300" y="1190"/>
      <point x="300" y="1312" type="curve" smooth="yes"/>
      <point x="300" y="1433"/>
      <point x="217" y="1514"/>
      <point x="58" y="1508" type="curve"/>
      <point x="58" y="1421" type="line"/>
      <point x="150" y="1421"/>
      <point x="184" y="1376"/>
      <point x="184" y="1312" type="curve" smooth="yes"/>
      <point x="184" y="1247"/>
      <point x="150" y="1203"/>
      <point x="58" y="1203" type="curve"/>
    </contour>
  </outline>
</glyph>
<glyph name="caron" format="2">
  <advance width="1120"/>
  <unicode hex="02C7"/>
  <anchor x="560" y="800" name="_top"/>
  <outline>
    <contour>
      <point x="471" y="1175" type="line"/>
      <point x="649" y="1175" type="line"/>
      <point x="844" y="1470" type="line"/>
      <point x="691" y="1470" type="line"/>
      <point x="564" y="1292" type="line"/>
      <point x="556" y="1292" type="line"/>
      <point x="430" y="1470" type="line"/>
      <point x="277" y="1470" type="line"/>
    </contour>
  </outline>
</glyph>
<glyph name="verticallinemod" format="2">
  <advance width="259"/>
  <unicode hex="02C8"/>
  <outline>
    <contour>
      <point x="52" y="1097" type="line"/>
      <point x="208" y="1097" type="line"/>
      <point x="220" y="1485" type="line"/>
      <point x="40" y="1485" type="line"/>
    </contour>
  </outline>
</glyph>
<glyph name="secondtonechinese" format="2">
  <advance width="469"/>
  <unicode hex="02CA"/>
  <outline>
    <contour>
      <point x="86" y="1175" type="line"/>
      <point x="250" y="1175" type="line"/>
      <point x="490" y="1470" type="line"/>
      <point x="270" y="1470" type="line"/>
    </contour>
  </outline>
</glyph>
<glyph name="ring" format="2">
  <advance width="1120"/>
  <unicode hex="02DA"/>
  <anchor x="561" y="800" name="_top"/>
  <outline>
    <contour>
      <point x="560" y="1115" type="curve" smooth="yes"/>
      <point x="682" y="1115"/>
      <point x="767" y="1193"/>
      <point x="767" y="1312" type="curve" smooth="yes"/>
      <point x="767" y="1430"/>
      <point x="682" y="1508"/>
      <point x="560" y="1508" type="curve" smooth="yes"/>
      <point x="439" y="1508"/>
      <point x="355" y="1430"/>
      <point x="355" y="1312" type="curve" smooth="yes"/>
      <point x="355" y="1193"/>
      <point x="439" y="1115"/>
    </contour>
    <contour>
      <point x="560" y="1205" type="curve" smooth="yes"/>
      <point x="508" y="1205"/>
      <point x="468" y="1247"/>
      <point x="468" y="1312" type="curve" smooth="yes"/>
      <point x="468" y="1376"/>
      <point x="508" y="1418"/>
      <point x="560" y="1418" type="curve" smooth="yes"/>
      <point x="612" y="1418"/>
      <point x="652" y="1376"/>
      <point x="652" y="1312" type="curve" smooth="yes"/>
      <point x="652" y="1247"/>
      <point x="612" y="1205"/>
    </contour>
  </outline>
</glyph>
<glyph name="ogonek" format="2">
  <advance width="1120"/>
  <unicode hex="02DB"/>
  <outline>
    <contour>
      <point x="735" y="-262" type="line"/>
      <point x="712" y="-276"/>
      <point x="685" y="-287"/>
      <point x="655" y="-287" type="curve" smooth="yes"/>
      <point x="608" y="-287"/>
      <point x="564" y="-260"/>
      <point x="564" y="-199" type="curve" smooth="yes"/>
      <point x="564" y="-127"/>
      <point x="609" y="-57"/>
      <point x="692" y="5" type="curve"/>
      <point x="554" y="5" type="line"/>
      <point x="492" y="-40"/>
      <point x="409" y="-132"/>
      <point x="409" y="-246" type="curve" smooth="yes"/>
      <point x="409" y="-364"/>
      <point x="496" y="-425"/>
      <point x="606" y="-425" type="curve" smooth="yes"/>
      <point x="663" y="-425"/>
      <point x="741" y="-399"/>
      <point x="785" y="-365" type="curve"/>
    </contour>
  </outline>
</glyph>
<glyph name="s.sups" format="2">
  <advance width="591"/>
  <unicode hex="02E2"/>
  <outline>
    <contour>
      <point x="537" y="1135" type="line"/>
      <point x="481" y="1177"/>
      <point x="409" y="1214"/>
      <point x="309" y="1214" type="curve" smooth="yes"/>
      <point x="161" y="1214"/>
      <point x="69" y="1126"/>
      <point x="69" y="1016" type="curve" smooth="yes"/>
      <point x="69" y="902"/>
      <point x="168" y="852"/>
      <point x="258" y="818" type="curve"/>
      <point x="331" y="789"/>
      <point x="402" y="768"/>
      <point x="402" y="714" type="curve" smooth="yes"/>
      <point x="402" y="668"/>
      <point x="365" y="635"/>
      <point x="298" y="635" type="curve" smooth="yes"/>
      <point x="232" y="635"/>
      <point x="170" y="664"/>
      <point x="109" y="709" type="curve"/>
      <point x="36" y="606" type="line"/>
      <point x="103" y="554"/>
      <point x="199" y="516"/>
      <point x="294" y="516" type="curve" smooth="yes"/>
      <point x="456" y="516"/>
      <point x="553" y="605"/>
      <point x="553" y="726" type="curve" smooth="yes"/>
      <point x="553" y="848"/>
      <point x="451" y="890"/>
      <point x="361" y="924" type="curve" smooth="yes"/>
      <point x="288" y="951"/>
      <point x="219" y="970"/>
      <point x="219" y="1023" type="curve" smooth="yes"/>
      <point x="219" y="1061"/>
      <point x="250" y="1094"/>
      <point x="314" y="1094" type="curve" smooth="yes"/>
      <point x="370" y="1094"/>
      <point x="414" y="1071"/>
      <point x="463" y="1037" type="curve"/>
    </contour>
  </outline>
</glyph>
<glyph name="x.sups" format="2">
  <advance width="661"/>
  <unicode hex="02E3"/>
  <outline>
    <contour>
      <point x="16" y="532" type="line"/>
      <point x="185" y="532" type="line"/>
      <point x="255" y="660" type="line"/>
      <point x="316" y="769" type="line"/>
      <point x="324" y="769" type="line"/>
      <point x="394" y="660" type="line"/>
      <point x="471" y="532" type="line"/>
      <point x="643" y="532" type="line"/>
      <point x="430" y="862" type="line"/>
      <point x="630" y="1197" type="line"/>
      <point x="463" y="1197" type="line"/>
      <point x="398" y="1074" type="line"/>
      <point x="349" y="968" type="line"/>
      <point x="341" y="968" type="line"/>
      <point x="279" y="1074" type="line"/>
      <point x="206" y="1197" type="line"/>
      <point x="33" y="1197" type="line"/>
      <point x="235" y="879" type="line"/>
    </contour>
  </outline>
</glyph>
<glyph name="gravecomb" format="2">
  <unicode hex="0300"/>
  <anchor x="-656" y="1003" name="_top"/>
  <anchor x="-654" y="1470" name="top"/>
  <outline>
    <contour>
      <point x="-617" y="1175" type="line"/>
      <point x="-454" y="1175" type="line"/>
      <point x="-637" y="1470" type="line"/>
      <point x="-857" y="1470" type="line"/>
    </contour>
  </outline>
</glyph>
<glyph name="acutecomb" format="2">
  <unicode hex="0301"/>
  <anchor x="-545" y="1003" name="_top"/>
  <anchor x="-543" y="1470" name="top"/>
  <outline>
    <contour>
      <point x="-746" y="1175" type="line"/>
      <point x="-583" y="1175" type="line"/>
      <point x="-343" y="1470" type="line"/>
      <point x="-563" y="1470" type="line"/>
    </contour>
  </outline>
</glyph>
<glyph name="hookabovecomb" format="2">
  <unicode hex="0309"/>
  <anchor x="-579" y="1003" name="_top"/>
  <anchor x="-577" y="1508" name="top"/>
  <outline>
    <contour>
      <point x="-663" y="1136" type="line"/>
      <point x="-531" y="1152"/>
      <point x="-414" y="1207"/>
      <point x="-414" y="1334" type="curve" smooth="yes"/>
      <point x="-414" y="1440"/>
      <point x="-513" y="1502"/>
      <point x="-720" y="1508" type="curve"/>
      <point x="-744" y="1390" type="line"/>
      <point x="-630" y="1384"/>
      <point x="-577" y="1359"/>
      <point x="-577" y="1311" type="curve" smooth="yes"/>
      <point x="-577" y="1264"/>
      <point x="-623" y="1244"/>
      <point x="-683" y="1229" type="curve"/>
    </contour>
  </outline>
</glyph>
<glyph name="dblgravecomb" format="2">
  <unicode hex="030F"/>
  <anchor x="-701" y="1003" name="_top"/>
  <anchor x="-699" y="1470" name="top"/>
  <outline>
    <contour>
      <point x="-838" y="1171" type="line"/>
      <point x="-697" y="1171" type="line"/>
      <point x="-841" y="1470" type="line"/>
      <point x="-1024" y="1470" type="line"/>
    </contour>
    <contour>
      <point x="-518" y="1171" type="line"/>
      <point x="-378" y="1171" type="line"/>
      <point x="-520" y="1470" type="line"/>
      <point x="-704" y="1470" type="line"/>
    </contour>
  </outline>
</glyph>
<glyph name="commaabovecomb" format="2">
  <unicode hex="0313"/>
  <anchor x="-594" y="1003" name="_top"/>
  <anchor x="-592" y="1513" name="top"/>
  <outline>
    <contour>
      <point x="-664" y="1112" type="line"/>
      <point x="-539" y="1165"/>
      <point x="-485" y="1258"/>
      <point x="-485" y="1361" type="curve" smooth="yes"/>
      <point x="-485" y="1460"/>
      <point x="-525" y="1513"/>
      <point x="-600" y="1513" type="curve" smooth="yes"/>
      <point x="-650" y="1513"/>
      <point x="-693" y="1477"/>
      <point x="-693" y="1413" type="curve" smooth="yes"/>
      <point x="-693" y="1355"/>
      <point x="-647" y="1323"/>
      <point x="-600" y="1323" type="curve" smooth="yes"/>
      <point x="-594" y="1323"/>
      <point x="-588" y="1323"/>
      <point x="-583" y="1325" type="curve"/>
      <point x="-589" y="1267"/>
      <point x="-627" y="1222"/>
      <point x="-703" y="1188" type="curve"/>
    </contour>
  </outline>
</glyph>
<glyph name="dotbelowcomb" format="2">
  <unicode hex="0323"/>
  <anchor x="0" y="-200" name="_btm"/>
  <outline>
    <contour>
      <point x="0" y="-438" type="curve" smooth="yes"/>
      <point x="76" y="-438"/>
      <point x="132" y="-385"/>
      <point x="132" y="-309" type="curve" smooth="yes"/>
      <point x="132" y="-235"/>
      <point x="76" y="-182"/>
      <point x="0" y="-182" type="curve" smooth="yes"/>
      <point x="-76" y="-182"/>
      <point x="-132" y="-235"/>
      <point x="-132" y="-309" type="curve" smooth="yes"/>
      <point x="-132" y="-385"/>
      <point x="-76" y="-438"/>
    </contour>
  </outline>
</glyph>
<glyph name="commaaccentcomb" format="2">
  <unicode hex="0326"/>
  <anchor x="0" y="-200" name="_btm"/>
  <outline>
    <contour>
      <point x="-152" y="-444" type="line"/>
      <point x="19" y="-433"/>
      <point x="173" y="-375"/>
      <point x="173" y="-247" type="curve" smooth="yes"/>
      <point x="173" y="-150"/>
      <point x="112" y="-102"/>
      <point x="-47" y="-83" type="curve"/>
      <point x="-93" y="-175" type="line"/>
      <point x="-33" y="-190"/>
      <point x="4" y="-212"/>
      <point x="4" y="-259" type="curve" smooth="yes"/>
      <point x="4" y="-309"/>
      <point x="-69" y="-332"/>
      <point x="-172" y="-345" type="curve"/>
    </contour>
  </outline>
</glyph>
<glyph name="cedillacomb" format="2">
  <unicode hex="0327"/>
  <anchor x="19" y="-200" name="_btm"/>
  <outline>
    <contour>
      <point x="-151" y="-442" type="line"/>
      <point x="19" y="-430"/>
      <point x="170" y="-372"/>
      <point x="170" y="-245" type="curve" smooth="yes"/>
      <point x="170" y="-161"/>
      <point x="118" y="-120"/>
      <point x="50" y="-97" type="curve"/>
      <point x="98" y="7" type="line"/>
      <point x="-37" y="7" type="line"/>
      <point x="-119" y="-155" type="line"/>
      <point x="-33" y="-176"/>
      <point x="7" y="-203"/>
      <point x="7" y="-249" type="curve" smooth="yes"/>
      <point x="7" y="-304"/>
      <point x="-66" y="-332"/>
      <point x="-170" y="-344" type="curve"/>
    </contour>
  </outline>
</glyph>
<glyph name="ogonekcomb" format="2">
  <unicode hex="0328"/>
  <anchor x="-37" y="-200" name="_btm"/>
  <outline>
    <contour>
      <point x="136" y="-262" type="line"/>
      <point x="115" y="-276"/>
      <point x="88" y="-287"/>
      <point x="58" y="-287" type="curve" smooth="yes"/>
      <point x="11" y="-287"/>
      <point x="-33" y="-260"/>
      <point x="-33" y="-199" type="curve" smooth="yes"/>
      <point x="-33" y="-127"/>
      <point x="12" y="-57"/>
      <point x="95" y="5" type="curve"/>
      <point x="-43" y="5" type="line"/>
      <point x="-105" y="-40"/>
      <point x="-188" y="-132"/>
      <point x="-188" y="-246" type="curve" smooth="yes"/>
      <point x="-188" y="-364"/>
      <point x="-100" y="-425"/>
      <point x="9" y="-425" type="curve" smooth="yes"/>
      <point x="65" y="-425"/>
      <point x="144" y="-399"/>
      <point x="188" y="-365" type="curve"/>
    </contour>
  </outline>
</glyph>
<glyph name="anusvara-deva" format="2">
  <unicode hex="0902"/>
  <guideline x="270" y="633" angle="270"/>
  <anchor x="270" y="1287" name="_candra"/>
  <outline>
    <contour>
      <point x="273" y="1456" type="curve" smooth="yes"/>
      <point x="355" y="1456"/>
      <point x="390" y="1490"/>
      <point x="390" y="1571" type="curve" smooth="yes"/>
      <point x="390" y="1653"/>
      <point x="355" y="1687"/>
      <point x="273" y="1687" type="curve" smooth="yes"/>
      <point x="191" y="1687"/>
      <point x="156" y="1653"/>
      <point x="156" y="1571" type="curve" smooth="yes"/>
      <point x="156" y="1490"/>
      <point x="191" y="1456"/>
    </contour>
  </outline>
</glyph>
<glyph name="i-deva" format="2">
  <advance width="1060"/>
  <unicode hex="0907"/>
  <anchor x="885" y="-95" name="bottom"/>
  <anchor x="582" y="1167" name="candra"/>
  <anchor x="761" y="1167" name="top"/>
  <outline>
    <contour>
      <point x="318" y="518" type="line"/>
      <point x="306" y="542"/>
      <point x="289" y="592"/>
      <point x="289" y="645" type="curve" smooth="yes"/>
      <point x="289" y="718"/>
      <point x="320" y="745"/>
      <point x="439" y="745" type="curve" smooth="yes"/>
      <point x="786" y="745" type="line"/>
      <point x="762" y="932" type="line"/>
      <point x="402" y="932" type="line" smooth="yes"/>
      <point x="180" y="930"/>
      <point x="102" y="846"/>
      <point x="102" y="702" type="curve" smooth="yes"/>
      <point x="102" y="572"/>
      <point x="163" y="421"/>
      <point x="234" y="366" type="curve" smooth="yes"/>
      <point x="270" y="339"/>
      <point x="292" y="339"/>
      <point x="322" y="342" type="curve" smooth="yes"/>
      <point x="386" y="349"/>
      <point x="576" y="369"/>
      <point x="661" y="369" type="curve" smooth="yes"/>
      <point x="775" y="369"/>
      <point x="801" y="334"/>
      <point x="800" y="272" type="curve" smooth="yes"/>
      <point x="800" y="196"/>
      <point x="757" y="120"/>
      <point x="552" y="120" type="curve" smooth="yes"/>
      <point x="475" y="120"/>
      <point x="389" y="129"/>
      <point x="259" y="184" type="curve"/>
      <point x="380" y="83" type="line"/>
      <point x="276" y="279" type="line"/>
      <point x="101" y="251" type="line"/>
      <point x="96" y="221"/>
      <point x="93" y="185"/>
      <point x="93" y="164" type="curve" smooth="yes"/>
      <point x="93" y="24"/>
      <point x="213" y="-21"/>
      <point x="345" y="-57" type="curve"/>
      <point x="358" y="-25" type="line"/>
      <point x="426" y="-51"/>
      <point x="491" y="-64"/>
      <point x="564" y="-64" type="curve"/>
      <point x="826" y="-64"/>
      <point x="995" y="60"/>
      <point x="995" y="295" type="curve" smooth="yes"/>
      <point x="995" y="524"/>
      <point x="837" y="559"/>
      <point x="672" y="559" type="curve" smooth="yes"/>
      <point x="547" y="559"/>
      <point x="356" y="538"/>
      <point x="295" y="525" type="curve"/>
    </contour>
    <contour>
      <point x="463" y="-362" type="line"/>
      <point x="632" y="-268" type="line"/>
      <point x="341" y="126" type="line"/>
      <point x="216" y="117" type="line"/>
    </contour>
    <contour>
      <point x="-19" y="1104" type="line"/>
      <point x="1079" y="1104" type="line"/>
      <point x="1079" y="1287" type="line"/>
      <point x="-19" y="1287" type="line"/>
    </contour>
    <contour>
      <point x="656" y="745" type="line"/>
      <point x="863" y="745" type="line"/>
      <point x="863" y="1211" type="line"/>
      <point x="656" y="1211" type="line"/>
    </contour>
  </outline>
</glyph>
<glyph name="u-deva" format="2">
  <advance width="877"/>
  <unicode hex="0909"/>
  <anchor x="466" y="69" name="bottom"/>
  <anchor x="480" y="1167" name="candra"/>
  <anchor x="476" y="1166" name="top"/>
  <outline>
    <contour>
      <point x="292" y="655" type="line"/>
      <point x="504" y="595"/>
      <point x="606" y="527"/>
      <point x="606" y="375" type="curve" smooth="yes"/>
      <point x="606" y="271"/>
      <point x="536" y="193"/>
      <point x="410" y="193" type="curve" smooth="yes"/>
      <point x="298" y="193"/>
      <point x="196" y="239"/>
      <point x="108" y="308" type="curve"/>
      <point x="15" y="179" type="line"/>
      <point x="115" y="73"/>
      <point x="263" y="8"/>
      <point x="423" y="8" type="curve" smooth="yes"/>
      <point x="644" y="8"/>
      <point x="816" y="145"/>
      <point x="816" y="363" type="curve" smooth="yes"/>
      <point x="816" y="567"/>
      <point x="662" y="676"/>
      <point x="408" y="696" type="curve"/>
    </contour>
    <contour>
      <point x="271" y="566" type="line"/>
      <point x="360" y="565"/>
      <point x="477" y="577"/>
      <point x="577" y="643" type="curve" smooth="yes"/>
      <point x="696" y="718"/>
      <point x="765" y="807"/>
      <point x="765" y="955" type="curve" smooth="yes"/>
      <point x="765" y="1171"/>
      <point x="522" y="1216"/>
      <point x="392" y="1203" type="curve"/>
      <point x="398" y="1114" type="line"/>
      <point x="471" y="1114"/>
      <point x="566" y="1065"/>
      <point x="566" y="950" type="curve" smooth="yes"/>
      <point x="566" y="846"/>
      <point x="503" y="768"/>
      <point x="316" y="745" type="curve" smooth="yes"/>
      <point x="295" y="742"/>
      <point x="281" y="740"/>
      <point x="249" y="738" type="curve"/>
    </contour>
    <contour>
      <point x="-19" y="1104" type="line"/>
      <point x="896" y="1104" type="line"/>
      <point x="896" y="1287" type="line"/>
      <point x="-19" y="1287" type="line"/>
    </contour>
  </outline>
</glyph>
<glyph name="ka-deva" format="2">
  <advance width="1530"/>
  <unicode hex="0915"/>
  <anchor x="795" y="27" name="bottom"/>
  <anchor x="789" y="1165" name="candra"/>
  <anchor x="176" y="-30" name="nukta"/>
  <anchor x="784" y="1170" name="top"/>
  <outline>
    <contour>
      <point x="728.909" y="534.909" type="line"/>
      <point x="656" y="440"/>
      <point x="552" y="374.909"/>
      <point x="427" y="375" type="curve" smooth="yes"/>
      <point x="320" y="375"/>
      <point x="266" y="415"/>
      <point x="266" y="553" type="curve" smooth="yes"/>
      <point x="266" y="704"/>
      <point x="347" y="747"/>
      <point x="466" y="751" type="curve" smooth="yes"/>
      <point x="549" y="753"/>
      <point x="663" y="737"/>
      <point x="788" y="675" type="curve"/>
      <point x="788" y="789" type="line"/>
      <point x="720" y="877"/>
      <point x="595" y="941"/>
      <point x="427" y="941" type="curve" smooth="yes"/>
      <point x="198" y="941"/>
      <point x="55" y="820"/>
      <point x="55" y="564" type="curve" smooth="yes"/>
      <point x="55" y="399"/>
      <point x="134" y="196"/>
      <point x="408" y="196" type="curve" smooth="yes"/>
      <point x="557" y="196"/>
      <point x="711" y="264"/>
      <point x="788" y="391" type="curve"/>
    </contour>
    <contour>
      <point x="690" y="0" type="line"/>
      <point x="900" y="0" type="line"/>
      <point x="900" y="1185" type="line"/>
      <point x="690" y="1185" type="line"/>
    </contour>
    <contour>
      <point x="1299" y="125" type="line"/>
      <point x="1410" y="244"/>
      <point x="1476" y="391"/>
      <point x="1476" y="548" type="curve" smooth="yes"/>
      <point x="1476" y="751"/>
      <point x="1367" y="887"/>
      <point x="1174" y="887" type="curve" smooth="yes"/>
      <point x="1036" y="887"/>
      <point x="933" y="831"/>
      <point x="830" y="708" type="curve"/>
      <point x="830" y="404" type="line"/>
      <point x="994" y="634"/>
      <point x="1097" y="701"/>
      <point x="1165" y="701" type="curve" smooth="yes"/>
      <point x="1242" y="701"/>
      <point x="1286" y="658"/>
      <point x="1286" y="569" type="curve" smooth="yes"/>
      <point x="1286" y="463"/>
      <point x="1230" y="360"/>
      <point x="1146" y="242" type="curve"/>
    </contour>
    <contour>
      <point x="-19" y="1104" type="line"/>
      <point x="1549" y="1104" type="line"/>
      <point x="1549" y="1287" type="line"/>
      <point x="-19" y="1287" type="line"/>
    </contour>
  </outline>
</glyph>
<glyph name="ga-deva" format="2">
  <advance width="1147"/>
  <unicode hex="0917"/>
  <anchor x="865" y="27" name="bottom"/>
  <anchor x="612" y="1167" name="candra"/>
  <anchor x="330" y="92" name="nukta"/>
  <anchor x="865" y="1167" name="top"/>
  <outline>
    <contour>
      <point x="760" y="1" type="line"/>
      <point x="970" y="1" type="line"/>
      <point x="970" y="1238" type="line"/>
      <point x="760" y="1238" type="line"/>
    </contour>
    <contour>
      <point x="269" y="357" type="line"/>
      <point x="409" y="358"/>
      <point x="437" y="424"/>
      <point x="437" y="506" type="curve" smooth="yes"/>
      <point x="437" y="729" type="line"/>
      <point x="272" y="729" type="line"/>
      <point x="84" y="706" type="line"/>
      <point x="84" y="563" type="line"/>
    </contour>
    <contour>
      <point x="227" y="465" type="line"/>
      <point x="437" y="653" type="line"/>
      <point x="437" y="1176" type="line"/>
      <point x="227" y="1176" type="line"/>
    </contour>
    <contour>
      <point x="-19" y="1104" type="line"/>
      <point x="1165" y="1104" type="line"/>
      <point x="1165" y="1287" type="line"/>
      <point x="-19" y="1287" type="line"/>
    </contour>
  </outline>
</glyph>
<glyph name="nga-deva" format="2">
  <advance width="1174"/>
  <unicode hex="0919"/>
  <anchor x="576" y="-101" name="bottom"/>
  <anchor x="604" y="1167" name="candra"/>
  <anchor x="753" y="1167" name="top"/>
  <anchor x="545" y="-241" name="nukta"/>
  <outline>
    <contour>
      <point x="1043" y="761" type="curve" smooth="yes"/>
      <point x="957" y="761"/>
      <point x="920" y="726"/>
      <point x="920" y="641" type="curve" smooth="yes"/>
      <point x="920" y="557"/>
      <point x="957" y="521"/>
      <point x="1043" y="521" type="curve" smooth="yes"/>
      <point x="1128" y="521"/>
      <point x="1165" y="557"/>
      <point x="1165" y="641" type="curve" smooth="yes"/>
      <point x="1165" y="726"/>
      <point x="1128" y="761"/>
    </contour>
    <contour>
      <point x="1193" y="1287" type="line"/>
      <point x="851" y="1287" type="line"/>
      <point x="851" y="1104" type="line"/>
      <point x="1193" y="1104" type="line"/>
    </contour>
    <component base="dda-deva"/>
  </outline>
</glyph>
<glyph name="ddha-deva" format="2">
  <advance width="1082"/>
  <unicode hex="0922"/>
  <anchor x="565" y="36" name="bottom"/>
  <anchor x="545" y="1167" name="candra"/>
  <anchor x="-4" y="82" name="nukta"/>
  <anchor x="768" y="1167" name="top"/>
  <outline>
    <contour>
      <point x="750" y="182" type="line"/>
      <point x="689" y="247"/>
      <point x="670" y="291"/>
      <point x="670" y="346" type="curve" smooth="yes"/>
      <point x="670" y="391"/>
      <point x="699" y="434"/>
      <point x="753" y="434" type="curve" smooth="yes"/>
      <point x="802" y="434"/>
      <point x="847" y="426"/>
      <point x="847" y="356" type="curve" smooth="yes"/>
      <point x="847" y="234"/>
      <point x="750" y="185"/>
      <point x="600" y="181" type="curve" smooth="yes"/>
      <point x="365" y="175"/>
      <point x="283" y="241"/>
      <point x="283" y="470" type="curve" smooth="yes"/>
      <point x="283" y="649"/>
      <point x="375" y="721"/>
      <point x="601" y="722" type="curve" smooth="yes"/>
      <point x="664" y="722"/>
      <point x="796" y="717"/>
      <point x="875" y="713" type="curve"/>
      <point x="875" y="1154" type="line"/>
      <point x="665" y="1154" type="line"/>
      <point x="665" y="846" type="line"/>
      <point x="763" y="870" type="line"/>
      <point x="691" y="900"/>
      <point x="577" y="908"/>
      <point x="529" y="908" type="curve" smooth="yes"/>
      <point x="238" y="908"/>
      <point x="63" y="775"/>
      <point x="63" y="480" type="curve" smooth="yes"/>
      <point x="63" y="170"/>
      <point x="264" y="11"/>
      <point x="560" y="11" type="curve" smooth="yes"/>
      <point x="721" y="11"/>
      <point x="1021" y="61"/>
      <point x="1021" y="346" type="curve" smooth="yes"/>
      <point x="1021" y="517"/>
      <point x="901" y="593"/>
      <point x="750" y="593" type="curve" smooth="yes"/>
      <point x="565" y="593"/>
      <point x="493" y="479"/>
      <point x="493" y="386" type="curve" smooth="yes"/>
      <point x="493" y="292"/>
      <point x="526" y="229"/>
      <point x="608" y="155" type="curve"/>
    </contour>
    <contour>
      <point x="-19" y="1104" type="line"/>
      <point x="1101" y="1104" type="line"/>
      <point x="1101" y="1287" type="line"/>
      <point x="-19" y="1287" type="line"/>
    </contour>
  </outline>
</glyph>
<glyph name="ta-deva" format="2">
  <advance width="1109"/>
  <unicode hex="0924"/>
  <anchor x="828" y="27" name="bottom"/>
  <anchor x="582" y="1167" name="candra"/>
  <anchor x="3" y="82" name="nukta"/>
  <anchor x="835" y="1167" name="top"/>
  <outline>
    <contour>
      <point x="474" y="71" type="line"/>
      <point x="321" y="302"/>
      <point x="275" y="439"/>
      <point x="275" y="534" type="curve" smooth="yes"/>
      <point x="275" y="633"/>
      <point x="326" y="661"/>
      <point x="439" y="661" type="curve" smooth="yes"/>
      <point x="863" y="661" type="line"/>
      <point x="817" y="858" type="line"/>
      <point x="419" y="858" type="line" smooth="yes"/>
      <point x="205" y="858"/>
      <point x="61" y="750"/>
      <point x="61" y="566" type="curve" smooth="yes"/>
      <point x="61" y="365"/>
      <point x="179" y="131"/>
      <point x="310" y="-38" type="curve"/>
    </contour>
    <contour>
      <point x="723" y="0" type="line"/>
      <point x="933" y="0" type="line"/>
      <point x="933" y="1199" type="line"/>
      <point x="723" y="1199" type="line"/>
    </contour>
    <contour>
      <point x="-19" y="1104" type="line"/>
      <point x="1128" y="1104" type="line"/>
      <point x="1128" y="1287" type="line"/>
      <point x="-19" y="1287" type="line"/>
    </contour>
  </outline>
</glyph>
<glyph name="tha-deva" format="2">
  <advance width="1259"/>
  <unicode hex="0925"/>
  <anchor x="978" y="27" name="bottom"/>
  <anchor x="671" y="1167" name="candra"/>
  <anchor x="202" y="111" name="nukta"/>
  <anchor x="978" y="1167" name="top"/>
  <outline>
    <contour>
      <point x="902" y="617" type="line"/>
      <point x="814" y="488"/>
      <point x="699" y="440"/>
      <point x="589" y="440" type="curve" smooth="yes"/>
      <point x="461" y="440"/>
      <point x="370" y="499"/>
      <point x="319" y="640" type="curve"/>
      <point x="300" y="587" type="line"/>
      <point x="477" y="650"/>
      <point x="667" y="782"/>
      <point x="667" y="999" type="curve" smooth="yes"/>
      <point x="667" y="1137"/>
      <point x="571" y="1306"/>
      <point x="348" y="1306" type="curve" smooth="yes"/>
      <point x="174" y="1306"/>
      <point x="88" y="1202"/>
      <point x="89" y="1091" type="curve" smooth="yes"/>
      <point x="89" y="1005"/>
      <point x="146" y="929"/>
      <point x="242" y="880" type="curve"/>
      <point x="324.909" y="970" type="line"/>
      <point x="291" y="1001"/>
      <point x="270" y="1029"/>
      <point x="270" y="1065" type="curve" smooth="yes"/>
      <point x="270" y="1105"/>
      <point x="297.909" y="1130.91"/>
      <point x="354" y="1131" type="curve" smooth="yes"/>
      <point x="422" y="1131"/>
      <point x="464" y="1086"/>
      <point x="464" y="1012" type="curve" smooth="yes"/>
      <point x="464" y="855"/>
      <point x="280" y="765"/>
      <point x="121" y="698" type="curve"/>
      <point x="178" y="390"/>
      <point x="364" y="249"/>
      <point x="579" y="249" type="curve" smooth="yes"/>
      <point x="711" y="249"/>
      <point x="838" y="294"/>
      <point x="921" y="405" type="curve"/>
    </contour>
    <contour>
      <point x="873" y="0" type="line"/>
      <point x="1083" y="0" type="line"/>
      <point x="1083" y="1182" type="line"/>
      <point x="873" y="1182" type="line"/>
    </contour>
    <contour>
      <point x="751" y="1104" type="line"/>
      <point x="1278" y="1104" type="line"/>
      <point x="1278" y="1287" type="line"/>
      <point x="751" y="1287" type="line"/>
    </contour>
  </outline>
</glyph>
<glyph name="na-deva" format="2">
  <advance width="1064"/>
  <unicode hex="0928"/>
  <anchor x="784" y="27" name="bottom"/>
  <anchor x="510" y="1167" name="candra"/>
  <anchor x="253" y="82" name="nukta"/>
  <anchor x="784" y="1167" name="top"/>
  <outline>
    <contour>
      <point x="678.091" y="0" type="line"/>
      <point x="889" y="0" type="line"/>
      <point x="889" y="1199" type="line"/>
      <point x="678" y="1199" type="line"/>
    </contour>
    <contour>
      <point x="199" y="387" type="line"/>
      <point x="346" y="387"/>
      <point x="369" y="468"/>
      <point x="369" y="568" type="curve" smooth="yes"/>
      <point x="369" y="775" type="line"/>
      <point x="45" y="775" type="line"/>
      <point x="45" y="611" type="line"/>
    </contour>
    <contour>
      <point x="170" y="589" type="line"/>
      <point x="794" y="589" type="line"/>
      <point x="794" y="775" type="line"/>
      <point x="170" y="775" type="line"/>
    </contour>
    <contour>
      <point x="-19" y="1104" type="line"/>
      <point x="1083" y="1104" type="line"/>
      <point x="1083" y="1287" type="line"/>
      <point x="-19" y="1287" type="line"/>
    </contour>
  </outline>
</glyph>
<glyph name="ba-deva" format="2">
  <advance width="1123"/>
  <unicode hex="092C"/>
  <anchor x="843" y="27" name="bottom"/>
  <anchor x="558" y="1167" name="candra"/>
  <anchor x="119" y="82" name="nukta"/>
  <anchor x="843" y="1167" name="top"/>
  <outline>
    <contour>
      <point x="787" y="497" type="line"/>
      <point x="691.909" y="392"/>
      <point x="612" y="343"/>
      <point x="459" y="343" type="curve" smooth="yes"/>
      <point x="313" y="343"/>
      <point x="270" y="409"/>
      <point x="270" y="566" type="curve" smooth="yes"/>
      <point x="270" y="719"/>
      <point x="314" y="776"/>
      <point x="479" y="781" type="curve" smooth="yes"/>
      <point x="577" y="783"/>
      <point x="697" y="766"/>
      <point x="828" y="700" type="curve"/>
      <point x="824" y="842" type="line"/>
      <point x="722" y="916"/>
      <point x="615" y="950"/>
      <point x="476" y="950" type="curve" smooth="yes"/>
      <point x="213" y="950"/>
      <point x="65" y="825"/>
      <point x="65" y="568" type="curve" smooth="yes"/>
      <point x="65" y="292"/>
      <point x="230" y="174"/>
      <point x="450.909" y="174" type="curve" smooth="yes"/>
      <point x="607" y="174"/>
      <point x="761" y="230"/>
      <point x="843" y="361" type="curve"/>
    </contour>
    <contour>
      <point x="695" y="289" type="line"/>
      <point x="798" y="395" type="line"/>
      <point x="343" y="851" type="line"/>
      <point x="240" y="745" type="line"/>
    </contour>
    <contour>
      <point x="738" y="0" type="line"/>
      <point x="948" y="0" type="line"/>
      <point x="948" y="1176" type="line"/>
      <point x="738" y="1176" type="line"/>
    </contour>
    <contour>
      <point x="-19" y="1104" type="line"/>
      <point x="1142" y="1104" type="line"/>
      <point x="1142" y="1287" type="line"/>
      <point x="-19" y="1287" type="line"/>
    </contour>
  </outline>
</glyph>
<glyph name="bha-deva" format="2">
  <advance width="1242"/>
  <unicode hex="092D"/>
  <anchor x="962" y="27" name="bottom"/>
  <anchor x="665" y="1167" name="candra"/>
  <anchor x="304" y="82" name="nukta"/>
  <anchor x="962" y="1167" name="top"/>
  <outline>
    <contour>
      <point x="275" y="548" type="line"/>
      <point x="485" y="548" type="line"/>
      <point x="485" y="1032" type="line" smooth="yes"/>
      <point x="485" y="1168"/>
      <point x="464" y="1307"/>
      <point x="239" y="1307" type="curve" smooth="yes"/>
      <point x="173" y="1307"/>
      <point x="126" y="1299"/>
      <point x="77" y="1281" type="curve"/>
      <point x="101" y="1105" type="line"/>
      <point x="135" y="1112"/>
      <point x="168" y="1118"/>
      <point x="197" y="1118" type="curve" smooth="yes"/>
      <point x="245" y="1119"/>
      <point x="275" y="1099"/>
      <point x="275" y="1035" type="curve" smooth="yes"/>
    </contour>
    <contour>
      <point x="316" y="289" type="line"/>
      <point x="455" y="289"/>
      <point x="484" y="357"/>
      <point x="484" y="437" type="curve" smooth="yes"/>
      <point x="484" y="661" type="line"/>
      <point x="318" y="661" type="line"/>
      <point x="131" y="639" type="line"/>
      <point x="131" y="495" type="line"/>
    </contour>
    <contour>
      <point x="280" y="471" type="line"/>
      <point x="1026" y="471" type="line"/>
      <point x="1026" y="657" type="line"/>
      <point x="280" y="657" type="line"/>
    </contour>
    <contour>
      <point x="857" y="1" type="line"/>
      <point x="1067" y="1" type="line"/>
      <point x="1067" y="1216" type="line"/>
      <point x="857" y="1216" type="line"/>
    </contour>
    <contour>
      <point x="684" y="1104" type="line"/>
      <point x="1262" y="1104" type="line"/>
      <point x="1262" y="1287" type="line"/>
      <point x="684" y="1287" type="line"/>
    </contour>
  </outline>
</glyph>
<glyph name="ra-deva" format="2">
  <advance width="749"/>
  <unicode hex="0930"/>
  <anchor x="509" y="27" name="bottom"/>
  <anchor x="455" y="1167" name="candra"/>
  <anchor x="137" y="97" name="nukta"/>
  <anchor x="456" y="1167" name="top"/>
  <outline>
    <contour>
      <point x="479" y="-39" type="line"/>
      <point x="648" y="84" type="line"/>
      <point x="297" y="557" type="line"/>
      <point x="288" y="548" type="line"/>
      <point x="304" y="538"/>
      <point x="331" y="534"/>
      <point x="356" y="534" type="curve" smooth="yes"/>
      <point x="469" y="534"/>
      <point x="561" y="620"/>
      <point x="561" y="796.909" type="curve" smooth="yes"/>
      <point x="561" y="1176" type="line"/>
      <point x="351" y="1176" type="line"/>
      <point x="351" y="803.091" type="line" smooth="yes"/>
      <point x="351" y="731"/>
      <point x="330" y="694"/>
      <point x="279.909" y="694.091" type="curve" smooth="yes"/>
      <point x="247" y="694"/>
      <point x="216" y="707"/>
      <point x="178" y="739" type="curve"/>
      <point x="43" y="627" type="line"/>
    </contour>
    <contour>
      <point x="-19" y="1104" type="line"/>
      <point x="768" y="1104" type="line"/>
      <point x="768" y="1287" type="line"/>
      <point x="-19" y="1287" type="line"/>
    </contour>
  </outline>
</glyph>
<glyph name="la-deva" format="2">
  <advance width="1415"/>
  <unicode hex="0932"/>
  <anchor x="1135" y="27" name="bottom"/>
  <anchor x="674" y="1167" name="candra"/>
  <anchor x="3" y="82" name="nukta"/>
  <anchor x="1135" y="1167" name="top"/>
  <outline>
    <contour>
      <point x="488" y="95" type="line"/>
      <point x="330" y="289"/>
      <point x="261" y="422"/>
      <point x="261" y="567" type="curve" smooth="yes"/>
      <point x="261" y="704"/>
      <point x="330" y="743"/>
      <point x="409" y="743" type="curve" smooth="yes"/>
      <point x="513" y="743"/>
      <point x="584" y="656"/>
      <point x="661" y="534" type="curve"/>
      <point x="680" y="671" type="line"/>
      <point x="608" y="860"/>
      <point x="505" y="940"/>
      <point x="359" y="940" type="curve" smooth="yes"/>
      <point x="168" y="940"/>
      <point x="55" y="815"/>
      <point x="55" y="597" type="curve" smooth="yes"/>
      <point x="55" y="334"/>
      <point x="199" y="127"/>
      <point x="341" y="-32" type="curve"/>
    </contour>
    <contour>
      <point x="748" y="465" type="line"/>
      <point x="743" y="496"/>
      <point x="740" y="526"/>
      <point x="740" y="556" type="curve" smooth="yes"/>
      <point x="740" y="667"/>
      <point x="789" y="749"/>
      <point x="888" y="749" type="curve" smooth="yes"/>
      <point x="974" y="749"/>
      <point x="1035" y="701"/>
      <point x="1062" y="604" type="curve"/>
      <point x="1078" y="730" type="line"/>
      <point x="1061" y="869"/>
      <point x="964" y="939"/>
      <point x="850" y="939" type="curve" smooth="yes"/>
      <point x="656" y="939"/>
      <point x="547" y="775"/>
      <point x="547" y="573" type="curve" smooth="yes"/>
      <point x="547" y="528"/>
      <point x="552" y="485"/>
      <point x="567" y="445" type="curve"/>
    </contour>
    <contour>
      <point x="1030" y="1" type="line"/>
      <point x="1240" y="1" type="line"/>
      <point x="1240" y="1197" type="line"/>
      <point x="1030" y="1197" type="line"/>
    </contour>
    <contour>
      <point x="-19" y="1104" type="line"/>
      <point x="1434" y="1104" type="line"/>
      <point x="1434" y="1287" type="line"/>
      <point x="-19" y="1287" type="line"/>
    </contour>
  </outline>
</glyph>
<glyph name="ha-deva" format="2">
  <advance width="1033"/>
  <unicode hex="0939"/>
  <anchor x="716" y="-281" name="bottom"/>
  <anchor x="546" y="1167" name="candra"/>
  <anchor x="169" y="-291" name="nukta"/>
  <anchor x="762" y="1167" name="top"/>
  <outline>
    <contour>
      <point x="854" y="-203" type="line"/>
      <point x="651" y="-143"/>
      <point x="312" y="-43"/>
      <point x="303" y="183" type="curve" smooth="yes"/>
      <point x="303" y="285"/>
      <point x="349" y="374"/>
      <point x="562" y="374" type="curve" smooth="yes"/>
      <point x="698" y="374"/>
      <point x="761" y="333"/>
      <point x="761" y="272" type="curve" smooth="yes"/>
      <point x="761" y="209"/>
      <point x="686" y="182"/>
      <point x="611" y="164" type="curve"/>
      <point x="677" y="0" type="line"/>
      <point x="825" y="25"/>
      <point x="941" y="125"/>
      <point x="941" y="275" type="curve" smooth="yes"/>
      <point x="941" y="464"/>
      <point x="786" y="559"/>
      <point x="558" y="559" type="curve" smooth="yes"/>
      <point x="342" y="559"/>
      <point x="92" y="478"/>
      <point x="92" y="215" type="curve" smooth="yes"/>
      <point x="92" y="9"/>
      <point x="276" y="-250"/>
      <point x="807" y="-367" type="curve"/>
    </contour>
    <contour>
      <point x="413" y="457" type="line"/>
      <point x="358" y="549"/>
      <point x="332" y="624"/>
      <point x="333" y="669" type="curve" smooth="yes"/>
      <point x="333" y="710"/>
      <point x="356" y="745"/>
      <point x="443" y="745" type="curve" smooth="yes"/>
      <point x="867" y="745" type="line"/>
      <point x="867" y="1156" type="line"/>
      <point x="657" y="1156" type="line"/>
      <point x="657" y="932" type="line"/>
      <point x="414" y="932" type="line" smooth="yes"/>
      <point x="201" y="932"/>
      <point x="118" y="836"/>
      <point x="118" y="719" type="curve" smooth="yes"/>
      <point x="118" y="622"/>
      <point x="179" y="527"/>
      <point x="286" y="405" type="curve"/>
    </contour>
    <contour>
      <point x="-19" y="1104" type="line"/>
      <point x="1052" y="1104" type="line"/>
      <point x="1052" y="1287" type="line"/>
      <point x="-19" y="1287" type="line"/>
    </contour>
  </outline>
</glyph>
<glyph name="oeMatra-deva" format="2">
  <unicode hex="093A"/>
  <outline>
    <contour>
      <point x="165" y="1091" type="line"/>
      <point x="375" y="1091" type="line"/>
      <point x="375" y="1538" type="line"/>
      <point x="165" y="1538" type="line"/>
    </contour>
  </outline>
</glyph>
<glyph name="avagraha-deva" format="2">
  <advance width="900"/>
  <unicode hex="093D"/>
  <outline>
    <contour>
      <point x="824" y="1104" type="line"/>
      <point x="824" y="1287" type="line"/>
      <point x="435" y="1287" type="line" smooth="yes"/>
      <point x="234" y="1287"/>
      <point x="95" y="1199"/>
      <point x="95" y="982" type="curve" smooth="yes"/>
      <point x="95" y="811"/>
      <point x="184" y="729"/>
      <point x="392" y="586" type="curve" smooth="yes"/>
      <point x="550" y="478"/>
      <point x="670" y="398"/>
      <point x="668" y="275" type="curve" smooth="yes"/>
      <point x="667" y="158"/>
      <point x="608" y="109"/>
      <point x="465" y="109" type="curve" smooth="yes"/>
      <point x="328" y="109"/>
      <point x="243" y="152"/>
      <point x="103" y="231" type="curve"/>
      <point x="24" y="90" type="line"/>
      <point x="145" y="-10"/>
      <point x="307" y="-68"/>
      <point x="465" y="-68" type="curve" smooth="yes"/>
      <point x="715" y="-68"/>
      <point x="863" y="78"/>
      <point x="863" y="290" type="curve" smooth="yes"/>
      <point x="863" y="479"/>
      <point x="743" y="583"/>
      <point x="545" y="724" type="curve" smooth="yes"/>
      <point x="357" y="858"/>
      <point x="296" y="890"/>
      <point x="296" y="979" type="curve" smooth="yes"/>
      <point x="295" y="1075"/>
      <point x="366" y="1104"/>
      <point x="461" y="1104" type="curve" smooth="yes"/>
    </contour>
  </outline>
</glyph>
<glyph name="aaMatra-deva" format="2">
  <advance width="561"/>
  <unicode hex="093E"/>
  <anchor x="281" y="27" name="bottom"/>
  <anchor x="287" y="1168" name="candra"/>
  <anchor x="284" y="1167" name="top"/>
  <outline>
    <contour>
      <point x="175" y="0" type="line"/>
      <point x="385" y="0" type="line"/>
      <point x="385" y="1208" type="line"/>
      <point x="175" y="1208" type="line"/>
    </contour>
    <contour>
      <point x="-19" y="1104" type="line"/>
      <point x="580" y="1104" type="line"/>
      <point x="580" y="1287" type="line"/>
      <point x="-19" y="1287" type="line"/>
    </contour>
  </outline>
</glyph>
<glyph name="iiMatra-deva" format="2">
  <advance width="563"/>
  <unicode hex="0940"/>
  <anchor x="658" y="1219" name="candra"/>
  <anchor x="-208" y="1167" name="iimatra"/>
  <anchor x="328" y="1200" name="top"/>
  <outline>
    <contour>
      <point x="365" y="1234" type="line"/>
      <point x="227" y="1610"/>
      <point x="38" y="1809"/>
      <point x="-201" y="1809" type="curve" smooth="yes"/>
      <point x="-334" y="1809"/>
      <point x="-417" y="1729"/>
      <point x="-417" y="1609" type="curve" smooth="yes"/>
      <point x="-417" y="1506"/>
      <point x="-364" y="1416"/>
      <point x="-268" y="1352" type="curve"/>
      <point x="-170" y="1446" type="line"/>
      <point x="-213" y="1488"/>
      <point x="-241" y="1518"/>
      <point x="-241" y="1563" type="curve" smooth="yes"/>
      <point x="-241" y="1600"/>
      <point x="-220" y="1626"/>
      <point x="-176" y="1626" type="curve" smooth="yes"/>
      <point x="-10" y="1626"/>
      <point x="163" y="1354"/>
      <point x="247" y="1126" type="curve"/>
    </contour>
    <contour>
      <point x="176" y="1" type="line"/>
      <point x="386" y="1" type="line"/>
      <point x="386" y="1219" type="line"/>
      <point x="176" y="1219" type="line"/>
    </contour>
    <contour>
      <point x="-19" y="1104" type="line"/>
      <point x="582" y="1104" type="line"/>
      <point x="582" y="1287" type="line"/>
      <point x="-19" y="1287" type="line"/>
    </contour>
  </outline>
</glyph>
<glyph name="uuMatra-deva" format="2">
  <unicode hex="0942"/>
  <anchor x="270" y="27" name="_bottom"/>
  <outline>
    <contour>
      <point x="442" y="-319" type="line"/>
      <point x="378" y="-344"/>
      <point x="322" y="-360"/>
      <point x="262" y="-360" type="curve" smooth="yes"/>
      <point x="190" y="-360"/>
      <point x="151" y="-333"/>
      <point x="151" y="-249" type="curve" smooth="yes"/>
      <point x="151" y="-182"/>
      <point x="196" y="-138"/>
      <point x="299" y="-138" type="curve" smooth="yes"/>
      <point x="399" y="-138"/>
      <point x="514" y="-180"/>
      <point x="689" y="-370" type="curve"/>
      <point x="794" y="-272" type="line"/>
      <point x="595" y="-21"/>
      <point x="437" y="43"/>
      <point x="297" y="43" type="curve" smooth="yes"/>
      <point x="78" y="43"/>
      <point x="-40" y="-83"/>
      <point x="-40" y="-250" type="curve" smooth="yes"/>
      <point x="-40" y="-405"/>
      <point x="63" y="-531"/>
      <point x="263" y="-531" type="curve" smooth="yes"/>
      <point x="328" y="-531"/>
      <point x="420" y="-516"/>
      <point x="497" y="-477" type="curve"/>
    </contour>
  </outline>
</glyph>
<glyph name="rrVocalicMatra-deva" format="2">
  <unicode hex="0944"/>
  <anchor x="281" y="27" name="_bottom"/>
  <outline>
    <contour>
      <point x="557" y="-464" type="line"/>
      <point x="490" y="-506"/>
      <point x="412" y="-536"/>
      <point x="346" y="-536" type="curve" smooth="yes"/>
      <point x="280" y="-536"/>
      <point x="253" y="-509"/>
      <point x="253" y="-457" type="curve" smooth="yes"/>
      <point x="253" y="-399"/>
      <point x="305" y="-360"/>
      <point x="443" y="-344" type="curve"/>
      <point x="421" y="-192" type="line"/>
      <point x="153" y="-206"/>
      <point x="63" y="-343"/>
      <point x="63" y="-460" type="curve" smooth="yes"/>
      <point x="63" y="-598"/>
      <point x="170" y="-698"/>
      <point x="329" y="-698" type="curve" smooth="yes"/>
      <point x="437" y="-698"/>
      <point x="544" y="-663"/>
      <point x="624" y="-604" type="curve"/>
    </contour>
    <contour>
      <point x="369" y="-238" type="line"/>
      <point x="216" y="-212"/>
      <point x="183" y="-153"/>
      <point x="183" y="-101" type="curve" smooth="yes"/>
      <point x="183" y="-25"/>
      <point x="275" y="-5"/>
      <point x="377" y="0" type="curve"/>
      <point x="377" y="161" type="line"/>
      <point x="361" y="162"/>
      <point x="348" y="163"/>
      <point x="332" y="163" type="curve" smooth="yes"/>
      <point x="181" y="163"/>
      <point x="-17" y="88"/>
      <point x="-17" y="-70" type="curve" smooth="yes"/>
      <point x="-17" y="-145"/>
      <point x="1" y="-265"/>
      <point x="270" y="-315" type="curve"/>
    </contour>
  </outline>
</glyph>
<glyph name="eShortMatra-deva" format="2">
  <unicode hex="0946"/>
  <anchor x="245" y="1138" name="_top"/>
  <anchor x="609" y="1287" name="candra"/>
  <anchor x="571" y="1287" name="top"/>
  <outline>
    <contour>
      <point x="295" y="1170" type="line"/>
      <point x="346" y="1252"/>
      <point x="356" y="1305"/>
      <point x="356" y="1360" type="curve" smooth="yes"/>
      <point x="356" y="1528"/>
      <point x="262" y="1609"/>
      <point x="87" y="1632" type="curve" smooth="yes"/>
      <point x="-95" y="1658" type="line" smooth="yes"/>
      <point x="-200" y="1673"/>
      <point x="-234" y="1714"/>
      <point x="-234" y="1768" type="curve" smooth="yes"/>
      <point x="-234" y="1780"/>
      <point x="-232" y="1801"/>
      <point x="-231" y="1821" type="curve"/>
      <point x="-368" y="1841" type="line"/>
      <point x="-391" y="1790"/>
      <point x="-397" y="1751"/>
      <point x="-397" y="1719" type="curve" smooth="yes"/>
      <point x="-397" y="1609"/>
      <point x="-324" y="1505"/>
      <point x="-154" y="1479" type="curve" smooth="yes"/>
      <point x="29" y="1451" type="line" smooth="yes"/>
      <point x="149" y="1433"/>
      <point x="186" y="1408"/>
      <point x="186" y="1322" type="curve" smooth="yes"/>
      <point x="186" y="1292"/>
      <point x="181" y="1254"/>
      <point x="176" y="1203" type="curve"/>
    </contour>
  </outline>
</glyph>
<glyph name="eMatra-deva" format="2">
  <unicode hex="0947"/>
  <anchor x="270" y="1167" name="_top"/>
  <anchor x="588" y="1287" name="candra"/>
  <anchor x="585" y="1287" name="top"/>
  <outline>
    <contour>
      <point x="187" y="1214" type="line"/>
      <point x="347" y="1274" type="line"/>
      <point x="164" y="1771"/>
      <point x="104" y="1814"/>
      <point x="-202" y="1814" type="curve" smooth="yes"/>
      <point x="-248" y="1814"/>
      <point x="-295" y="1810"/>
      <point x="-369" y="1793" type="curve"/>
      <point x="-340" y="1619" type="line"/>
      <point x="-296" y="1624"/>
      <point x="-251" y="1630"/>
      <point x="-201" y="1630" type="curve" smooth="yes"/>
      <point x="-3" y="1630"/>
      <point x="39" y="1567"/>
      <point x="169" y="1256" type="curve" smooth="yes"/>
    </contour>
  </outline>
</glyph>
<glyph name="aiMatra-deva" format="2">
  <unicode hex="0948"/>
  <anchor x="223" y="1167" name="_top"/>
  <anchor x="613" y="1287" name="candra"/>
  <anchor x="616" y="1287" name="top"/>
  <outline>
    <contour>
      <point x="306" y="1251" type="line"/>
      <point x="206" y="1734"/>
      <point x="90" y="1853"/>
      <point x="-197" y="1853" type="curve" smooth="yes"/>
      <point x="-310" y="1853"/>
      <point x="-387" y="1836"/>
      <point x="-429" y="1826" type="curve"/>
      <point x="-394" y="1666" type="line"/>
      <point x="-321" y="1682"/>
      <point x="-253" y="1696"/>
      <point x="-189" y="1696" type="curve" smooth="yes"/>
      <point x="-35" y="1696"/>
      <point x="85" y="1604"/>
      <point x="186" y="1307" type="curve"/>
      <point x="219" y="1327" type="line"/>
      <point x="83" y="1488"/>
      <point x="-5" y="1560"/>
      <point x="-134" y="1560" type="curve" smooth="yes"/>
      <point x="-209" y="1560"/>
      <point x="-304" y="1550"/>
      <point x="-387" y="1528" type="curve"/>
      <point x="-350" y="1383" type="line"/>
      <point x="-272" y="1399"/>
      <point x="-209" y="1408"/>
      <point x="-139" y="1408" type="curve" smooth="yes"/>
      <point x="18" y="1408"/>
      <point x="99" y="1326"/>
      <point x="195" y="1207" type="curve"/>
    </contour>
  </outline>
</glyph>
<glyph name="halant-deva" format="2">
  <unicode hex="094D"/>
  <anchor x="136" y="27" name="_bottom"/>
  <outline>
    <contour>
      <point x="675" y="-418" type="line"/>
      <point x="411" y="-124"/>
      <point x="279" y="-56"/>
      <point x="107" y="-56" type="curve" smooth="yes"/>
      <point x="43" y="-56"/>
      <point x="-2" y="-63"/>
      <point x="-64" y="-70" type="curve"/>
      <point x="-34" y="-261" type="line"/>
      <point x="27" y="-255"/>
      <point x="66" y="-250"/>
      <point x="120" y="-250" type="curve" smooth="yes"/>
      <point x="255" y="-250"/>
      <point x="332" y="-276"/>
      <point x="579" y="-513" type="curve"/>
    </contour>
  </outline>
</glyph>
<glyph name="om-deva" format="2">
  <advance width="1910"/>
  <unicode hex="0950"/>
  <outline>
    <contour>
      <point x="777" y="443" type="line"/>
      <point x="846" y="323"/>
      <point x="908" y="293"/>
      <point x="978" y="294" type="curve"/>
      <point x="1100" y="294"/>
      <point x="1186" y="423"/>
      <point x="1275" y="567" type="curve" smooth="yes"/>
      <point x="1371" y="725"/>
      <point x="1431" y="841"/>
      <point x="1529" y="841" type="curve" smooth="yes"/>
      <point x="1607" y="841"/>
      <point x="1655" y="782"/>
      <point x="1655" y="649" type="curve" smooth="yes"/>
      <point x="1655" y="520"/>
      <point x="1609" y="457"/>
      <point x="1521" y="457" type="curve" smooth="yes"/>
      <point x="1420" y="457"/>
      <point x="1352" y="572"/>
      <point x="1319" y="743" type="curve"/>
      <point x="1209" y="608" type="line"/>
      <point x="1235" y="411"/>
      <point x="1359" y="274"/>
      <point x="1541" y="274" type="curve" smooth="yes"/>
      <point x="1729" y="274"/>
      <point x="1850" y="419"/>
      <point x="1850" y="648" type="curve" smooth="yes"/>
      <point x="1850" y="881"/>
      <point x="1726" y="1027"/>
      <point x="1538" y="1027" type="curve" smooth="yes"/>
      <point x="1372" y="1027"/>
      <point x="1278" y="912"/>
      <point x="1185" y="766" type="curve" smooth="yes"/>
      <point x="1095" y="627"/>
      <point x="1026" y="487"/>
      <point x="931" y="487" type="curve" smooth="yes"/>
      <point x="878" y="487"/>
      <point x="829" y="518"/>
      <point x="798" y="564" type="curve"/>
    </contour>
    <contour>
      <point x="347" y="704" type="line"/>
      <point x="543" y="647"/>
      <point x="639" y="575"/>
      <point x="639" y="454" type="curve" smooth="yes"/>
      <point x="639" y="336"/>
      <point x="571" y="279"/>
      <point x="462" y="279" type="curve" smooth="yes"/>
      <point x="376" y="279"/>
      <point x="249" y="315"/>
      <point x="131" y="430" type="curve"/>
      <point x="32" y="293" type="line"/>
      <point x="169" y="148"/>
      <point x="331" y="87"/>
      <point x="475" y="87" type="curve" smooth="yes"/>
      <point x="683" y="87"/>
      <point x="848" y="213"/>
      <point x="848" y="428" type="curve" smooth="yes"/>
      <point x="848" y="627"/>
      <point x="708" y="749"/>
      <point x="462" y="759" type="curve"/>
    </contour>
    <contour>
      <point x="316" y="620" type="line"/>
      <point x="328" y="619"/>
      <point x="340" y="619"/>
      <point x="354" y="620" type="curve" smooth="yes"/>
      <point x="428" y="621"/>
      <point x="529" y="634"/>
      <point x="618" y="693" type="curve" smooth="yes"/>
      <point x="724" y="758"/>
      <point x="796" y="846"/>
      <point x="796" y="992" type="curve" smooth="yes"/>
      <point x="796" y="1188"/>
      <point x="666" y="1288"/>
      <point x="463" y="1288" type="curve" smooth="yes"/>
      <point x="359" y="1288"/>
      <point x="268" y="1262"/>
      <point x="167" y="1221" type="curve"/>
      <point x="226" y="1047" type="line"/>
      <point x="329" y="1087"/>
      <point x="399" y="1101"/>
      <point x="458" y="1101" type="curve" smooth="yes"/>
      <point x="553" y="1101"/>
      <point x="604" y="1063"/>
      <point x="604" y="980" type="curve" smooth="yes"/>
      <point x="604" y="867"/>
      <point x="509" y="831"/>
      <point x="372" y="810" type="curve" smooth="yes"/>
      <point x="339" y="805"/>
      <point x="361" y="808"/>
      <point x="303" y="802" type="curve"/>
    </contour>
    <component base="candraBindu-deva" xOffset="841" yOffset="-260"/>
  </outline>
</glyph>
<glyph name="udatta-deva" format="2">
  <unicode hex="0951"/>
  <anchor x="270" y="1167" name="_top"/>
  <outline>
    <contour>
      <point x="196" y="1410" type="line"/>
      <point x="345" y="1410" type="line"/>
      <point x="345" y="1886" type="line"/>
      <point x="196" y="1886" type="line"/>
    </contour>
  </outline>
</glyph>
<glyph name="anudatta-deva" format="2">
  <unicode hex="0952"/>
  <outline>
    <contour>
      <point x="-864" y="-459" type="line"/>
      <point x="-90" y="-459" type="line"/>
      <point x="-90" y="-289" type="line"/>
      <point x="-864" y="-289" type="line"/>
    </contour>
  </outline>
</glyph>
<glyph name="ueMatra-deva" format="2">
  <unicode hex="0956"/>
  <anchor x="453" y="127" name="_bottom"/>
  <outline>
    <contour>
      <point x="510" y="53" type="line"/>
      <point x="468" y="-15"/>
      <point x="396" y="-92"/>
      <point x="269" y="-92" type="curve" smooth="yes"/>
      <point x="139" y="-92"/>
      <point x="71" y="-28"/>
      <point x="27" y="48" type="curve"/>
      <point x="-84" y="-29" type="line"/>
      <point x="-34" y="-153"/>
      <point x="89" y="-274"/>
      <point x="283" y="-274" type="curve" smooth="yes"/>
      <point x="454" y="-274"/>
      <point x="570" y="-185"/>
      <point x="645" y="-22" type="curve"/>
    </contour>
  </outline>
</glyph>
<glyph name="uueMatra-deva" format="2">
  <unicode hex="0957"/>
  <anchor x="453" y="127" name="_bottom"/>
  <outline>
    <contour>
      <point x="512" y="53" type="line"/>
      <point x="470" y="-15"/>
      <point x="398" y="-92"/>
      <point x="270" y="-92" type="curve" smooth="yes"/>
      <point x="140" y="-92"/>
      <point x="73" y="-28"/>
      <point x="29" y="48" type="curve"/>
      <point x="-83" y="-29" type="line"/>
      <point x="-32" y="-153"/>
      <point x="91" y="-274"/>
      <point x="284" y="-274" type="curve" smooth="yes"/>
      <point x="456" y="-274"/>
      <point x="572" y="-185"/>
      <point x="646" y="-22" type="curve"/>
    </contour>
    <contour>
      <point x="528" y="-273" type="line"/>
      <point x="486" y="-341"/>
      <point x="415" y="-417"/>
      <point x="287" y="-417" type="curve" smooth="yes"/>
      <point x="157" y="-417"/>
      <point x="90" y="-353"/>
      <point x="46" y="-278" type="curve"/>
      <point x="-66" y="-355" type="line"/>
      <point x="-16" y="-478"/>
      <point x="108" y="-600"/>
      <point x="301" y="-600" type="curve" smooth="yes"/>
      <point x="473" y="-600"/>
      <point x="589" y="-511"/>
      <point x="663" y="-348" type="curve"/>
    </contour>
  </outline>
</glyph>
<glyph name="llVocalicMatra-deva" format="2">
  <unicode hex="0963"/>
  <anchor x="281" y="27" name="_bottom"/>
  <outline>
    <contour>
      <point x="664" y="-477" type="line"/>
      <point x="719" y="-422"/>
      <point x="788" y="-302"/>
      <point x="788" y="-174" type="curve" smooth="yes"/>
      <point x="788" y="2"/>
      <point x="689" y="130"/>
      <point x="495" y="130" type="curve" smooth="yes"/>
      <point x="300" y="130"/>
      <point x="208" y="-12"/>
      <point x="208" y="-181" type="curve" smooth="yes"/>
      <point x="208" y="-220"/>
      <point x="212" y="-257"/>
      <point x="224" y="-292" type="curve"/>
      <point x="383" y="-276" type="line"/>
      <point x="378" y="-246"/>
      <point x="376" y="-219"/>
      <point x="376" y="-196" type="curve" smooth="yes"/>
      <point x="376" y="-106"/>
      <point x="415" y="-39"/>
      <point x="502" y="-39" type="curve" smooth="yes"/>
      <point x="582" y="-39"/>
      <point x="613" y="-106"/>
      <point x="613" y="-187" type="curve" smooth="yes"/>
      <point x="613" y="-262"/>
      <point x="570" y="-348"/>
      <point x="525" y="-401" type="curve"/>
      <point x="526" y="-408" type="line"/>
    </contour>
    <contour>
      <point x="824" y="-889" type="line"/>
      <point x="764" y="-926"/>
      <point x="694" y="-953"/>
      <point x="637" y="-953" type="curve" smooth="yes"/>
      <point x="577" y="-953"/>
      <point x="554" y="-929"/>
      <point x="554" y="-883" type="curve" smooth="yes"/>
      <point x="554" y="-831"/>
      <point x="600" y="-797"/>
      <point x="723" y="-783" type="curve"/>
      <point x="703" y="-648" type="line"/>
      <point x="465" y="-660"/>
      <point x="385" y="-781"/>
      <point x="385" y="-885" type="curve" smooth="yes"/>
      <point x="385" y="-1008"/>
      <point x="479" y="-1097"/>
      <point x="621" y="-1097" type="curve" smooth="yes"/>
      <point x="718" y="-1097"/>
      <point x="812" y="-1066"/>
      <point x="884" y="-1013" type="curve"/>
    </contour>
    <contour>
      <point x="-63" y="-512" type="line"/>
      <point x="82" y="-417" type="line"/>
      <point x="-1" y="-314"/>
      <point x="-37" y="-254"/>
      <point x="-37" y="-169" type="curve" smooth="yes"/>
      <point x="-37" y="-74"/>
      <point x="18" y="-42"/>
      <point x="79" y="-42" type="curve" smooth="yes"/>
      <point x="164" y="-42"/>
      <point x="226" y="-118"/>
      <point x="292" y="-225" type="curve"/>
      <point x="308" y="-100" type="line"/>
      <point x="247" y="59"/>
      <point x="160" y="126"/>
      <point x="36" y="126" type="curve" smooth="yes"/>
      <point x="-125" y="126"/>
      <point x="-219" y="21"/>
      <point x="-219" y="-161" type="curve" smooth="yes"/>
      <point x="-219" y="-299"/>
      <point x="-157" y="-402"/>
      <point x="-68" y="-512" type="curve"/>
    </contour>
    <contour>
      <point x="657" y="-688" type="line"/>
      <point x="521" y="-666"/>
      <point x="492" y="-613"/>
      <point x="492" y="-567" type="curve" smooth="yes"/>
      <point x="492" y="-500"/>
      <point x="573" y="-482"/>
      <point x="664" y="-477" type="curve"/>
      <point x="664" y="-334" type="line"/>
      <point x="647" y="-333"/>
      <point x="638" y="-332"/>
      <point x="624" y="-332" type="curve" smooth="yes"/>
      <point x="490" y="-332"/>
      <point x="314" y="-399"/>
      <point x="314" y="-540" type="curve" smooth="yes"/>
      <point x="314" y="-606"/>
      <point x="330" y="-713"/>
      <point x="568" y="-757" type="curve"/>
    </contour>
  </outline>
</glyph>
<glyph name="danda-deva" format="2">
  <advance width="600"/>
  <unicode hex="0964"/>
  <outline>
    <contour>
      <point x="188" y="0" type="line"/>
      <point x="399" y="0" type="line"/>
      <point x="399" y="1287" type="line"/>
      <point x="188" y="1287" type="line"/>
    </contour>
  </outline>
</glyph>
<glyph name="dbldanda-deva" format="2">
  <advance width="885"/>
  <unicode hex="0965"/>
  <outline>
    <contour>
      <point x="545" y="0" type="line"/>
      <point x="756" y="0" type="line"/>
      <point x="756" y="1287" type="line"/>
      <point x="545" y="1287" type="line"/>
    </contour>
    <contour>
      <point x="125" y="0" type="line"/>
      <point x="336" y="0" type="line"/>
      <point x="336" y="1287" type="line"/>
      <point x="125" y="1287" type="line"/>
    </contour>
  </outline>
</glyph>
<glyph name="four-deva" format="2">
  <advance width="1045"/>
  <unicode hex="096A"/>
  <outline>
    <contour>
      <point x="12" y="1068" type="line"/>
      <point x="255" y="969"/>
      <point x="681" y="724"/>
      <point x="681" y="464" type="curve" smooth="yes"/>
      <point x="681" y="345"/>
      <point x="637" y="288"/>
      <point x="526" y="288" type="curve" smooth="yes"/>
      <point x="420" y="288"/>
      <point x="366" y="338"/>
      <point x="366" y="477" type="curve" smooth="yes"/>
      <point x="366" y="740"/>
      <point x="749" y="897"/>
      <point x="978" y="967" type="curve"/>
      <point x="901" y="1137" type="line"/>
      <point x="701" y="1078"/>
      <point x="169" y="850"/>
      <point x="169" y="459" type="curve" smooth="yes"/>
      <point x="169" y="230"/>
      <point x="297" y="102"/>
      <point x="517" y="102" type="curve" smooth="yes"/>
      <point x="780" y="102"/>
      <point x="875" y="258"/>
      <point x="875" y="448" type="curve" smooth="yes"/>
      <point x="876" y="833"/>
      <point x="357" y="1125"/>
      <point x="99" y="1228" type="curve"/>
    </contour>
  </outline>
</glyph>
<glyph name="five-deva" format="2">
  <advance width="1075"/>
  <unicode hex="096B"/>
  <outline>
    <contour>
      <point x="537" y="605" type="line"/>
      <point x="720" y="348" type="line"/>
      <point x="774" y="551" type="line"/>
      <point x="676" y="424"/>
      <point x="605" y="384"/>
      <point x="484" y="384" type="curve" smooth="yes"/>
      <point x="410" y="384"/>
      <point x="307" y="424"/>
      <point x="307" y="586" type="curve" smooth="yes"/>
      <point x="307" y="755"/>
      <point x="428" y="977"/>
      <point x="600" y="1175" type="curve"/>
      <point x="425" y="1303" type="line"/>
      <point x="187" y="1026"/>
      <point x="99" y="753"/>
      <point x="99" y="569" type="curve" smooth="yes"/>
      <point x="99" y="305"/>
      <point x="266" y="187"/>
      <point x="478" y="187" type="curve" smooth="yes"/>
      <point x="725" y="187"/>
      <point x="916" y="358"/>
      <point x="907" y="508" type="curve" smooth="yes"/>
      <point x="899" y="630"/>
      <point x="761" y="682"/>
      <point x="680" y="699" type="curve"/>
    </contour>
    <contour>
      <point x="947" y="51" type="line"/>
      <point x="1116" y="191" type="line"/>
      <point x="839" y="462" type="line"/>
      <point x="708" y="364" type="line"/>
    </contour>
  </outline>
</glyph>
<glyph name="eight-deva" format="2">
  <advance width="853"/>
  <unicode hex="096E"/>
  <outline>
    <contour>
      <point x="785" y="285" type="line"/>
      <point x="685" y="248"/>
      <point x="596" y="229"/>
      <point x="518" y="230" type="curve" smooth="yes"/>
      <point x="399" y="232"/>
      <point x="290" y="275"/>
      <point x="290" y="473" type="curve" smooth="yes"/>
      <point x="290" y="664"/>
      <point x="425" y="823"/>
      <point x="750" y="1184" type="curve"/>
      <point x="595" y="1310" type="line"/>
      <point x="278" y="990"/>
      <point x="78" y="721"/>
      <point x="78" y="466" type="curve" smooth="yes"/>
      <point x="78" y="284"/>
      <point x="167" y="42"/>
      <point x="505" y="37" type="curve" smooth="yes"/>
      <point x="643" y="35"/>
      <point x="777" y="73"/>
      <point x="843" y="117" type="curve"/>
    </contour>
  </outline>
</glyph>
<glyph name="jja-deva" format="2">
  <advance width="1422"/>
  <unicode hex="097C"/>
  <anchor x="1147" y="27" name="bottom"/>
  <anchor x="743" y="1168" name="candra"/>
  <anchor x="193" y="0" name="nukta"/>
  <anchor x="1144" y="1167" name="top"/>
  <outline>
    <contour>
      <point x="147" y="-96" type="line"/>
      <point x="1247" y="-96" type="line"/>
      <point x="1247" y="74" type="line"/>
      <point x="147" y="74" type="line"/>
    </contour>
    <component base="ja-deva"/>
  </outline>
</glyph>
<glyph name="glottalstop-deva" format="2">
  <advance width="941"/>
  <unicode hex="097D"/>
  <outline>
    <contour>
      <point x="281" y="1" type="line"/>
      <point x="481" y="1" type="line"/>
      <point x="482" y="267" type="line" smooth="yes"/>
      <point x="483" y="428"/>
      <point x="521" y="455"/>
      <point x="623" y="538" type="curve" smooth="yes"/>
      <point x="807" y="688"/>
      <point x="860" y="783"/>
      <point x="860" y="955" type="curve" smooth="yes"/>
      <point x="860" y="1201"/>
      <point x="662" y="1304"/>
      <point x="431" y="1304" type="curve" smooth="yes"/>
      <point x="296" y="1304"/>
      <point x="189" y="1279"/>
      <point x="109" y="1241" type="curve"/>
      <point x="161" y="1069" type="line"/>
      <point x="241" y="1096"/>
      <point x="314" y="1123"/>
      <point x="433" y="1123" type="curve" smooth="yes"/>
      <point x="586" y="1123"/>
      <point x="661" y="1067"/>
      <point x="661" y="943" type="curve" smooth="yes"/>
      <point x="661" y="839"/>
      <point x="623" y="795"/>
      <point x="510" y="703" type="curve" smooth="yes"/>
      <point x="352" y="574"/>
      <point x="283" y="536"/>
      <point x="282" y="349" type="curve" smooth="yes"/>
    </contour>
  </outline>
</glyph>
<glyph name="ddda-deva" format="2">
  <advance width="1056"/>
  <unicode hex="097E"/>
  <anchor x="552" y="-37" name="bottom"/>
  <anchor x="536" y="1167" name="candra"/>
  <anchor x="545" y="-241" name="nukta"/>
  <anchor x="759" y="1167" name="top"/>
  <outline>
    <contour>
      <point x="97" y="-339" type="line"/>
      <point x="976" y="-339" type="line"/>
      <point x="976" y="-169" type="line"/>
      <point x="97" y="-169" type="line"/>
    </contour>
    <component base="dda-deva"/>
  </outline>
</glyph>
<glyph name="b.sups" format="2">
  <advance width="774"/>
  <unicode hex="1D47"/>
  <outline>
    <contour>
      <point x="258" y="1239" type="line"/>
      <point x="258" y="1488" type="line"/>
      <point x="98" y="1488" type="line"/>
      <point x="98" y="532" type="line"/>
      <point x="222" y="532" type="line"/>
      <point x="236" y="600" type="line"/>
      <point x="244" y="600" type="line"/>
      <point x="297" y="545"/>
      <point x="366" y="516"/>
      <point x="428" y="516" type="curve" smooth="yes"/>
      <point x="576" y="516"/>
      <point x="712" y="647"/>
      <point x="712" y="877" type="curve" smooth="yes"/>
      <point x="712" y="1080"/>
      <point x="615" y="1214"/>
      <point x="446" y="1214" type="curve" smooth="yes"/>
      <point x="375" y="1214"/>
      <point x="309" y="1177"/>
      <point x="251" y="1128" type="curve"/>
    </contour>
    <contour>
      <point x="258" y="1008" type="line"/>
      <point x="308" y="1057"/>
      <point x="356" y="1083"/>
      <point x="404" y="1083" type="curve" smooth="yes"/>
      <point x="503" y="1083"/>
      <point x="548" y="1008"/>
      <point x="548" y="875" type="curve" smooth="yes"/>
      <point x="548" y="724"/>
      <point x="482" y="645"/>
      <point x="396" y="645" type="curve" smooth="yes"/>
      <point x="355" y="645"/>
      <point x="305" y="660"/>
      <point x="258" y="700" type="curve"/>
    </contour>
  </outline>
</glyph>
<glyph name="f.sups" format="2">
  <advance width="436"/>
  <unicode hex="1DA0"/>
  <outline>
    <contour>
      <point x="128" y="532" type="line"/>
      <point x="288" y="532" type="line"/>
      <point x="288" y="1073" type="line"/>
      <point x="419" y="1073" type="line"/>
      <point x="419" y="1197" type="line"/>
      <point x="288" y="1197" type="line"/>
      <point x="288" y="1268" type="line" smooth="yes"/>
      <point x="288" y="1345"/>
      <point x="318" y="1387"/>
      <point x="372" y="1387" type="curve" smooth="yes"/>
      <point x="402" y="1387"/>
      <point x="427" y="1380"/>
      <point x="445" y="1375" type="curve"/>
      <point x="477" y="1490" type="line"/>
      <point x="442" y="1504"/>
      <point x="402" y="1513"/>
      <point x="353" y="1513" type="curve" smooth="yes"/>
      <point x="193" y="1513"/>
      <point x="128" y="1400"/>
      <point x="128" y="1260" type="curve" smooth="yes"/>
      <point x="128" y="1197" type="line"/>
      <point x="36" y="1191" type="line"/>
      <point x="36" y="1073" type="line"/>
      <point x="128" y="1073" type="line"/>
    </contour>
  </outline>
</glyph>
<glyph name="Germandbls" format="2">
  <advance width="1389"/>
  <unicode hex="1E9E"/>
  <anchor x="740" y="-200" name="btm"/>
  <anchor x="740" y="800" name="top"/>
  <outline>
    <contour>
      <point x="1187" y="1027" type="line"/>
      <point x="1118" y="1230"/>
      <point x="961" y="1365"/>
      <point x="718" y="1365" type="curve" smooth="yes"/>
      <point x="344" y="1365"/>
      <point x="175" y="1139"/>
      <point x="175" y="848" type="curve"/>
      <point x="175" y="0" type="line"/>
      <point x="395" y="0" type="line"/>
      <point x="395" y="813" type="line" smooth="yes"/>
      <point x="395" y="1066"/>
      <point x="510" y="1185"/>
      <point x="711" y="1185" type="curve" smooth="yes"/>
      <point x="839" y="1185"/>
      <point x="921" y="1116"/>
      <point x="962" y="1035" type="curve"/>
      <point x="703" y="743" type="line"/>
      <point x="718" y="608" type="line"/>
      <point x="998" y="559"/>
      <point x="1080" y="466"/>
      <point x="1080" y="356" type="curve" smooth="yes"/>
      <point x="1080" y="239"/>
      <point x="1006" y="157"/>
      <point x="884" y="157" type="curve" smooth="yes"/>
      <point x="801" y="157"/>
      <point x="726" y="189"/>
      <point x="653" y="267" type="curve"/>
      <point x="533" y="128" type="line"/>
      <point x="613" y="42"/>
      <point x="743" y="-25"/>
      <point x="907" y="-25" type="curve" smooth="yes"/>
      <point x="1156" y="-25"/>
      <point x="1306" y="140"/>
      <point x="1306" y="356" type="curve" smooth="yes"/>
      <point x="1306" y="553"/>
      <point x="1180" y="679"/>
      <point x="928" y="739" type="curve"/>
    </contour>
  </outline>
</glyph>
<glyph name="emdash" format="2">
  <advance width="1638"/>
  <unicode hex="2014"/>
  <outline>
    <contour>
      <point x="86" y="444" type="line"/>
      <point x="1552" y="444" type="line"/>
      <point x="1552" y="589" type="line"/>
      <point x="86" y="589" type="line"/>
    </contour>
  </outline>
</glyph>
<glyph name="dagger" format="2">
  <advance width="974"/>
  <unicode hex="2020"/>
  <outline>
    <contour>
      <point x="396" y="-164" type="line"/>
      <point x="577" y="-164" type="line"/>
      <point x="564" y="964" type="line"/>
      <point x="871" y="951" type="line"/>
      <point x="871" y="1134" type="line"/>
      <point x="564" y="1120" type="line"/>
      <point x="577" y="1458" type="line"/>
      <point x="396" y="1458" type="line"/>
      <point x="409" y="1120" type="line"/>
      <point x="103" y="1134" type="line"/>
      <point x="103" y="951" type="line"/>
      <point x="409" y="964" type="line"/>
    </contour>
  </outline>
</glyph>
<glyph name="perthousand" format="2">
  <advance width="2488"/>
  <unicode hex="2030"/>
  <outline>
    <contour>
      <point x="418" y="-25" type="line"/>
      <point x="555" y="-25" type="line"/>
      <point x="1289" y="1365" type="line"/>
      <point x="1151" y="1365" type="line"/>
    </contour>
    <contour>
      <point x="380" y="517" type="curve" smooth="yes"/>
      <point x="566" y="517"/>
      <point x="696" y="674"/>
      <point x="696" y="943" type="curve" smooth="yes"/>
      <point x="696" y="1212"/>
      <point x="566" y="1365"/>
      <point x="380" y="1365" type="curve" smooth="yes"/>
      <point x="193" y="1365"/>
      <point x="65" y="1212"/>
      <point x="65" y="943" type="curve" smooth="yes"/>
      <point x="65" y="674"/>
      <point x="193" y="517"/>
    </contour>
    <contour>
      <point x="380" y="646" type="curve" smooth="yes"/>
      <point x="288" y="646"/>
      <point x="223" y="739"/>
      <point x="223" y="943" type="curve" smooth="yes"/>
      <point x="223" y="1148"/>
      <point x="288" y="1237"/>
      <point x="380" y="1237" type="curve" smooth="yes"/>
      <point x="470" y="1237"/>
      <point x="536" y="1148"/>
      <point x="536" y="943" type="curve" smooth="yes"/>
      <point x="536" y="739"/>
      <point x="470" y="646"/>
    </contour>
    <contour>
      <point x="1330" y="-25" type="curve" smooth="yes"/>
      <point x="1518" y="-25"/>
      <point x="1646" y="131"/>
      <point x="1646" y="401" type="curve" smooth="yes"/>
      <point x="1646" y="669"/>
      <point x="1518" y="823"/>
      <point x="1330" y="823" type="curve" smooth="yes"/>
      <point x="1144" y="823"/>
      <point x="1014" y="669"/>
      <point x="1014" y="401" type="curve" smooth="yes"/>
      <point x="1014" y="131"/>
      <point x="1144" y="-25"/>
    </contour>
    <contour>
      <point x="1330" y="104" type="curve" smooth="yes"/>
      <point x="1239" y="104"/>
      <point x="1174" y="197"/>
      <point x="1174" y="401" type="curve" smooth="yes"/>
      <point x="1174" y="606"/>
      <point x="1239" y="695"/>
      <point x="1330" y="695" type="curve" smooth="yes"/>
      <point x="1422" y="695"/>
      <point x="1488" y="606"/>
      <point x="1488" y="401" type="curve" smooth="yes"/>
      <point x="1488" y="197"/>
      <point x="1422" y="104"/>
    </contour>
    <contour>
      <point x="2108" y="-25" type="curve" smooth="yes"/>
      <point x="2296" y="-25"/>
      <point x="2425" y="131"/>
      <point x="2425" y="401" type="curve" smooth="yes"/>
      <point x="2425" y="669"/>
      <point x="2296" y="823"/>
      <point x="2108" y="823" type="curve" smooth="yes"/>
      <point x="1921" y="823"/>
      <point x="1792" y="669"/>
      <point x="1792" y="401" type="curve" smooth="yes"/>
      <point x="1792" y="131"/>
      <point x="1921" y="-25"/>
    </contour>
    <contour>
      <point x="2108" y="104" type="curve" smooth="yes"/>
      <point x="2018" y="104"/>
      <point x="1952" y="197"/>
      <point x="1952" y="401" type="curve" smooth="yes"/>
      <point x="1952" y="606"/>
      <point x="2018" y="695"/>
      <point x="2108" y="695" type="curve" smooth="yes"/>
      <point x="2200" y="695"/>
      <point x="2266" y="606"/>
      <point x="2266" y="401" type="curve" smooth="yes"/>
      <point x="2266" y="197"/>
      <point x="2200" y="104"/>
    </contour>
  </outline>
</glyph>
<glyph name="guilsinglleft" format="2">
  <advance width="571"/>
  <unicode hex="2039"/>
  <outline>
    <contour>
      <point x="373" y="127" type="line"/>
      <point x="460" y="198" type="line"/>
      <point x="225" y="516" type="line"/>
      <point x="460" y="833" type="line"/>
      <point x="373" y="905" type="line"/>
      <point x="95" y="596" type="line"/>
      <point x="95" y="437" type="line"/>
    </contour>
  </outline>
</glyph>
<glyph name="fraction" format="2">
  <advance width="184"/>
  <unicode hex="2044"/>
  <outline>
    <contour>
      <point x="-305" y="-25" type="line"/>
      <point x="-168" y="-25" type="line"/>
      <point x="496" y="1365" type="line"/>
      <point x="358" y="1365" type="line"/>
    </contour>
  </outline>
</glyph>
<glyph name="four.sups" format="2">
  <advance width="759"/>
  <unicode hex="2074"/>
  <outline>
    <contour>
      <point x="446" y="901" type="line"/>
      <point x="594" y="901" type="line"/>
      <point x="594" y="1101" type="line"/>
      <point x="713" y="1101" type="line"/>
      <point x="713" y="1214" type="line"/>
      <point x="594" y="1214" type="line"/>
      <point x="594" y="1700" type="line"/>
      <point x="398" y="1700" type="line"/>
      <point x="81" y="1185" type="line"/>
      <point x="81" y="1101" type="line"/>
      <point x="446" y="1101" type="line"/>
    </contour>
    <contour>
      <point x="242" y="1214" type="line"/>
      <point x="353" y="1401" type="line"/>
      <point x="448" y="1564" type="line"/>
      <point x="456" y="1564" type="line"/>
      <point x="446" y="1335" type="line"/>
      <point x="446" y="1214" type="line"/>
    </contour>
  </outline>
</glyph>
<glyph name="five.sups" format="2">
  <advance width="759"/>
  <unicode hex="2075"/>
  <outline>
    <contour>
      <point x="315" y="1558" type="line"/>
      <point x="636" y="1558" type="line"/>
      <point x="636" y="1700" type="line"/>
      <point x="181" y="1700" type="line"/>
      <point x="145" y="1310" type="line"/>
      <point x="221" y="1256" type="line"/>
      <point x="262" y="1292"/>
      <point x="302" y="1314"/>
      <point x="359" y="1314" type="curve" smooth="yes"/>
      <point x="445" y="1314"/>
      <point x="509" y="1257"/>
      <point x="509" y="1160" type="curve" smooth="yes"/>
      <point x="509" y="1072"/>
      <point x="448" y="1005"/>
      <point x="364" y="1005" type="curve" smooth="yes"/>
      <point x="280" y="1005"/>
      <point x="222" y="1045"/>
      <point x="171" y="1116" type="curve"/>
      <point x="66" y="1034" type="line"/>
      <point x="132" y="939"/>
      <point x="236" y="877"/>
      <point x="378" y="877" type="curve" smooth="yes"/>
      <point x="547" y="877"/>
      <point x="673" y="991"/>
      <point x="673" y="1154" type="curve" smooth="yes"/>
      <point x="673" y="1322"/>
      <point x="554" y="1419"/>
      <point x="412" y="1419" type="curve" smooth="yes"/>
      <point x="374" y="1419"/>
      <point x="333" y="1409"/>
      <point x="296" y="1396" type="curve"/>
    </contour>
  </outline>
</glyph>
<glyph name="six.sups" format="2">
  <advance width="759"/>
  <unicode hex="2076"/>
  <outline>
    <contour>
      <point x="653" y="1654" type="line"/>
      <point x="607" y="1690"/>
      <point x="543" y="1724"/>
      <point x="442" y="1724" type="curve" smooth="yes"/>
      <point x="231" y="1724"/>
      <point x="85" y="1569"/>
      <point x="85" y="1286" type="curve" smooth="yes"/>
      <point x="85" y="1033"/>
      <point x="207" y="877"/>
      <point x="406" y="877" type="curve" smooth="yes"/>
      <point x="561" y="877"/>
      <point x="679" y="995"/>
      <point x="679" y="1152" type="curve" smooth="yes"/>
      <point x="679" y="1304"/>
      <point x="586" y="1406"/>
      <point x="429" y="1406" type="curve" smooth="yes"/>
      <point x="358" y="1406"/>
      <point x="293" y="1379"/>
      <point x="240" y="1329" type="curve"/>
      <point x="254" y="1505"/>
      <point x="333" y="1596"/>
      <point x="450" y="1596" type="curve" smooth="yes"/>
      <point x="506" y="1596"/>
      <point x="548" y="1572"/>
      <point x="587" y="1545" type="curve"/>
    </contour>
    <contour>
      <point x="401" y="1005" type="curve" smooth="yes"/>
      <point x="317" y="1005"/>
      <point x="252" y="1072"/>
      <point x="240" y="1213" type="curve"/>
      <point x="293" y="1268"/>
      <point x="341" y="1290"/>
      <point x="393" y="1290" type="curve" smooth="yes"/>
      <point x="481" y="1290"/>
      <point x="528" y="1233"/>
      <point x="528" y="1148" type="curve" smooth="yes"/>
      <point x="528" y="1060"/>
      <point x="474" y="1005"/>
    </contour>
  </outline>
</glyph>
<glyph name="seven.sups" format="2">
  <advance width="759"/>
  <unicode hex="2077"/>
  <outline>
    <contour>
      <point x="432" y="901" type="line"/>
      <point x="447" y="1177"/>
      <point x="488" y="1367"/>
      <point x="678" y="1609" type="curve"/>
      <point x="678" y="1700" type="line"/>
      <point x="102" y="1700" type="line"/>
      <point x="102" y="1560" type="line"/>
      <point x="493" y="1560" type="line"/>
      <point x="338" y="1341"/>
      <point x="273" y="1167"/>
      <point x="257" y="901" type="curve"/>
    </contour>
  </outline>
</glyph>
<glyph name="seven.subs" format="2">
  <advance width="759"/>
  <unicode hex="2087"/>
  <outline>
    <contour>
      <point x="432" y="-462" type="line"/>
      <point x="447" y="-185"/>
      <point x="488" y="4"/>
      <point x="678" y="247" type="curve"/>
      <point x="678" y="337" type="line"/>
      <point x="102" y="337" type="line"/>
      <point x="102" y="198" type="line"/>
      <point x="493" y="198" type="line"/>
      <point x="338" y="-21"/>
      <point x="273" y="-197"/>
      <point x="257" y="-462" type="curve"/>
    </contour>
  </outline>
</glyph>
<glyph name="eight.subs" format="2">
  <advance width="759"/>
  <unicode hex="2088"/>
  <outline>
    <contour>
      <point x="522" y="-39" type="line"/>
      <point x="580" y="-2"/>
      <point x="643" y="61"/>
      <point x="643" y="148" type="curve" smooth="yes"/>
      <point x="643" y="279"/>
      <point x="526" y="361"/>
      <point x="378" y="361" type="curve" smooth="yes"/>
      <point x="234" y="361"/>
      <point x="118" y="278"/>
      <point x="118" y="148" type="curve" smooth="yes"/>
      <point x="118" y="64"/>
      <point x="167" y="11"/>
      <point x="237" y="-36" type="curve"/>
      <point x="237" y="-45" type="line"/>
      <point x="161" y="-87"/>
      <point x="87" y="-163"/>
      <point x="87" y="-260" type="curve" smooth="yes"/>
      <point x="87" y="-384"/>
      <point x="205" y="-487"/>
      <point x="378" y="-487" type="curve" smooth="yes"/>
      <point x="546" y="-487"/>
      <point x="668" y="-385"/>
      <point x="668" y="-257" type="curve" smooth="yes"/>
      <point x="668" y="-158"/>
      <point x="609" y="-91"/>
      <point x="522" y="-47" type="curve"/>
    </contour>
    <contour>
      <point x="378" y="-370" type="curve" smooth="yes"/>
      <point x="296" y="-370"/>
      <point x="239" y="-312"/>
      <point x="239" y="-245" type="curve" smooth="yes"/>
      <point x="239" y="-187"/>
      <point x="273" y="-135"/>
      <point x="334" y="-98" type="curve"/>
      <point x="432" y="-140"/>
      <point x="517" y="-162"/>
      <point x="517" y="-247" type="curve" smooth="yes"/>
      <point x="517" y="-314"/>
      <point x="455" y="-370"/>
    </contour>
    <contour>
      <point x="419" y="7" type="curve"/>
      <point x="335" y="37"/>
      <point x="267" y="72"/>
      <point x="267" y="144" type="curve" smooth="yes"/>
      <point x="267" y="201"/>
      <point x="316" y="243"/>
      <point x="377" y="243" type="curve" smooth="yes"/>
      <point x="441" y="243"/>
      <point x="492" y="203"/>
      <point x="492" y="138" type="curve" smooth="yes"/>
      <point x="492" y="94"/>
      <point x="469" y="48"/>
    </contour>
  </outline>
</glyph>
<glyph name="nine.subs" format="2">
  <advance width="759"/>
  <unicode hex="2089"/>
  <outline>
    <contour>
      <point x="102" y="-415" type="line"/>
      <point x="149" y="-453"/>
      <point x="212" y="-487"/>
      <point x="313" y="-487" type="curve" smooth="yes"/>
      <point x="525" y="-487"/>
      <point x="671" y="-330"/>
      <point x="671" y="-47" type="curve" smooth="yes"/>
      <point x="671" y="206"/>
      <point x="550" y="361"/>
      <point x="349" y="361" type="curve" smooth="yes"/>
      <point x="196" y="361"/>
      <point x="77" y="243"/>
      <point x="77" y="86" type="curve" smooth="yes"/>
      <point x="77" y="-65"/>
      <point x="169" y="-167"/>
      <point x="327" y="-167" type="curve" smooth="yes"/>
      <point x="399" y="-167"/>
      <point x="463" y="-140"/>
      <point x="516" y="-90" type="curve"/>
      <point x="502" y="-267"/>
      <point x="424" y="-358"/>
      <point x="305" y="-358" type="curve" smooth="yes"/>
      <point x="250" y="-358"/>
      <point x="208" y="-335"/>
      <point x="169" y="-307" type="curve"/>
    </contour>
    <contour>
      <point x="361" y="-52" type="curve" smooth="yes"/>
      <point x="275" y="-52"/>
      <point x="227" y="5"/>
      <point x="227" y="91" type="curve" smooth="yes"/>
      <point x="227" y="179"/>
      <point x="281" y="233"/>
      <point x="353" y="233" type="curve" smooth="yes"/>
      <point x="438" y="233"/>
      <point x="503" y="167"/>
      <point x="516" y="25" type="curve"/>
      <point x="464" y="-29"/>
      <point x="416" y="-52"/>
    </contour>
  </outline>
</glyph>
<glyph name="parenleft.subs" format="2">
  <advance width="509"/>
  <unicode hex="208D"/>
  <outline>
    <contour>
      <point x="433" y="-578" type="line"/>
      <point x="333" y="-414"/>
      <point x="290" y="-245"/>
      <point x="290" y="-62" type="curve" smooth="yes"/>
      <point x="290" y="121"/>
      <point x="333" y="291"/>
      <point x="433" y="452" type="curve"/>
      <point x="314" y="506" type="line"/>
      <point x="197" y="334"/>
      <point x="131" y="173"/>
      <point x="131" y="-62" type="curve" smooth="yes"/>
      <point x="131" y="-299"/>
      <point x="197" y="-460"/>
      <point x="314" y="-631" type="curve"/>
    </contour>
  </outline>
</glyph>
<glyph name="parenright.subs" format="2">
  <advance width="509"/>
  <unicode hex="208E"/>
  <outline>
    <contour>
      <point x="199" y="-631" type="line"/>
      <point x="313" y="-460"/>
      <point x="378" y="-299"/>
      <point x="378" y="-62" type="curve" smooth="yes"/>
      <point x="378" y="173"/>
      <point x="313" y="334"/>
      <point x="199" y="506" type="curve"/>
      <point x="77" y="452" type="line"/>
      <point x="176" y="291"/>
      <point x="220" y="121"/>
      <point x="220" y="-62" type="curve" smooth="yes"/>
      <point x="220" y="-245"/>
      <point x="176" y="-414"/>
      <point x="77" y="-578" type="curve"/>
    </contour>
  </outline>
</glyph>
<glyph name="naira" format="2">
  <advance width="1042"/>
  <unicode hex="20A6"/>
  <outline>
    <contour>
      <point x="166" y="0" type="line"/>
      <point x="331" y="0" type="line"/>
      <point x="331" y="489" type="line"/>
      <point x="495" y="489" type="line"/>
      <point x="664" y="0" type="line"/>
      <point x="876" y="0" type="line"/>
      <point x="876" y="489" type="line"/>
      <point x="1021" y="489" type="line"/>
      <point x="1021" y="588" type="line"/>
      <point x="876" y="588" type="line"/>
      <point x="876" y="701" type="line"/>
      <point x="1021" y="701" type="line"/>
      <point x="1021" y="800" type="line"/>
      <point x="876" y="800" type="line"/>
      <point x="876" y="1304" type="line"/>
      <point x="711" y="1304" type="line"/>
      <point x="711" y="800" type="line"/>
      <point x="554" y="800" type="line"/>
      <point x="379" y="1304" type="line"/>
      <point x="166" y="1304" type="line"/>
      <point x="166" y="800" type="line"/>
      <point x="17" y="789" type="line"/>
      <point x="17" y="701" type="line"/>
      <point x="166" y="701" type="line"/>
      <point x="166" y="588" type="line"/>
      <point x="17" y="577" type="line"/>
      <point x="17" y="489" type="line"/>
      <point x="166" y="489" type="line"/>
    </contour>
    <contour>
      <point x="744" y="179" type="line"/>
      <point x="652" y="489" type="line"/>
      <point x="728" y="489" type="line"/>
      <point x="752" y="179" type="line"/>
    </contour>
    <contour>
      <point x="328" y="588" type="line"/>
      <point x="323" y="701" type="line"/>
      <point x="425" y="701" type="line"/>
      <point x="462" y="588" type="line"/>
    </contour>
    <contour>
      <point x="622" y="588" type="line"/>
      <point x="586" y="701" type="line"/>
      <point x="714" y="701" type="line"/>
      <point x="720" y="588" type="line"/>
    </contour>
    <contour>
      <point x="315" y="800" type="line"/>
      <point x="289" y="1124" type="line"/>
      <point x="298" y="1124" type="line"/>
      <point x="395" y="800" type="line"/>
    </contour>
  </outline>
</glyph>
<glyph name="peseta" format="2">
  <advance width="1042"/>
  <unicode hex="20A7"/>
  <outline>
    <contour>
      <point x="156" y="0" type="line"/>
      <point x="365" y="0" type="line"/>
      <point x="365" y="475" type="line"/>
      <point x="444" y="475" type="line" smooth="yes"/>
      <point x="676" y="475"/>
      <point x="865" y="588"/>
      <point x="895" y="825" type="curve"/>
      <point x="1018" y="825" type="line"/>
      <point x="1018" y="967" type="line"/>
      <point x="894" y="967" type="line"/>
      <point x="864" y="1213"/>
      <point x="679" y="1304"/>
      <point x="444" y="1304" type="curve" smooth="yes"/>
      <point x="156" y="1304" type="line"/>
      <point x="156" y="967" type="line"/>
      <point x="15" y="956" type="line"/>
      <point x="15" y="825" type="line"/>
      <point x="156" y="825" type="line"/>
    </contour>
    <contour>
      <point x="365" y="619" type="line"/>
      <point x="365" y="825" type="line"/>
      <point x="687" y="825" type="line"/>
      <point x="667" y="692"/>
      <point x="573" y="619"/>
      <point x="424" y="619" type="curve"/>
    </contour>
    <contour>
      <point x="365" y="967" type="line"/>
      <point x="365" y="1160" type="line"/>
      <point x="424" y="1160" type="line" smooth="yes"/>
      <point x="573" y="1160"/>
      <point x="665" y="1105"/>
      <point x="687" y="967" type="curve"/>
    </contour>
  </outline>
</glyph>
<glyph name="dong" format="2">
  <advance width="1042"/>
  <unicode hex="20AB"/>
  <outline>
    <contour>
      <point x="695" y="333" type="line"/>
      <point x="710" y="251" type="line"/>
      <point x="861" y="251" type="line"/>
      <point x="861" y="1108" type="line"/>
      <point x="1017" y="1119" type="line"/>
      <point x="1017" y="1228" type="line"/>
      <point x="861" y="1228" type="line"/>
      <point x="861" y="1351" type="line"/>
      <point x="678" y="1351" type="line"/>
      <point x="678" y="1228" type="line"/>
      <point x="381" y="1228" type="line"/>
      <point x="381" y="1108" type="line"/>
      <point x="678" y="1108" type="line"/>
      <point x="678" y="1053" type="line"/>
      <point x="686" y="896" type="line"/>
      <point x="623" y="953"/>
      <point x="568" y="984"/>
      <point x="472" y="984" type="curve" smooth="yes"/>
      <point x="303" y="984"/>
      <point x="137" y="845"/>
      <point x="137" y="618" type="curve" smooth="yes"/>
      <point x="137" y="368"/>
      <point x="263" y="230"/>
      <point x="462" y="230" type="curve" smooth="yes"/>
      <point x="554" y="230"/>
      <point x="632" y="273"/>
      <point x="689" y="333" type="curve"/>
    </contour>
    <contour>
      <point x="161" y="0" type="line"/>
      <point x="928" y="0" type="line"/>
      <point x="928" y="120" type="line"/>
      <point x="161" y="120" type="line"/>
    </contour>
    <contour>
      <point x="678" y="476" type="line"/>
      <point x="620" y="409"/>
      <point x="566" y="380"/>
      <point x="502" y="380" type="curve" smooth="yes"/>
      <point x="392" y="380"/>
      <point x="326" y="465"/>
      <point x="326" y="618" type="curve" smooth="yes"/>
      <point x="326" y="743"/>
      <point x="412" y="831"/>
      <point x="511" y="831" type="curve" smooth="yes"/>
      <point x="576" y="831"/>
      <point x="620" y="810"/>
      <point x="678" y="759" type="curve"/>
    </contour>
  </outline>
</glyph>
<glyph name="peso" format="2">
  <advance width="1042"/>
  <unicode hex="20B1"/>
  <outline>
    <contour>
      <point x="156" y="0" type="line"/>
      <point x="365" y="0" type="line"/>
      <point x="365" y="475" type="line"/>
      <point x="444" y="475" type="line" smooth="yes"/>
      <point x="650" y="475"/>
      <point x="821" y="563"/>
      <point x="878" y="748" type="curve"/>
      <point x="1018" y="748" type="line"/>
      <point x="1018" y="845" type="line"/>
      <point x="896" y="845" type="line"/>
      <point x="898" y="860"/>
      <point x="898" y="876"/>
      <point x="898" y="892" type="curve" smooth="yes"/>
      <point x="898" y="915"/>
      <point x="897" y="935"/>
      <point x="895" y="955" type="curve"/>
      <point x="1018" y="955" type="line"/>
      <point x="1018" y="1052" type="line"/>
      <point x="877" y="1052" type="line"/>
      <point x="816" y="1235"/>
      <point x="650" y="1304"/>
      <point x="444" y="1304" type="curve" smooth="yes"/>
      <point x="156" y="1304" type="line"/>
      <point x="156" y="1051" type="line"/>
      <point x="15" y="1043" type="line"/>
      <point x="15" y="955" type="line"/>
      <point x="156" y="955" type="line"/>
      <point x="156" y="844" type="line"/>
      <point x="15" y="834" type="line"/>
      <point x="15" y="748" type="line"/>
      <point x="156" y="748" type="line"/>
    </contour>
    <contour>
      <point x="365" y="619" type="line"/>
      <point x="365" y="748" type="line"/>
      <point x="663" y="748" type="line"/>
      <point x="624" y="664"/>
      <point x="543" y="619"/>
      <point x="424" y="619" type="curve"/>
    </contour>
    <contour>
      <point x="365" y="845" type="line"/>
      <point x="365" y="955" type="line"/>
      <point x="690" y="955" type="line"/>
      <point x="692" y="936"/>
      <point x="694" y="915"/>
      <point x="694" y="892" type="curve" smooth="yes"/>
      <point x="694" y="876"/>
      <point x="692" y="860"/>
      <point x="690" y="845" type="curve"/>
    </contour>
    <contour>
      <point x="365" y="1052" type="line"/>
      <point x="365" y="1160" type="line"/>
      <point x="424" y="1160" type="line" smooth="yes"/>
      <point x="539" y="1160"/>
      <point x="619" y="1129"/>
      <point x="660" y="1052" type="curve"/>
    </contour>
  </outline>
</glyph>
<glyph name="literSign" format="2">
  <advance width="886"/>
  <unicode hex="2113"/>
  <outline>
    <contour>
      <point x="797" y="249" type="line"/>
      <point x="748" y="204"/>
      <point x="690" y="159"/>
      <point x="607" y="159" type="curve" smooth="yes"/>
      <point x="512" y="159"/>
      <point x="434" y="224"/>
      <point x="434" y="394" type="curve" smooth="yes"/>
      <point x="434" y="458" type="line"/>
      <point x="701" y="672"/>
      <point x="841" y="889"/>
      <point x="841" y="1145" type="curve" smooth="yes"/>
      <point x="841" y="1355"/>
      <point x="724" y="1475"/>
      <point x="551" y="1475" type="curve" smooth="yes"/>
      <point x="361" y="1475"/>
      <point x="220" y="1338"/>
      <point x="220" y="1010" type="curve" smooth="yes"/>
      <point x="220" y="499" type="line"/>
      <point x="162" y="458"/>
      <point x="100" y="417"/>
      <point x="34" y="374" type="curve"/>
      <point x="119" y="239" type="line"/>
      <point x="155" y="261"/>
      <point x="190" y="285"/>
      <point x="224" y="307" type="curve"/>
      <point x="225" y="292"/>
      <point x="228" y="277"/>
      <point x="231" y="263" type="curve" smooth="yes"/>
      <point x="269" y="72"/>
      <point x="411" y="-25"/>
      <point x="576" y="-25" type="curve" smooth="yes"/>
      <point x="704" y="-25"/>
      <point x="803" y="46"/>
      <point x="880" y="115" type="curve"/>
    </contour>
    <contour>
      <point x="434" y="1043" type="line" smooth="yes"/>
      <point x="434" y="1232"/>
      <point x="493" y="1311"/>
      <point x="557" y="1311" type="curve" smooth="yes"/>
      <point x="617" y="1311"/>
      <point x="660" y="1261"/>
      <point x="660" y="1145" type="curve" smooth="yes"/>
      <point x="660" y="972"/>
      <point x="579" y="819"/>
      <point x="434" y="675" type="curve"/>
    </contour>
  </outline>
</glyph>
<glyph name="published" format="2">
  <advance width="1527"/>
  <unicode hex="2117"/>
  <outline>
    <contour>
      <point x="767" y="-49" type="curve" smooth="yes"/>
      <point x="1140" y="-49"/>
      <point x="1459" y="226"/>
      <point x="1459" y="663" type="curve" smooth="yes"/>
      <point x="1459" y="1099"/>
      <point x="1140" y="1367"/>
      <point x="767" y="1367" type="curve" smooth="yes"/>
      <point x="395" y="1367"/>
      <point x="74" y="1100"/>
      <point x="74" y="663" type="curve" smooth="yes"/>
      <point x="74" y="226"/>
      <point x="395" y="-49"/>
    </contour>
    <contour>
      <point x="766" y="54" type="curve" smooth="yes"/>
      <point x="448" y="54"/>
      <point x="189" y="298"/>
      <point x="189" y="663" type="curve" smooth="yes"/>
      <point x="189" y="1027"/>
      <point x="448" y="1266"/>
      <point x="766" y="1266" type="curve" smooth="yes"/>
      <point x="1086" y="1266"/>
      <point x="1345" y="1027"/>
      <point x="1345" y="663" type="curve" smooth="yes"/>
      <point x="1345" y="298"/>
      <point x="1086" y="54"/>
    </contour>
    <contour>
      <point x="507" y="283" type="line"/>
      <point x="672" y="283" type="line"/>
      <point x="672" y="499" type="line"/>
      <point x="795" y="499" type="line" smooth="yes"/>
      <point x="972" y="499"/>
      <point x="1117" y="588"/>
      <point x="1117" y="777" type="curve" smooth="yes"/>
      <point x="1117" y="955"/>
      <point x="976" y="1027"/>
      <point x="795" y="1027" type="curve"/>
      <point x="507" y="1027" type="line"/>
    </contour>
    <contour>
      <point x="672" y="621" type="line"/>
      <point x="672" y="901" type="line"/>
      <point x="775" y="901" type="line" smooth="yes"/>
      <point x="888" y="901"/>
      <point x="954" y="863"/>
      <point x="954" y="772" type="curve" smooth="yes"/>
      <point x="954" y="668"/>
      <point x="891" y="621"/>
      <point x="775" y="621" type="curve"/>
    </contour>
  </outline>
</glyph>
<glyph name="trademark" format="2">
  <advance width="1340"/>
  <unicode hex="2122"/>
  <outline>
    <contour>
      <point x="680" y="747" type="line"/>
      <point x="826" y="747" type="line"/>
      <point x="826" y="995" type="line"/>
      <point x="808" y="1218" type="line"/>
      <point x="817" y="1218" type="line"/>
      <point x="949" y="843" type="line"/>
      <point x="1057" y="843" type="line"/>
      <point x="1189" y="1218" type="line"/>
      <point x="1197" y="1218" type="line"/>
      <point x="1180" y="995" type="line"/>
      <point x="1180" y="747" type="line"/>
      <point x="1325" y="747" type="line"/>
      <point x="1325" y="1384" type="line"/>
      <point x="1144" y="1384" type="line"/>
      <point x="1057" y="1172" type="line"/>
      <point x="1007" y="1020" type="line"/>
      <point x="999" y="1020" type="line"/>
      <point x="949" y="1172" type="line"/>
      <point x="861" y="1384" type="line"/>
      <point x="680" y="1384" type="line"/>
    </contour>
    <contour>
      <point x="200" y="747" type="line"/>
      <point x="351" y="747" type="line"/>
      <point x="351" y="1248" type="line"/>
      <point x="545" y="1248" type="line"/>
      <point x="545" y="1384" type="line"/>
      <point x="7" y="1384" type="line"/>
      <point x="7" y="1248" type="line"/>
      <point x="200" y="1248" type="line"/>
    </contour>
  </outline>
</glyph>
<glyph name="arrowright" format="2">
  <advance width="1266"/>
  <unicode hex="2192"/>
  <outline>
    <contour>
      <point x="651" y="-33" type="line"/>
      <point x="1214" y="512" type="line"/>
      <point x="1214" y="520" type="line"/>
      <point x="651" y="1065" type="line"/>
      <point x="541" y="943" type="line"/>
      <point x="909" y="606" type="line"/>
      <point x="81" y="606" type="line"/>
      <point x="81" y="426" type="line"/>
      <point x="909" y="426" type="line"/>
      <point x="541" y="89" type="line"/>
    </contour>
  </outline>
</glyph>
<glyph name="arrowdown" format="2">
  <advance width="1266"/>
  <unicode hex="2193"/>
  <outline>
    <contour>
      <point x="628" y="-52" type="line"/>
      <point x="636" y="-52" type="line"/>
      <point x="1183" y="511" type="line"/>
      <point x="1060" y="619" type="line"/>
      <point x="721" y="247" type="line"/>
      <point x="721" y="1081" type="line"/>
      <point x="544" y="1081" type="line"/>
      <point x="544" y="247" type="line"/>
      <point x="204" y="619" type="line"/>
      <point x="84" y="511" type="line"/>
    </contour>
  </outline>
</glyph>
<glyph name="increment" format="2">
  <advance width="1257"/>
  <unicode hex="2206"/>
  <outline>
    <contour>
      <point x="64" y="0" type="line"/>
      <point x="1195" y="0" type="line"/>
      <point x="1195" y="133" type="line"/>
      <point x="759" y="1352" type="line"/>
      <point x="499" y="1352" type="line"/>
      <point x="64" y="133" type="line"/>
    </contour>
    <contour>
      <point x="314" y="187" type="line"/>
      <point x="507" y="749" type="line"/>
      <point x="626" y="1135" type="line"/>
      <point x="634" y="1135" type="line"/>
      <point x="752" y="749" type="line"/>
      <point x="945" y="187" type="line"/>
    </contour>
  </outline>
</glyph>
<glyph name="product" format="2">
  <advance width="1407"/>
  <unicode hex="220F"/>
  <outline>
    <contour>
      <point x="175" y="-246" type="line"/>
      <point x="395" y="-246" type="line"/>
      <point x="395" y="1112" type="line"/>
      <point x="1011" y="1112" type="line"/>
      <point x="1011" y="-246" type="line"/>
      <point x="1233" y="-246" type="line"/>
      <point x="1233" y="1304" type="line"/>
      <point x="175" y="1304" type="line"/>
    </contour>
  </outline>
</glyph>
